<?xml version="1.0" encoding="UTF-8"?>
<svg id="_图层_1" data-name="图层_1" xmlns="http://www.w3.org/2000/svg" xmlns:xlink="http://www.w3.org/1999/xlink" version="1.1" viewBox="0 0 1920 1080">
  <!-- Generator: Adobe Illustrator 30.2.1, SVG Export Plug-In . SVG Version: 2.1.1 Build 1)  -->
  <defs>
    <style>
      .st0, .st1, .st2, .st3, .st4, .st5, .st6 {
        fill: none;
      }

      .st7 {
        fill: #1877f2;
      }

      .st8, .st9, .st10, .st11, .st12, .st13 {
        font-weight: 700;
      }

      .st8, .st9, .st13 {
        font-family: CiscoSans-Bold, CiscoSans;
      }

      .st9, .st14, .st15 {
        font-size: 14px;
      }

      .st9, .st14, .st16, .st17 {
        fill: #555;
      }

      .st18 {
        font-family: CiscoSans, CiscoSans;
        font-size: 32px;
      }

      .st10 {
        fill: #104184;
        font-size: 100px;
      }

      .st10, .st11, .st12 {
        font-family: CiscoSans-BoldOblique, CiscoSans;
        font-style: oblique;
      }

      .st10, .st12 {
        opacity: 0;
      }

      .st19, .st20, .st15, .st21, .st22, .st23, .st24, .st25, .st26 {
        font-family: CiscoSansLight, CiscoSans;
      }

      .st27 {
        fill: #3e434d;
      }

      .st28 {
        fill: #282828;
        font-family: PingFangSC-Regular-GBpc-EUC-H, 'PingFang SC';
        font-size: 23.4px;
      }

      .st1 {
        stroke: #3e434d;
        stroke-dasharray: .7 6;
        stroke-width: 1.5px;
      }

      .st1, .st2, .st29, .st30, .st31, .st3, .st32, .st5, .st6 {
        stroke-miterlimit: 10;
      }

      .st1, .st6 {
        stroke-linecap: square;
      }

      .st11 {
        fill: #323233;
        font-size: 41.8px;
      }

      .st2 {
        stroke-width: 1.3px;
      }

      .st2, .st29, .st30, .st31, .st3, .st32, .st5, .st6 {
        stroke: #000;
      }

      .st29 {
        fill: #c6e5e2;
      }

      .st29, .st30, .st31, .st32, .st5, .st6 {
        stroke-width: .5px;
      }

      .st12 {
        fill: #104181;
        font-size: 140px;
      }

      .st33 {
        clip-path: url(#clippath-17);
      }

      .st34 {
        clip-path: url(#clippath-19);
      }

      .st35 {
        clip-path: url(#clippath-11);
      }

      .st36 {
        clip-path: url(#clippath-16);
      }

      .st37 {
        clip-path: url(#clippath-18);
      }

      .st38 {
        clip-path: url(#clippath-10);
      }

      .st39 {
        clip-path: url(#clippath-15);
      }

      .st40 {
        clip-path: url(#clippath-13);
      }

      .st41 {
        clip-path: url(#clippath-14);
      }

      .st42 {
        clip-path: url(#clippath-12);
      }

      .st43 {
        clip-path: url(#clippath-31);
      }

      .st44 {
        clip-path: url(#clippath-32);
      }

      .st45 {
        clip-path: url(#clippath-33);
      }

      .st46 {
        clip-path: url(#clippath-34);
      }

      .st47 {
        clip-path: url(#clippath-35);
      }

      .st48 {
        clip-path: url(#clippath-30);
      }

      .st49 {
        clip-path: url(#clippath-36);
      }

      .st50 {
        clip-path: url(#clippath-27);
      }

      .st51 {
        clip-path: url(#clippath-29);
      }

      .st52 {
        clip-path: url(#clippath-26);
      }

      .st53 {
        clip-path: url(#clippath-28);
      }

      .st54 {
        clip-path: url(#clippath-20);
      }

      .st55 {
        clip-path: url(#clippath-21);
      }

      .st56 {
        clip-path: url(#clippath-22);
      }

      .st57 {
        clip-path: url(#clippath-23);
      }

      .st58 {
        clip-path: url(#clippath-24);
      }

      .st59 {
        clip-path: url(#clippath-25);
      }

      .st30 {
        fill: #c4c0dd;
      }

      .st60 {
        clip-path: url(#clippath-1);
      }

      .st61 {
        clip-path: url(#clippath-3);
      }

      .st62 {
        clip-path: url(#clippath-4);
      }

      .st63 {
        clip-path: url(#clippath-2);
      }

      .st64 {
        clip-path: url(#clippath-7);
      }

      .st65 {
        clip-path: url(#clippath-6);
      }

      .st66 {
        clip-path: url(#clippath-9);
      }

      .st67 {
        clip-path: url(#clippath-8);
      }

      .st68 {
        clip-path: url(#clippath-5);
      }

      .st69 {
        font-family: PingFangSC-Medium-GBpc-EUC-H, 'PingFang SC';
        font-size: 60px;
        font-weight: 500;
      }

      .st31 {
        fill: #4980d6;
      }

      .st70, .st32, .st13 {
        fill: #fff;
      }

      .st3 {
        stroke-dasharray: 1 4;
        stroke-width: 2px;
      }

      .st4 {
        clip-rule: evenodd;
      }

      .st13 {
        font-size: 21.6px;
      }

      .st20, .st16 {
        font-size: 12px;
      }

      .st21 {
        font-size: 19.2px;
      }

      .st22 {
        font-size: 18px;
      }

      .st23 {
        font-size: 19.3px;
      }

      .st24 {
        font-size: 22px;
      }

      .st25 {
        font-size: 11px;
      }

      .st26 {
        letter-spacing: 0em;
      }

      .st71 {
        clip-path: url(#clippath);
      }
    </style>
    <clipPath id="clippath">
      <rect class="st7" y="226" width="27" height="50"/>
    </clipPath>
    <clipPath id="clippath-1">
      <circle class="st0" cx="362.4" cy="640.1" r="34.6" transform="translate(-343.8 845.8) rotate(-76.7)"/>
    </clipPath>
    <clipPath id="clippath-2">
      <rect class="st0" x="-166.1" y="-333.3" width="2192.7" height="1233.4"/>
    </clipPath>
    <clipPath id="clippath-3">
      <path class="st4" d="M372.8,648.5c-5.2-1.9-6.8-3.5-6.8-7s1.6-1.4,2.3-5.2c.3-1.6,1.7,0,2-3.6,0-1.4-.8-1.8-.8-1.8,0,0,.4-2.1.5-3.8.2-2-1.2-7.3-8.4-7.3s-8.5,5.3-8.4,7.3c.2,1.6.5,3.8.5,3.8,0,0-.8.4-.8,1.8.3,3.6,1.7,2.1,2,3.6.7,3.8,2.3,3.1,2.3,5.2,0,3.5-1.7,5.1-6.8,7-5.2,1.9-8.6,3.9-8.6,5.2v4.5h39.5v-4.5c0-1.3-3.4-3.3-8.6-5.2Z"/>
    </clipPath>
    <clipPath id="clippath-4">
      <rect class="st0" x="-166.1" y="-333.3" width="2192.7" height="1233.4"/>
    </clipPath>
    <clipPath id="clippath-5">
      <circle class="st0" cx="249.8" cy="644.1" r="4" transform="translate(-117.3 58.9) rotate(-10.9)"/>
    </clipPath>
    <clipPath id="clippath-6">
      <rect class="st0" x="-166.1" y="-333.3" width="2192.7" height="1233.4"/>
    </clipPath>
    <clipPath id="clippath-7">
      <circle class="st0" cx="362.4" cy="560.5" r="4" transform="translate(-119.1 98.3) rotate(-13.3)"/>
    </clipPath>
    <clipPath id="clippath-8">
      <rect class="st0" x="-165.3" y="-333.3" width="2192.7" height="1233.4"/>
    </clipPath>
    <clipPath id="clippath-9">
      <circle class="st0" cx="249" cy="645.3" r="4" transform="translate(-141.6 74.5) rotate(-13.3)"/>
    </clipPath>
    <clipPath id="clippath-10">
      <rect class="st0" x="-238.8" y="-248.5" width="2192.7" height="1233.4"/>
    </clipPath>
    <clipPath id="clippath-11">
      <polygon class="st4" points="436.7 637.8 453.5 645.5 436.7 652.4 439.5 645.1 436.7 637.8"/>
    </clipPath>
    <clipPath id="clippath-12">
      <rect class="st0" x="-1133.4" y="-46" width="1752.6" height="985.9"/>
    </clipPath>
    <clipPath id="clippath-13">
      <polygon class="st4" points="755.8 637.8 772.7 645.5 755.8 652.4 758.7 645.1 755.8 637.8"/>
    </clipPath>
    <clipPath id="clippath-14">
      <rect class="st0" x="-814.4" y="-45.5" width="1752.6" height="985.9"/>
    </clipPath>
    <clipPath id="clippath-15">
      <polygon class="st4" points="934.2 605.6 952 600.4 943.7 616.6 941.2 609.3 934.2 605.6"/>
    </clipPath>
    <clipPath id="clippath-16">
      <rect class="st0" x="-591.8" y="422" width="1752.6" height="985.9" transform="translate(-529 408.8) rotate(-40.8)"/>
    </clipPath>
    <clipPath id="clippath-17">
      <circle class="st0" cx="362.4" cy="721.5" r="4" transform="translate(-156.1 102.6) rotate(-13.3)"/>
    </clipPath>
    <clipPath id="clippath-18">
      <rect class="st0" x="-165.3" y="-172.3" width="2192.7" height="1233.4"/>
    </clipPath>
    <clipPath id="clippath-19">
      <polygon class="st4" points="565.6 777.9 582.5 785.6 565.6 792.5 568.5 785.3 565.6 777.9"/>
    </clipPath>
    <clipPath id="clippath-20">
      <rect class="st0" x="-1004.4" y="94.2" width="1752.6" height="985.9"/>
    </clipPath>
    <clipPath id="clippath-21">
      <polygon class="st4" points="1207.6 692.6 1222.9 682 1205.1 678.2 1209.2 684.8 1207.6 692.6"/>
    </clipPath>
    <clipPath id="clippath-22">
      <rect class="st0" x="-318.9" y="507.7" width="1752.6" height="985.9" transform="translate(-164.8 111.6) rotate(-10)"/>
    </clipPath>
    <clipPath id="clippath-23">
      <polygon class="st4" points="1200.6 591.7 1215.6 602.6 1197.7 606.1 1202 599.5 1200.6 591.7"/>
    </clipPath>
    <clipPath id="clippath-24">
      <rect class="st0" x="63.7" y="-605.6" width="985.9" height="1752.6" transform="translate(183.6 764.7) rotate(-78.9)"/>
    </clipPath>
    <clipPath id="clippath-25">
      <polygon class="st4" points="1518.2 635.8 1535.1 643.5 1518.2 650.4 1521.1 643.1 1518.2 635.8"/>
    </clipPath>
    <clipPath id="clippath-26">
      <rect class="st0" x="-52" y="-47.5" width="1752.6" height="985.9"/>
    </clipPath>
    <clipPath id="clippath-27">
      <polygon class="st4" points="930 675.5 947.9 680.6 939.6 664.4 937 671.8 930 675.5"/>
    </clipPath>
    <clipPath id="clippath-28">
      <rect class="st0" x="-212.6" y="-510.2" width="985.9" height="1752.6" transform="translate(-180 338.9) rotate(-49.2)"/>
    </clipPath>
    <clipPath id="clippath-29">
      <polygon class="st4" points="1185.2 548.5 1198.3 561.6 1180.1 562.2 1185.4 556.4 1185.2 548.5"/>
    </clipPath>
    <clipPath id="clippath-30">
      <rect class="st0" x="108.7" y="-748.7" width="985.9" height="1752.6" transform="translate(272.1 646.9) rotate(-69.6)"/>
    </clipPath>
    <clipPath id="clippath-31">
      <polygon class="st4" points="953.1 461.7 966.3 474.7 948.1 475.4 953.3 469.6 953.1 461.7"/>
    </clipPath>
    <clipPath id="clippath-32">
      <rect class="st0" x="-126" y="-832" width="985.9" height="1752.6" transform="translate(199.3 373.8) rotate(-69.9)"/>
    </clipPath>
    <clipPath id="clippath-33">
      <polygon class="st4" points="717.8 498.5 726.1 481.9 708.6 487.2 715.4 491 717.8 498.5"/>
    </clipPath>
    <clipPath id="clippath-34">
      <rect class="st0" x="-578.8" y="589.6" width="1752.6" height="985.9" transform="translate(-613.7 426.7) rotate(-38.9)"/>
    </clipPath>
    <clipPath id="clippath-35">
      <polygon class="st4" points="911 763.3 926.1 752.5 908.2 749 912.4 755.6 911 763.3"/>
    </clipPath>
    <clipPath id="clippath-36">
      <rect class="st0" x="-610.5" y="589" width="1752.6" height="985.9" transform="translate(-199.9 69.8) rotate(-10.9)"/>
    </clipPath>
  </defs>
  <g>
    <rect class="st7" y="226" width="27" height="50"/>
    <g class="st71">
      <rect class="st7" x="-6" y="221" width="38" height="60"/>
    </g>
  </g>
  <line class="st6" x1="362.4" y1="722.1" x2="362.4" y2="558.1"/>
  <text class="st11" transform="translate(1611.8 503.8)"><tspan x="0" y="0">BUSINESS</tspan></text>
  <g>
    <circle class="st2" cx="1714.5" cy="642.9" r="117.1" transform="translate(47.6 1400.6) rotate(-45)"/>
    <text class="st18" transform="translate(1626 629.9)"><tspan x="0" y="0">Compliance</tspan><tspan x="32.9" y="42">Service</tspan></text>
  </g>
  <circle class="st5" cx="190" cy="643.3" r="59"/>
  <circle class="st5" cx="360.7" cy="781.2" r="59"/>
  <circle class="st5" cx="360.7" cy="502.4" r="59"/>
  <g class="st60">
    <g class="st63">
      <rect x="322.2" y="599.8" width="80.6" height="80.6"/>
    </g>
  </g>
  <g class="st61">
    <g class="st62">
      <rect class="st70" x="336.2" y="614.1" width="51" height="49.8"/>
    </g>
  </g>
  <g class="st68">
    <g class="st65">
      <rect x="240" y="634.4" width="3.7" height="19.5"/>
    </g>
  </g>
  <g class="st64">
    <g class="st67">
      <rect x="352.7" y="550.8" width="19.5" height="19.5"/>
    </g>
  </g>
  <text class="st20" transform="translate(330.5 488.8)"><tspan x="0" y="0">All Devices</tspan><tspan x="9.3" y="18">Policies</tspan><tspan x="8.7" y="36">(For All)</tspan></text>
  <text class="st20" transform="translate(157.5 638)"><tspan x="0" y="0">Compliance</tspan><tspan x="-5.4" y="18">Requirements</tspan></text>
  <text class="st25" transform="translate(320.7 768.1)"><tspan x="0" y="0">Special Devices</tspan><tspan x="20.8" y="18">Policies</tspan><tspan x="-2.7" y="36">(For One, Partial)</tspan></text>
  <line class="st6" x1="248.9" y1="645.3" x2="328.8" y2="645.3"/>
  <g class="st66">
    <g class="st38">
      <rect x="239.2" y="635.6" width="59.5" height="19.5"/>
    </g>
  </g>
  <circle class="st5" cx="360.7" cy="781.2" r="59"/>
  <line class="st1" x1="493.3" y1="645.7" x2="402.7" y2="645.7"/>
  <g class="st35">
    <g class="st42">
      <rect class="st27" x="432.1" y="633.2" width="26" height="23.7"/>
    </g>
  </g>
  <line class="st1" x1="797.5" y1="645.5" x2="712.3" y2="645.5"/>
  <g class="st40">
    <g class="st41">
      <rect class="st27" x="751.2" y="633.2" width="26" height="23.7"/>
    </g>
  </g>
  <circle class="st30" cx="852.1" cy="642.9" r="47"/>
  <text class="st20" transform="translate(819.6 636.7) rotate(0)"><tspan x="0" y="0">Aggregated</tspan><tspan x="11.5" y="21">Policies</tspan></text>
  <line class="st1" x1="984.9" y1="576.1" x2="901.7" y2="637.6"/>
  <g class="st39">
    <g class="st36">
      <rect class="st27" x="932.3" y="593.7" width="26" height="23.7" transform="translate(-165.9 765.6) rotate(-40.8)"/>
    </g>
  </g>
  <circle class="st31" cx="1369.2" cy="642.9" r="83.9"/>
  <text class="st13" transform="translate(1337.1 632) rotate(0)"><tspan x="0" y="0">Policy</tspan><tspan x="-3.6" y="37.7">Center</tspan></text>
  <g class="st33">
    <g class="st37">
      <rect x="352.7" y="711.8" width="19.5" height="19.5"/>
    </g>
  </g>
  <g>
    <path class="st17" d="M1129.9,480.7v-2.1s2.1,0,2.1,0v2.1s-2.1,0-2.1,0Z"/>
    <path class="st17" d="M1151.5,474c2.2,0,3.4,1,3.4,2.6,0,1-.7,1.9-1.7,2.2,1.1.2,2.1,1.2,2.1,2.5,0,1.8-1.3,2.8-3.7,2.8h-3.5s0-10.1,0-10.1h3.5ZM1149.1,474.9v3.5s2.6,0,2.6,0c1.4,0,2.1-.7,2.1-1.8,0-1.1-.8-1.7-2.1-1.7h-2.5ZM1149.1,479.2v4s2.6,0,2.6,0c1.6,0,2.4-.7,2.4-1.9,0-1.3-.8-2-2.3-2h-2.7Z"/>
    <path class="st17" d="M1157.9,476.8v4.8c0,1.2.7,1.8,1.7,1.8,1.3,0,2-1,2-2.2v-4.5s1,0,1,0v7.3s-.9,0-.9,0v-1c-.6.8-1.5,1.2-2.4,1.2-1.5,0-2.5-.9-2.5-2.6v-4.8s1,0,1,0Z"/>
    <path class="st17" d="M1164.6,475.3v-1.3s1.2,0,1.2,0v1.3s-1.2,0-1.2,0ZM1164.7,484.1v-7.3s1,0,1,0v7.3s-1,0-1,0Z"/>
    <path class="st17" d="M1168.8,484.1h-1s0-10.1,0-10.1h1s0,10.1,0,10.1Z"/>
    <path class="st17" d="M1172.2,477.7v4.8c0,.6.3.9.9.9.3,0,.5,0,.9-.1v.9c-.3,0-.6.1-1,.1-1.2,0-1.8-.7-1.8-1.8v-4.7s-1.1,0-1.1,0v-.9s1.1,0,1.1,0v-1.8c0,0,1,0,1,0v1.8s1.6,0,1.6,0v.9s-1.6,0-1.6,0Z"/>
    <path class="st17" d="M1180.4,480h-4.9s0-.9,0-.9h4.9s0,.9,0,.9Z"/>
    <path class="st17" d="M1182.7,475.3v-1.3s1.2,0,1.2,0v1.3s-1.2,0-1.2,0ZM1182.7,484.1v-7.3s1,0,1,0v7.3s-1,0-1,0Z"/>
    <path class="st17" d="M1185.8,484.1v-7.3s.8,0,.8,0v1.1c.6-.9,1.5-1.3,2.4-1.3,1.6,0,2.6,1,2.6,2.6v4.9s-1,0-1,0v-4.8c0-1.2-.6-1.8-1.8-1.8-1,0-2,.8-2,2.1v4.5s-1,0-1,0Z"/>
    <path class="st17" d="M1203.2,484.1l-2.2-3.7h-1.3s0,3.7,0,3.7h-2.4s0-10.1,0-10.1h3.7c2.8,0,4.3,1.1,4.3,3.2,0,1.4-.6,2.3-2,2.8l2.7,4.1h-2.8ZM1199.7,475.6v3.2s1.5,0,1.5,0c1,0,1.7-.6,1.7-1.6,0-1.1-.6-1.6-1.8-1.6h-1.4Z"/>
    <path class="st17" d="M1209,476.8v4.8c0,.7.4,1.1,1.2,1.1.8,0,1.3-.6,1.3-1.6v-4.4s2.2,0,2.2,0v7.3s-1.8,0-1.8,0l-.2-.8c-.5.6-1.3,1-2.2,1-1.7,0-2.7-1-2.7-2.8v-4.7s2.2,0,2.2,0Z"/>
    <path class="st17" d="M1217.4,484h-2.2s0-10.1,0-10.1h2.2s0,10.1,0,10.1Z"/>
    <path class="st17" d="M1226.1,481.9c-.3,1.3-1.4,2.3-3.6,2.3-2.3,0-3.8-1.4-3.8-3.8,0-2.5,1.5-3.9,3.8-3.9,2.3,0,3.8,1.4,3.8,4.4h-5.3c.2,1.3.8,1.8,1.7,1.8.7,0,1.1-.3,1.3-.8h2.2ZM1220.9,479.7h3.1c0-1.2-.6-1.7-1.6-1.7-.8,0-1.4.5-1.5,1.7Z"/>
    <path class="st17" d="M1231.6,482.1c0-.5-.4-.6-1.7-.9-1.4-.3-2.6-.8-2.6-2.4,0-1.4,1.1-2.3,3.2-2.3,1.9,0,3.1.8,3.3,2.2h-2.2c0-.4-.5-.7-1.2-.7-.7,0-1,.2-1,.6,0,.4.3.5,1.5.9,1.3.3,2.9.7,2.9,2.3,0,1.4-1.1,2.5-3.4,2.5-2,0-3.2-.9-3.5-2.3h2.2c0,.5.6.8,1.3.8.9,0,1.2-.3,1.2-.7Z"/>
    <path class="st17" d="M1129.9,501.7v-2.1s2.1,0,2.1,0v2.1s-2.1,0-2.1,0Z"/>
    <path class="st17" d="M1147.6,500.1c0-3.4,2-5.3,4.6-5.3,2.3,0,4,1.4,4.2,3.3h-1.1c-.3-1.5-1.4-2.4-3.1-2.4-2,0-3.5,1.5-3.5,4.4,0,2.7,1.5,4.3,3.5,4.3,1.7,0,3-1.1,3.1-2.7h1.1c-.2,2-1.8,3.7-4.3,3.7-2.8,0-4.6-1.9-4.6-5.2Z"/>
    <path class="st17" d="M1158,505.1v-7.3s.8,0,.8,0v1.2c.5-1,1.2-1.5,2.1-1.5.3,0,.6,0,.8,0v1c-.3,0-.5-.1-.8-.1-1,0-1.9.9-1.9,2.7v3.8s-1,0-1,0Z"/>
    <path class="st17" d="M1169.2,503c-.4,1.3-1.5,2.3-3.2,2.3-2,0-3.5-1.3-3.5-3.8,0-2.5,1.5-3.9,3.4-3.9,1.9,0,3.3,1.2,3.4,4.1h-5.7c0,1.9,1.1,2.7,2.5,2.7,1,0,1.8-.5,2-1.4h1.1ZM1163.6,500.8h4.6c0-1.6-1-2.4-2.3-2.4-1.2,0-2.2.8-2.3,2.4Z"/>
    <path class="st17" d="M1170.7,499.8c.1-1.3,1.3-2.2,3-2.2,1.8,0,2.8,1,2.8,2.4v5s-.9,0-.9,0v-1.1c-.6.7-1.4,1.3-2.6,1.3-1.5,0-2.5-.8-2.5-2.1,0-1.3.8-2,2.8-2.4l2.2-.4v-.5c0-1-.7-1.6-1.9-1.6-1.1,0-1.7.5-1.8,1.3h-1.1ZM1175.5,501.3l-1.9.3c-1.5.3-2,.7-2,1.5,0,.8.6,1.3,1.6,1.3,1.1,0,2.2-.8,2.2-2v-1.1Z"/>
    <path class="st17" d="M1179.8,498.7v4.8c0,.6.3.9.9.9s.5,0,.9-.1v.9c-.3,0-.6.1-1,.1-1.2,0-1.8-.7-1.8-1.8v-4.7s-1.1,0-1.1,0v-.9s1.1,0,1.1,0v-1.8h1v1.8s1.6,0,1.6,0v.9s-1.6,0-1.6,0Z"/>
    <path class="st17" d="M1189.1,503c-.4,1.3-1.5,2.3-3.2,2.3-2,0-3.5-1.3-3.5-3.8,0-2.5,1.5-3.9,3.4-3.9,1.9,0,3.3,1.2,3.4,4.1h-5.7c0,1.9,1.1,2.7,2.5,2.7,1,0,1.8-.5,2-1.4h1.1ZM1183.6,500.8h4.6c0-1.6-1-2.4-2.3-2.4-1.2,0-2.2.8-2.3,2.4Z"/>
    <path class="st17" d="M1192.6,504.9c0,1.4-.8,2-1.6,2.2v-.6c.5-.2.8-.5.8-1.4h-.5s0-1.4,0-1.4h1.3s0,1.2,0,1.2Z"/>
    <path class="st17" d="M1205,500.4h-4.6s0,3.7,0,3.7h5s0,.9,0,.9h-6.1s0-10.1,0-10.1h6.1s0,.9,0,.9h-5s0,3.6,0,3.6h4.6s0,.9,0,.9Z"/>
    <path class="st17" d="M1212.6,505.1l-.2-1.2c-.5.8-1.3,1.4-2.5,1.4-1.8,0-3.2-1.3-3.2-3.8,0-2.6,1.4-3.9,3.2-3.9,1.1,0,2,.5,2.4,1.3v-3.9s1,0,1,0v10.1s-.8,0-.8,0ZM1210.1,504.4c1.3,0,2.3-1,2.3-2.9,0-2-1-3-2.3-3-1.3,0-2.3,1-2.3,3,0,1.9,1,2.9,2.3,2.9Z"/>
    <path class="st17" d="M1215.3,496.3v-1.3s1.2,0,1.2,0v1.3s-1.2,0-1.2,0ZM1215.4,505v-7.3s1,0,1,0v7.3s-1,0-1,0Z"/>
    <path class="st17" d="M1219.8,498.7v4.8c0,.6.3.9.9.9s.5,0,.9-.1v.9c-.3,0-.6.1-1,.1-1.2,0-1.8-.7-1.8-1.8v-4.7s-1.1,0-1.1,0v-.9s1.1,0,1.1,0v-1.8c0,0,1,0,1,0v1.8s1.6,0,1.6,0v.9s-1.6,0-1.6,0Z"/>
    <path class="st17" d="M1224.5,504.9c0,1.4-.8,2-1.6,2.2v-.6c.5-.2.8-.5.8-1.4h-.5v-1.4s1.3,0,1.3,0v1.2Z"/>
    <path class="st17" d="M1231.3,495l3.3,9.1,3.3-9.1h1.1s-3.7,10.1-3.7,10.1h-1.4s-3.7-10.1-3.7-10.1h1.1Z"/>
    <path class="st17" d="M1239.9,496.2v-1.3s1.2,0,1.2,0v1.3s-1.2,0-1.2,0ZM1240,505v-7.3s1,0,1,0v7.3s-1,0-1,0Z"/>
    <path class="st17" d="M1249.3,503c-.4,1.3-1.5,2.3-3.2,2.3-2,0-3.5-1.3-3.5-3.8,0-2.5,1.5-3.9,3.4-3.9,1.9,0,3.3,1.2,3.4,4.1h-5.7c0,1.9,1.1,2.7,2.5,2.7,1,0,1.8-.5,2-1.4h1.1ZM1243.7,500.8h4.6c0-1.6-1-2.4-2.3-2.4-1.2,0-2.2.8-2.3,2.4Z"/>
    <path class="st17" d="M1260.9,497.7l-2.1,7.3h-1.2s-1.9-6.1-1.9-6.1l-1.8,6.2h-1.3s-2.2-7.3-2.2-7.3h1.1s1.8,6.2,1.8,6.2l1.8-6.2h1.3l1.9,6.2,1.7-6.2h1.1Z"/>
    <path class="st17" d="M1263.8,504.9c0,1.4-.8,2-1.6,2.2v-.6c.5-.2.8-.5.8-1.4h-.5v-1.4s1.3,0,1.3,0v1.2Z"/>
    <path class="st17" d="M1273.5,494.9c2.9,0,4.9,1.7,4.9,5,0,3.2-2.1,5-5,5h-3s0-10.1,0-10.1h3.1ZM1271.6,495.8v8.3s2,0,2,0c2.3,0,3.8-1.4,3.8-4.1,0-2.8-1.5-4.1-3.8-4.1h-2Z"/>
    <path class="st17" d="M1286.4,503c-.4,1.3-1.5,2.3-3.2,2.3-2,0-3.5-1.3-3.5-3.8,0-2.5,1.5-3.9,3.4-3.9,1.9,0,3.3,1.2,3.4,4.1h-5.7c0,1.9,1.1,2.7,2.5,2.7,1,0,1.8-.5,2-1.4h1.1ZM1280.8,500.8h4.6c0-1.6-1-2.4-2.3-2.4-1.2,0-2.2.8-2.3,2.4Z"/>
    <path class="st17" d="M1289.2,505h-1s0-10.1,0-10.1h1s0,10.1,0,10.1Z"/>
    <path class="st17" d="M1297.5,502.9c-.4,1.3-1.5,2.3-3.2,2.3-2,0-3.5-1.3-3.5-3.8,0-2.5,1.5-3.9,3.4-3.9,1.9,0,3.3,1.2,3.4,4.1h-5.7c0,1.9,1.1,2.7,2.5,2.7,1,0,1.8-.5,2-1.4h1.1ZM1292,500.8h4.6c0-1.6-1-2.4-2.3-2.4-1.2,0-2.2.8-2.3,2.4Z"/>
    <path class="st17" d="M1300.7,498.6v4.8c0,.6.3.9.9.9.3,0,.5,0,.9-.1v.9c-.3,0-.6.1-1,.1-1.2,0-1.8-.7-1.8-1.8v-4.7s-1.1,0-1.1,0v-.9s1.1,0,1.1,0v-1.8c0,0,1,0,1,0v1.8s1.6,0,1.6,0v.9s-1.6,0-1.6,0Z"/>
    <path class="st17" d="M1310,502.9c-.4,1.3-1.5,2.3-3.2,2.3-2,0-3.5-1.3-3.5-3.8,0-2.5,1.5-3.9,3.4-3.9,1.9,0,3.3,1.2,3.4,4.1h-5.7c0,1.9,1.1,2.7,2.5,2.7,1,0,1.8-.5,2-1.4h1.1ZM1304.4,500.7h4.6c0-1.6-1-2.4-2.3-2.4-1.2,0-2.2.8-2.3,2.4Z"/>
    <path class="st17" d="M1321.4,505l-2.2-3.7h-1.3s0,3.7,0,3.7h-2.4s0-10.1,0-10.1h3.7c2.8,0,4.3,1.1,4.3,3.2,0,1.4-.6,2.3-2,2.8l2.7,4.1h-2.8ZM1317.9,496.5v3.2s1.5,0,1.5,0c1,0,1.7-.6,1.7-1.6,0-1.1-.6-1.6-1.8-1.6h-1.4Z"/>
    <path class="st17" d="M1327.1,497.7v4.8c0,.7.4,1.1,1.2,1.1.8,0,1.3-.6,1.3-1.6v-4.4s2.2,0,2.2,0v7.3s-1.8,0-1.8,0l-.2-.8c-.5.6-1.3,1-2.2,1-1.7,0-2.7-1-2.7-2.8v-4.7s2.2,0,2.2,0Z"/>
    <path class="st17" d="M1335.5,505h-2.2s0-10.1,0-10.1h2.2s0,10.1,0,10.1Z"/>
    <path class="st17" d="M1344.2,502.8c-.3,1.3-1.4,2.3-3.6,2.3-2.3,0-3.8-1.4-3.8-3.8,0-2.5,1.5-3.9,3.8-3.9,2.3,0,3.8,1.4,3.8,4.4h-5.3c.2,1.3.8,1.8,1.7,1.8.7,0,1.1-.3,1.3-.8h2.2ZM1339,500.6h3.1c0-1.2-.6-1.7-1.6-1.7-.8,0-1.4.5-1.5,1.7Z"/>
    <path class="st17" d="M1349.8,503c0-.5-.4-.6-1.7-.9-1.4-.3-2.6-.8-2.6-2.4,0-1.4,1.1-2.3,3.2-2.3,1.9,0,3.1.8,3.3,2.2h-2.2c0-.4-.5-.7-1.2-.7-.7,0-1,.2-1,.6s.3.5,1.5.9c1.3.3,2.9.7,2.9,2.3,0,1.4-1.1,2.5-3.4,2.5-2,0-3.2-.9-3.5-2.3h2.2c0,.5.6.8,1.3.8.9,0,1.2-.3,1.2-.7Z"/>
  </g>
  <g>
    <path class="st17" d="M1140.3,795.3v-3.2s3.3,0,3.3,0v3.2s-3.3,0-3.3,0Z"/>
    <path class="st17" d="M1160.8,788.1v10.1s-2.3,0-2.3,0v-10.1s2.3,0,2.3,0Z"/>
    <path class="st17" d="M1162.4,798.2v-7.3s1.8,0,1.8,0l.2.8c.5-.6,1.2-1,2.2-1,1.7,0,2.7,1,2.7,2.8v4.7s-2.2,0-2.2,0v-4.6c0-1-.4-1.3-1.1-1.3-.8,0-1.5.6-1.5,1.6v4.3s-2.2,0-2.2,0Z"/>
    <path class="st17" d="M1170.8,788.1h2.2s0,3.5,0,3.5c.5-.5,1.1-.9,2.1-.9,1.7,0,2.7,1,2.7,2.8v4.7s-2.2,0-2.2,0v-4.6c0-1-.4-1.3-1.1-1.3-.8,0-1.5.6-1.5,1.6v4.4s-2.2,0-2.2,0v-10.1Z"/>
    <path class="st17" d="M1186.4,796.1c-.3,1.3-1.4,2.3-3.6,2.3-2.3,0-3.8-1.4-3.8-3.8,0-2.5,1.5-3.9,3.8-3.9,2.3,0,3.8,1.4,3.8,4.4h-5.3c.2,1.3.8,1.8,1.7,1.8.7,0,1.1-.3,1.3-.8h2.2ZM1181.2,793.8h3.1c0-1.2-.6-1.7-1.6-1.7-.8,0-1.4.5-1.5,1.7Z"/>
    <path class="st17" d="M1187.7,798.2v-7.3s1.8,0,1.8,0l.2,1.1c.4-.9,1-1.3,1.9-1.3s.6,0,.8,0v2c-.3,0-.6-.1-.9-.1-.9,0-1.7.9-1.7,2.5v3s-2.2,0-2.2,0Z"/>
    <path class="st17" d="M1193.1,790v-1.9s2.4,0,2.4,0v1.9s-2.4,0-2.4,0ZM1193.2,798.2v-7.3s2.2,0,2.2,0v7.3s-2.2,0-2.2,0Z"/>
    <path class="st17" d="M1201.1,798.2c-.4.1-.9.2-1.3.2-1.5,0-2.4-.8-2.4-2.2v-3.7s-1.1,0-1.1,0v-1.5s1.1,0,1.1,0v-1.8c.1,0,2.2,0,2.2,0v1.8s1.5,0,1.5,0v1.5s-1.5,0-1.5,0v3.8c0,.4.3.6.7.6s.5,0,.8-.1v1.5Z"/>
    <path class="st17" d="M1211.4,798.2l-2.2-3.7h-1.3s0,3.7,0,3.7h-2.4s0-10.1,0-10.1h3.7c2.8,0,4.3,1.1,4.3,3.2,0,1.4-.6,2.3-2,2.8l2.7,4.1h-2.8ZM1207.9,789.7v3.2s1.5,0,1.5,0c1,0,1.7-.6,1.7-1.6,0-1.1-.6-1.6-1.8-1.6h-1.4Z"/>
    <path class="st17" d="M1217.1,790.9v4.8c0,.7.4,1.1,1.2,1.1.8,0,1.3-.6,1.3-1.6v-4.4s2.2,0,2.2,0v7.3s-1.8,0-1.8,0l-.2-.8c-.5.6-1.3,1-2.2,1-1.7,0-2.7-1-2.7-2.8v-4.7s2.2,0,2.2,0Z"/>
    <path class="st17" d="M1225.6,798.2h-2.2s0-10.1,0-10.1h2.2s0,10.1,0,10.1Z"/>
    <path class="st17" d="M1234.2,796.1c-.3,1.3-1.4,2.3-3.6,2.3-2.3,0-3.8-1.4-3.8-3.8,0-2.5,1.5-3.9,3.8-3.9,2.3,0,3.8,1.4,3.8,4.4h-5.3c.2,1.3.8,1.8,1.7,1.8.7,0,1.1-.3,1.3-.8h2.2ZM1229,793.8h3.1c0-1.2-.6-1.7-1.6-1.7-.8,0-1.4.5-1.5,1.7Z"/>
    <path class="st17" d="M1239.8,796.2c0-.5-.4-.6-1.7-.9-1.4-.3-2.6-.8-2.6-2.4,0-1.4,1.1-2.3,3.2-2.3,1.9,0,3.1.8,3.4,2.2h-2.2c0-.4-.5-.7-1.2-.7-.7,0-1,.2-1,.6s.3.5,1.5.9c1.3.3,2.9.7,2.9,2.3,0,1.4-1.1,2.5-3.4,2.5-2,0-3.2-.9-3.5-2.3h2.2c0,.5.6.8,1.3.8.9,0,1.2-.3,1.2-.7Z"/>
    <path class="st17" d="M1251.1,788.9c-.4-.1-.8-.2-1.1-.2-.6,0-.9.3-.9.9v1.2s1.6,0,1.6,0v.9h-1.6s0,6.4,0,6.4h-1s0-6.4,0-6.4h-1.1s0-.9,0-.9h1.1s0-1.1,0-1.1c0-1.2.8-1.9,1.9-1.9.4,0,.8,0,1.1.2v.9Z"/>
    <path class="st17" d="M1252.1,798.2v-7.3s.8,0,.8,0v1.2c.5-1,1.2-1.5,2.1-1.5.3,0,.6,0,.8,0v1c-.3,0-.5-.1-.8-.1-1,0-1.9.9-1.9,2.7v3.8s-1,0-1,0Z"/>
    <path class="st17" d="M1260,790.7c2,0,3.5,1.3,3.5,3.8,0,2.5-1.5,3.9-3.5,3.9-2,0-3.5-1.3-3.5-3.8,0-2.6,1.5-3.9,3.5-3.9ZM1260,797.5c1.4,0,2.4-1,2.4-3,0-2-1-3-2.4-3-1.4,0-2.4,1-2.4,3,0,2,1,3,2.4,3Z"/>
    <path class="st17" d="M1265.1,798.1v-7.3s.8,0,.8,0v1c.6-.9,1.5-1.2,2.3-1.2,1,0,1.8.4,2.2,1.3.5-1,1.5-1.3,2.4-1.3,1.5,0,2.4.9,2.4,2.5v4.9s-1,0-1,0v-4.9c0-1.2-.6-1.8-1.6-1.8-1.1,0-1.9,1-1.9,2.1v4.5s-1,0-1,0v-4.9c0-1.2-.6-1.8-1.6-1.8-1.1,0-1.9.9-1.9,2.1v4.5s-1,0-1,0Z"/>
    <path class="st17" d="M1286.8,798.1l-.2-1.2c-.5.8-1.3,1.4-2.5,1.4-1.8,0-3.2-1.3-3.2-3.8,0-2.6,1.4-3.9,3.2-3.9,1.1,0,2,.5,2.4,1.3v-3.9s1,0,1,0v10.1s-.8,0-.8,0ZM1284.3,797.5c1.3,0,2.3-1,2.3-2.9,0-2-1-3-2.3-3-1.3,0-2.3,1-2.3,3,0,1.9,1,2.9,2.3,2.9Z"/>
    <path class="st17" d="M1295.9,796.1c-.4,1.3-1.5,2.3-3.2,2.3-2,0-3.5-1.3-3.5-3.8,0-2.5,1.5-3.9,3.4-3.9,1.9,0,3.3,1.2,3.4,4.1h-5.7c0,1.9,1.1,2.7,2.5,2.7,1,0,1.8-.5,2-1.4h1.1ZM1290.4,793.9h4.6c0-1.6-1-2.4-2.3-2.4-1.2,0-2.2.8-2.3,2.4Z"/>
    <path class="st17" d="M1301.1,788.9c-.4-.1-.8-.2-1.1-.2-.6,0-.9.3-.9.9v1.2s1.6,0,1.6,0v.9h-1.6s0,6.4,0,6.4h-1s0-6.4,0-6.4h-1.1v-.9s1.1,0,1.1,0v-1.1c0-1.2.8-1.9,1.9-1.9.4,0,.8,0,1.1.2v.9Z"/>
    <path class="st17" d="M1301.9,792.8c.1-1.3,1.3-2.2,3-2.2,1.8,0,2.8,1,2.8,2.4v5s-.9,0-.9,0v-1.1c-.6.7-1.4,1.3-2.6,1.3-1.5,0-2.5-.8-2.5-2.1,0-1.3.8-2,2.8-2.4l2.2-.4v-.5c0-1-.7-1.6-1.9-1.6-1.1,0-1.7.5-1.8,1.3h-1.1ZM1306.6,794.3l-1.9.3c-1.5.3-2,.7-2,1.5,0,.8.6,1.3,1.6,1.3,1.1,0,2.2-.8,2.2-2v-1.1Z"/>
    <path class="st17" d="M1310.6,790.8v4.8c0,1.2.7,1.8,1.7,1.8,1.3,0,2-1,2-2.2v-4.5s1,0,1,0v7.3s-.9,0-.9,0v-1c-.6.8-1.5,1.2-2.4,1.2-1.5,0-2.5-.9-2.5-2.6v-4.8s1,0,1,0Z"/>
    <path class="st17" d="M1318.5,798.1h-1s0-10.1,0-10.1h1s0,10.1,0,10.1Z"/>
    <path class="st17" d="M1321.9,791.7v4.8c0,.6.3.9.9.9.3,0,.5,0,.9-.1v.9c-.3,0-.6.1-1,.1-1.2,0-1.8-.7-1.8-1.8v-4.7h-1.1v-.9h1.1v-1.8c0,0,1,0,1,0v1.8s1.6,0,1.6,0v.9h-1.6Z"/>
    <path class="st17" d="M1331.2,794.7c-1.6-.3-2.4-1-2.4-2.1,0-1.2.9-2,2.7-2,1.6,0,2.7.8,2.9,2.1h-1.1c-.1-.7-.8-1.2-1.9-1.2-1.1,0-1.7.5-1.7,1.1,0,.7.4,1,1.9,1.3,1.8.4,2.8.9,2.8,2.3,0,1.2-1.1,2.2-2.9,2.2-1.8,0-2.9-.9-3-2.2h1.1c.1.9.8,1.4,2,1.4,1.2,0,1.9-.6,1.9-1.3,0-.9-.8-1.2-2.3-1.5Z"/>
    <path class="st17" d="M1342.2,795.8c-.2,1.4-1.4,2.5-3.1,2.5-1.9,0-3.3-1.3-3.3-3.8,0-2.5,1.4-3.9,3.3-3.9,1.6,0,2.8.9,3.1,2.3h-1.1c-.2-.9-.9-1.4-1.9-1.4-1.3,0-2.3,1-2.3,3.1,0,2,1,2.9,2.3,2.9,1,0,1.8-.6,1.9-1.6h1.1Z"/>
    <path class="st17" d="M1350,796c-.4,1.3-1.5,2.3-3.1,2.3-2,0-3.5-1.3-3.5-3.8,0-2.5,1.5-3.9,3.4-3.9,1.9,0,3.3,1.2,3.4,4.1h-5.7c0,1.9,1.1,2.7,2.5,2.7,1,0,1.8-.5,2-1.4h1.1ZM1344.5,793.8h4.6c0-1.6-1-2.4-2.3-2.4-1.2,0-2.2.8-2.3,2.4Z"/>
    <path class="st17" d="M1351.9,798.1v-7.3s.8,0,.8,0v1.1c.6-.9,1.5-1.3,2.4-1.3,1.6,0,2.6,1,2.6,2.6v4.9s-1,0-1,0v-4.8c0-1.2-.6-1.8-1.8-1.8-1,0-2,.8-2,2.1v4.5s-1,0-1,0Z"/>
    <path class="st17" d="M1359.5,792.8c.1-1.3,1.3-2.2,3-2.2,1.8,0,2.8,1,2.8,2.4v5s-.9,0-.9,0v-1.1c-.6.7-1.4,1.3-2.6,1.3-1.5,0-2.5-.8-2.5-2.1,0-1.3.8-2,2.8-2.4l2.2-.4v-.5c0-1-.7-1.6-1.9-1.6-1.1,0-1.7.5-1.8,1.3h-1.1ZM1364.2,794.3l-1.9.3c-1.5.3-2,.7-2,1.5,0,.8.6,1.3,1.6,1.3,1.1,0,2.2-.8,2.2-2v-1.1Z"/>
    <path class="st17" d="M1367.3,798.1v-7.3s.8,0,.8,0v1.2c.5-1,1.2-1.5,2.1-1.5.3,0,.6,0,.8,0v1c-.3,0-.5-.1-.8-.1-1,0-1.9.9-1.9,2.7v3.8s-1,0-1,0Z"/>
    <path class="st17" d="M1372,789.3v-1.3s1.2,0,1.2,0v1.3s-1.2,0-1.2,0ZM1372.1,798.1v-7.3s1,0,1,0v7.3s-1,0-1,0Z"/>
    <path class="st17" d="M1378.2,790.6c2,0,3.5,1.3,3.5,3.9,0,2.5-1.5,3.9-3.5,3.9-2,0-3.5-1.3-3.5-3.8,0-2.6,1.5-3.9,3.5-3.9ZM1378.2,797.4c1.4,0,2.4-1,2.4-3,0-2-1-3-2.4-3s-2.4,1-2.4,3c0,2,1,3,2.4,3Z"/>
    <path class="st17" d="M1385.4,794.6c-1.6-.3-2.4-1-2.4-2.1,0-1.2.9-2,2.7-2,1.6,0,2.7.8,2.9,2.1h-1.1c-.1-.7-.8-1.2-1.9-1.2-1.1,0-1.7.5-1.7,1.1,0,.7.4,1,1.9,1.3,1.8.4,2.8.9,2.8,2.3,0,1.2-1.1,2.2-2.9,2.2-1.8,0-2.9-.9-3-2.2h1.1c.1.9.8,1.4,2,1.4,1.2,0,1.9-.6,1.9-1.3,0-.9-.8-1.2-2.3-1.5Z"/>
    <path class="st17" d="M1140.6,815.8v-2.1s2.1,0,2.1,0v2.1s-2.1,0-2.1,0Z"/>
    <path class="st17" d="M1158.3,814.2c0-3.4,2-5.3,4.6-5.3,2.3,0,4,1.4,4.2,3.3h-1.1c-.3-1.5-1.4-2.4-3.1-2.4-2,0-3.5,1.5-3.5,4.4,0,2.7,1.5,4.3,3.5,4.3,1.7,0,3-1.1,3.1-2.7h1.1c-.2,2-1.8,3.7-4.3,3.7-2.8,0-4.6-1.9-4.6-5.2Z"/>
    <path class="st17" d="M1168.8,819.2v-7.3s.8,0,.8,0v1.2c.5-1,1.2-1.5,2.1-1.5.3,0,.6,0,.8,0v1c-.3,0-.5-.1-.8-.1-1,0-1.9.9-1.9,2.7v3.8s-1,0-1,0Z"/>
    <path class="st17" d="M1179.9,817.2c-.4,1.3-1.5,2.3-3.2,2.3-2,0-3.5-1.3-3.5-3.8,0-2.5,1.5-3.9,3.4-3.9,1.9,0,3.3,1.2,3.4,4.1h-5.7c0,1.9,1.1,2.7,2.5,2.7,1,0,1.8-.5,2-1.4h1.1ZM1174.3,815h4.6c0-1.6-1-2.4-2.3-2.4-1.2,0-2.2.8-2.3,2.4Z"/>
    <path class="st17" d="M1181.5,813.9c.1-1.3,1.3-2.2,3-2.2,1.8,0,2.8,1,2.8,2.4v5s-.9,0-.9,0v-1.1c-.6.7-1.4,1.3-2.6,1.3-1.5,0-2.5-.8-2.5-2.1,0-1.3.8-2,2.8-2.4l2.2-.4v-.5c0-1-.7-1.6-1.9-1.6-1.1,0-1.7.5-1.8,1.3h-1.1ZM1186.2,815.4l-1.9.3c-1.5.3-2,.7-2,1.5,0,.8.6,1.3,1.6,1.3,1.1,0,2.2-.8,2.2-2v-1.1Z"/>
    <path class="st17" d="M1190.6,812.8v4.8c0,.6.3.9.9.9s.5,0,.9-.1v.9c-.3,0-.6.1-1,.1-1.2,0-1.8-.7-1.8-1.8v-4.7s-1.1,0-1.1,0v-.9s1.1,0,1.1,0v-1.8h1v1.8s1.6,0,1.6,0v.9s-1.6,0-1.6,0Z"/>
    <path class="st17" d="M1199.9,817.1c-.4,1.3-1.5,2.3-3.2,2.3-2,0-3.5-1.3-3.5-3.8,0-2.5,1.5-3.9,3.4-3.9,1.9,0,3.3,1.2,3.4,4.1h-5.7c0,1.9,1.1,2.7,2.5,2.7,1,0,1.8-.5,2-1.4h1.1ZM1194.3,814.9h4.6c0-1.6-1-2.4-2.3-2.4-1.2,0-2.2.8-2.3,2.4Z"/>
    <path class="st17" d="M1203.3,819c0,1.4-.8,2-1.6,2.2v-.6c.5-.2.8-.5.8-1.4h-.5s0-1.4,0-1.4h1.3s0,1.2,0,1.2Z"/>
    <path class="st17" d="M1215.7,814.5h-4.6s0,3.7,0,3.7h5s0,.9,0,.9h-6.1s0-10.1,0-10.1h6.1s0,.9,0,.9h-5s0,3.6,0,3.6h4.6s0,.9,0,.9Z"/>
    <path class="st17" d="M1223.3,819.2l-.2-1.2c-.5.8-1.3,1.4-2.5,1.4-1.8,0-3.2-1.3-3.2-3.8,0-2.6,1.4-3.9,3.2-3.9,1.1,0,2,.5,2.4,1.3v-3.9s1,0,1,0v10.1s-.8,0-.8,0ZM1220.8,818.5c1.3,0,2.3-1,2.3-2.9,0-2-1-3-2.3-3-1.3,0-2.3,1-2.3,3,0,1.9,1,2.9,2.3,2.9Z"/>
    <path class="st17" d="M1226.1,810.4v-1.3s1.2,0,1.2,0v1.3s-1.2,0-1.2,0ZM1226.2,819.2v-7.3s1,0,1,0v7.3s-1,0-1,0Z"/>
    <path class="st17" d="M1230.6,812.8v4.8c0,.6.3.9.9.9s.5,0,.9-.1v.9c-.3,0-.6.1-1,.1-1.2,0-1.8-.7-1.8-1.8v-4.7s-1.1,0-1.1,0v-.9s1.1,0,1.1,0v-1.8c0,0,1,0,1,0v1.8s1.6,0,1.6,0v.9s-1.6,0-1.6,0Z"/>
    <path class="st17" d="M1235.3,819c0,1.4-.8,2-1.6,2.2v-.6c.5-.2.8-.5.8-1.4h-.5v-1.4s1.3,0,1.3,0v1.2Z"/>
    <path class="st17" d="M1242,809.1l3.3,9.1,3.3-9.1h1.1s-3.7,10.1-3.7,10.1h-1.4s-3.7-10.1-3.7-10.1h1.1Z"/>
    <path class="st17" d="M1250.7,810.4v-1.3s1.2,0,1.2,0v1.3s-1.2,0-1.2,0ZM1250.7,819.2v-7.3s1,0,1,0v7.3s-1,0-1,0Z"/>
    <path class="st17" d="M1260,817.1c-.4,1.3-1.5,2.3-3.2,2.3-2,0-3.5-1.3-3.5-3.8,0-2.5,1.5-3.9,3.4-3.9,1.9,0,3.3,1.2,3.4,4.1h-5.7c0,1.9,1.1,2.7,2.5,2.7,1,0,1.8-.5,2-1.4h1.1ZM1254.5,814.9h4.6c0-1.6-1-2.4-2.3-2.4-1.2,0-2.2.8-2.3,2.4Z"/>
    <path class="st17" d="M1271.6,811.9l-2.1,7.3h-1.2s-1.9-6.1-1.9-6.1l-1.8,6.2h-1.3s-2.2-7.3-2.2-7.3h1.1s1.8,6.2,1.8,6.2l1.8-6.2h1.3l1.9,6.2,1.7-6.2h1.1Z"/>
    <path class="st17" d="M1274.6,819c0,1.4-.8,2-1.6,2.2v-.6c.5-.2.8-.5.8-1.4h-.5v-1.4s1.3,0,1.3,0v1.2Z"/>
    <path class="st17" d="M1284.3,809c2.9,0,4.9,1.7,4.9,5,0,3.2-2.1,5-5,5h-3s0-10.1,0-10.1h3.1ZM1282.3,809.9v8.3s2,0,2,0c2.3,0,3.8-1.4,3.8-4.1,0-2.8-1.5-4.1-3.8-4.1h-2Z"/>
    <path class="st17" d="M1297.1,817.1c-.4,1.3-1.5,2.3-3.2,2.3-2,0-3.5-1.3-3.5-3.8,0-2.5,1.5-3.9,3.4-3.9,1.9,0,3.3,1.2,3.4,4.1h-5.7c0,1.9,1.1,2.7,2.5,2.7,1,0,1.8-.5,2-1.4h1.1ZM1291.6,814.9h4.6c0-1.6-1-2.4-2.3-2.4-1.2,0-2.2.8-2.3,2.4Z"/>
    <path class="st17" d="M1300,819.1h-1s0-10.1,0-10.1h1s0,10.1,0,10.1Z"/>
    <path class="st17" d="M1308.3,817.1c-.4,1.3-1.5,2.3-3.2,2.3-2,0-3.5-1.3-3.5-3.8,0-2.5,1.5-3.9,3.4-3.9,1.9,0,3.3,1.2,3.4,4.1h-5.7c0,1.9,1.1,2.7,2.5,2.7,1,0,1.8-.5,2-1.4h1.1ZM1302.7,814.9h4.6c0-1.6-1-2.4-2.3-2.4-1.2,0-2.2.8-2.3,2.4Z"/>
    <path class="st17" d="M1311.4,812.7v4.8c0,.6.3.9.9.9.3,0,.5,0,.9-.1v.9c-.3,0-.6.1-1,.1-1.2,0-1.8-.7-1.8-1.8v-4.7s-1.1,0-1.1,0v-.9s1.1,0,1.1,0v-1.8c0,0,1,0,1,0v1.8s1.6,0,1.6,0v.9s-1.6,0-1.6,0Z"/>
    <path class="st17" d="M1320.7,817.1c-.4,1.3-1.5,2.3-3.2,2.3-2,0-3.5-1.3-3.5-3.8,0-2.5,1.5-3.9,3.4-3.9,1.9,0,3.3,1.2,3.4,4.1h-5.7c0,1.9,1.1,2.7,2.5,2.7,1,0,1.8-.5,2-1.4h1.1ZM1315.1,814.9h4.6c0-1.6-1-2.4-2.3-2.4-1.2,0-2.2.8-2.3,2.4Z"/>
    <path class="st17" d="M1332.9,814.8h-4s0,2.6,0,2.6h4.5s0,1.7,0,1.7h-6.8s0-10.1,0-10.1h6.8s0,1.7,0,1.7h-4.5s0,2.5,0,2.5h4s0,1.6,0,1.6Z"/>
    <path class="st17" d="M1339,815.2l2.8,3.9h-2.6s-1.4-2.3-1.4-2.3l-1.5,2.3h-2.3s2.7-3.8,2.7-3.8l-2.6-3.4h2.5s1.3,1.9,1.3,1.9l1.3-1.9h2.3s-2.4,3.4-2.4,3.4Z"/>
    <path class="st17" d="M1349.7,816.7c-.3,1.5-1.5,2.6-3.7,2.6-2.4,0-3.7-1.4-3.7-3.8,0-2.5,1.4-3.9,3.7-3.9,1.9,0,3.3,1,3.6,2.4h-2.3c-.2-.6-.7-1-1.2-1-.9,0-1.5.7-1.5,2.5,0,1.6.7,2.3,1.5,2.3.6,0,1.1-.4,1.3-1.1h2.3Z"/>
    <path class="st17" d="M1358,817c-.3,1.3-1.4,2.3-3.6,2.3-2.3,0-3.8-1.4-3.8-3.8,0-2.5,1.5-3.9,3.8-3.9,2.3,0,3.8,1.4,3.8,4.4h-5.3c.2,1.3.8,1.8,1.7,1.8.7,0,1.1-.3,1.3-.8h2.2ZM1352.8,814.7h3.1c0-1.2-.6-1.7-1.6-1.7-.8,0-1.4.5-1.5,1.7Z"/>
    <path class="st17" d="M1361.5,818.4v3.2s-2.2,0-2.2,0v-9.8s1.6,0,1.6,0l.4.8c.5-.6,1.3-1,2.3-1,1.9,0,3.3,1.3,3.3,3.7,0,2.5-1.5,4-3.4,4-.8,0-1.5-.3-2-.8ZM1363.1,813.2c-1,0-1.7.7-1.7,2.2,0,1.8.7,2.3,1.6,2.3,1,0,1.7-.7,1.7-2.3,0-1.6-.6-2.2-1.6-2.2Z"/>
    <path class="st17" d="M1372.4,819.1c-.4.1-.9.2-1.3.2-1.5,0-2.4-.8-2.4-2.2v-3.7s-1.1,0-1.1,0v-1.5s1.1,0,1.1,0v-1.8c.1,0,2.2,0,2.2,0v1.8s1.5,0,1.5,0v1.5s-1.5,0-1.5,0v3.8c0,.4.3.6.7.6s.5,0,.8-.1v1.5Z"/>
    <path class="st17" d="M1373.3,810.8v-1.9s2.4,0,2.4,0v1.9s-2.4,0-2.4,0ZM1373.4,819.1v-7.3s2.2,0,2.2,0v7.3s-2.2,0-2.2,0Z"/>
    <path class="st17" d="M1380.6,811.6c2.4,0,3.9,1.3,3.9,3.8,0,2.5-1.4,3.9-3.8,3.9-2.4,0-3.9-1.3-3.9-3.9,0-2.5,1.4-3.8,3.8-3.8ZM1380.7,817.8c1.1,0,1.6-.6,1.6-2.4,0-1.8-.6-2.4-1.6-2.4-1.1,0-1.6.6-1.6,2.4s.6,2.4,1.6,2.4Z"/>
    <path class="st17" d="M1385.8,819.1v-7.3s1.8,0,1.8,0l.2.8c.5-.6,1.2-1,2.2-1,1.7,0,2.7,1,2.7,2.8v4.7s-2.2,0-2.2,0v-4.6c0-1-.4-1.3-1.1-1.3-.8,0-1.5.6-1.5,1.6v4.3s-2.2,0-2.2,0Z"/>
    <path class="st17" d="M1403.5,819l-2.2-3.7h-1.3s0,3.7,0,3.7h-2.4s0-10.1,0-10.1h3.7c2.8,0,4.3,1.1,4.3,3.2,0,1.4-.6,2.3-2,2.8l2.7,4.1h-2.8ZM1400,810.6v3.2s1.5,0,1.5,0c1,0,1.7-.6,1.7-1.6,0-1.1-.6-1.6-1.8-1.6h-1.4Z"/>
    <path class="st17" d="M1409.2,811.8v4.8c0,.7.4,1.1,1.2,1.1.8,0,1.3-.6,1.3-1.6v-4.4s2.2,0,2.2,0v7.3s-1.8,0-1.8,0l-.2-.8c-.5.6-1.3,1-2.2,1-1.7,0-2.7-1-2.7-2.8v-4.7s2.2,0,2.2,0Z"/>
    <path class="st17" d="M1417.6,819h-2.2s0-10.1,0-10.1h2.2s0,10.1,0,10.1Z"/>
    <path class="st17" d="M1426.3,816.9c-.3,1.3-1.4,2.3-3.6,2.3-2.3,0-3.8-1.4-3.8-3.8,0-2.5,1.5-3.9,3.8-3.9,2.3,0,3.8,1.4,3.8,4.4h-5.3c.2,1.3.8,1.8,1.7,1.8.7,0,1.1-.3,1.3-.8h2.2ZM1421.1,814.7h3.1c0-1.2-.6-1.7-1.6-1.7-.8,0-1.4.5-1.5,1.7Z"/>
    <path class="st17" d="M1431.9,817.1c0-.5-.4-.6-1.7-.9-1.4-.3-2.6-.8-2.6-2.4,0-1.4,1.1-2.3,3.2-2.3,1.9,0,3.1.8,3.3,2.2h-2.2c0-.4-.5-.7-1.2-.7s-1,.2-1,.6c0,.4.3.5,1.5.9,1.3.3,2.9.7,2.9,2.3,0,1.4-1.1,2.5-3.4,2.5-2,0-3.2-.9-3.5-2.3h2.2c0,.5.6.8,1.3.8.9,0,1.2-.3,1.2-.7Z"/>
    <path class="st17" d="M1140.7,836.8v-2.1s2.1,0,2.1,0v2.1s-2.1,0-2.1,0Z"/>
    <path class="st17" d="M1161.8,830.1c2.9,0,4.9,1.7,4.9,5,0,3.2-2.1,5-5,5h-3s0-10.1,0-10.1h3.1ZM1159.8,831v8.3s2,0,2,0c2.3,0,3.8-1.4,3.8-4.1,0-2.8-1.5-4.1-3.8-4.1h-2Z"/>
    <path class="st17" d="M1174.7,838.2c-.4,1.3-1.5,2.3-3.2,2.3-2,0-3.5-1.3-3.5-3.8,0-2.5,1.5-3.9,3.4-3.9,1.9,0,3.3,1.2,3.4,4.1h-5.7c0,1.9,1.1,2.7,2.5,2.7,1,0,1.8-.5,2-1.4h1.1ZM1169.1,836h4.6c0-1.6-1-2.4-2.3-2.4-1.2,0-2.2.8-2.3,2.4Z"/>
    <path class="st17" d="M1176.2,834.9c.1-1.3,1.3-2.2,3-2.2,1.8,0,2.8,1,2.8,2.4v5s-.9,0-.9,0v-1.1c-.6.7-1.4,1.3-2.6,1.3-1.5,0-2.5-.8-2.5-2.1,0-1.3.8-2,2.8-2.4l2.2-.4v-.5c0-1-.7-1.6-1.9-1.6-1.1,0-1.7.5-1.8,1.3h-1.1ZM1181,836.4l-1.9.3c-1.5.3-2,.7-2,1.5,0,.8.6,1.3,1.6,1.3,1.1,0,2.2-.8,2.2-2v-1.1Z"/>
    <path class="st17" d="M1185.1,840.2h-1v-10.1s1,0,1,0v10.1Z"/>
    <path class="st17" d="M1187,831.4v-1.3s1.2,0,1.2,0v1.3s-1.2,0-1.2,0ZM1187.1,840.2v-7.3s1,0,1,0v7.3s-1,0-1,0Z"/>
    <path class="st17" d="M1190.2,840.2v-7.3s.8,0,.8,0v1.1c.6-.9,1.5-1.3,2.4-1.3,1.6,0,2.5,1,2.6,2.6v4.9s-1,0-1,0v-4.8c0-1.2-.6-1.8-1.8-1.8-1,0-2,.8-2,2.1v4.5s-1,0-1,0Z"/>
    <path class="st17" d="M1199,840.8c.2.9.9,1.3,2,1.3,1.4,0,2.2-.8,2.2-2v-1.3c-.5.7-1.3,1.2-2.5,1.2-1.7,0-3.2-1.3-3.2-3.6,0-2.3,1.3-3.7,3.2-3.7,1.2,0,2,.5,2.5,1.3l.2-1.1h.9s0,7.2,0,7.2c0,1.6-1.2,2.8-3.2,2.8-1.8,0-2.9-.8-3.2-2.1h1.1ZM1201,839.1c1.3,0,2.3-.9,2.3-2.7,0-1.9-1-2.8-2.3-2.8-1.3,0-2.3.9-2.3,2.8,0,1.7,1,2.7,2.3,2.7Z"/>
    <path class="st17" d="M1220.3,832.9l-2.1,7.3h-1.2s-1.9-6.1-1.9-6.1l-1.8,6.2h-1.3s-2.2-7.3-2.2-7.3h1.1s1.8,6.2,1.8,6.2l1.8-6.2h1.3s1.9,6.2,1.9,6.2l1.7-6.2h1.1Z"/>
    <path class="st17" d="M1221.4,831.4v-1.3s1.2,0,1.2,0v1.3s-1.2,0-1.2,0ZM1221.5,840.2v-7.3s1,0,1,0v7.3s-1,0-1,0Z"/>
    <path class="st17" d="M1225.9,833.8v4.8c0,.6.3.9.9.9s.5,0,.9-.1v.9c-.3,0-.6.1-1,.1-1.2,0-1.8-.7-1.8-1.8v-4.7s-1.1,0-1.1,0v-.9h1.1s0-1.8,0-1.8h1v1.8s1.6,0,1.6,0v.9h-1.6Z"/>
    <path class="st17" d="M1229,840.2v-10.1s1,0,1,0v3.8c.5-.8,1.4-1.2,2.3-1.2,1.6,0,2.6,1,2.6,2.6v4.9s-1,0-1,0v-4.8c0-1.2-.6-1.8-1.8-1.8-1.1,0-2,.8-2,2.1v4.5s-1,0-1,0Z"/>
    <path class="st17" d="M1247.1,830.1v.9s-4.9,0-4.9,0v3.8s4.4,0,4.4,0v.9h-4.4s0,4.4,0,4.4h-1.1s0-10.1,0-10.1h6Z"/>
    <path class="st17" d="M1251.9,832.7c2,0,3.5,1.3,3.5,3.9,0,2.5-1.5,3.9-3.5,3.9-2,0-3.5-1.3-3.5-3.8,0-2.6,1.5-3.9,3.5-3.9ZM1251.9,839.5c1.4,0,2.4-1,2.4-3,0-2-1-3-2.4-3-1.4,0-2.4,1-2.4,3,0,2,1,3,2.4,3Z"/>
    <path class="st17" d="M1257,840.1v-7.3s.8,0,.8,0v1.2c.5-1,1.2-1.5,2.1-1.5.3,0,.6,0,.8,0v1c-.3,0-.5-.1-.8-.1-1,0-1.9.9-1.9,2.7v3.8s-1,0-1,0Z"/>
    <path class="st17" d="M1265,835.1c0-3.8,2.4-5.3,4.9-5.3,2.5,0,4.9,1.3,4.9,5.2,0,3.8-2.5,5.3-4.9,5.3-2.5,0-4.9-1.3-4.9-5.2ZM1272.5,835.1c0-2.7-1.3-3.6-2.6-3.6-1.3,0-2.5.9-2.5,3.6s1.3,3.6,2.6,3.6c1.3,0,2.5-.9,2.5-3.6Z"/>
    <path class="st17" d="M1276.2,840.1v-7.3s1.8,0,1.8,0l.2.8c.5-.6,1.2-1,2.2-1,1.7,0,2.7,1,2.7,2.8v4.7s-2.2,0-2.2,0v-4.6c0-1-.4-1.3-1.1-1.3-.8,0-1.5.6-1.5,1.6v4.3s-2.2,0-2.2,0Z"/>
    <path class="st17" d="M1291.8,838c-.3,1.3-1.4,2.3-3.6,2.3-2.3,0-3.8-1.4-3.8-3.8,0-2.5,1.5-3.9,3.8-3.9,2.3,0,3.8,1.4,3.8,4.4h-5.3c.2,1.3.8,1.8,1.7,1.8.7,0,1.1-.3,1.3-.8h2.2ZM1286.5,835.7h3.1c0-1.2-.6-1.7-1.6-1.7-.8,0-1.4.5-1.5,1.7Z"/>
    <path class="st17" d="M1297.8,841.4h-1.9s2.8-11.6,2.8-11.6h1.9s-2.8,11.6-2.8,11.6Z"/>
    <path class="st17" d="M1311.1,836h-3.6s0,4.1,0,4.1h-2.4s0-10.1,0-10.1h6.4s0,1.7,0,1.7h-4s0,2.7,0,2.7h3.6s0,1.6,0,1.6Z"/>
    <path class="st17" d="M1316.3,832.6c2.4,0,3.9,1.3,3.9,3.8,0,2.5-1.4,3.9-3.8,3.9-2.4,0-3.9-1.3-3.9-3.9,0-2.5,1.4-3.8,3.8-3.8ZM1316.3,838.8c1.1,0,1.6-.6,1.6-2.4,0-1.8-.6-2.4-1.6-2.4-1.1,0-1.6.6-1.6,2.4s.6,2.4,1.6,2.4Z"/>
    <path class="st17" d="M1321.4,840.1v-7.3s1.8,0,1.8,0l.2,1.1c.4-.9,1-1.3,1.9-1.3.3,0,.6,0,.8,0v2c-.3,0-.6-.1-.9-.1-.9,0-1.7.9-1.7,2.5v3s-2.2,0-2.2,0Z"/>
    <path class="st17" d="M1337.2,840.1l-.7-2.3h-3.6s-.7,2.3-.7,2.3h-2.3s3.6-10.1,3.6-10.1h2.6s3.6,10.1,3.6,10.1h-2.5ZM1333.3,836.2h2.6s-1.3-4.3-1.3-4.3l-1.3,4.3Z"/>
    <path class="st17" d="M1342.6,840.1h-2.2s0-10.1,0-10.1h2.2s0,10.1,0,10.1Z"/>
    <path class="st17" d="M1346.3,840.1h-2.2s0-10.1,0-10.1h2.2s0,10.1,0,10.1Z"/>
    <path class="st17" d="M1356.2,831.6c-.4-.1-.8-.2-1.1-.2-.6,0-.9.3-.9.8v.6h1.6s0,1.5,0,1.5h-1.6s0,5.8,0,5.8h-2.2s0-5.8,0-5.8h-1.1v-1.5s1.1,0,1.1,0v-.5c0-1.6.9-2.5,2.5-2.5.7,0,1.2.1,1.7.2v1.5Z"/>
    <path class="st17" d="M1356.8,840.1v-7.3s1.8,0,1.8,0l.2,1.1c.4-.9,1-1.3,1.9-1.3.3,0,.6,0,.8,0v2c-.3,0-.6-.1-.9-.1-.9,0-1.7.9-1.7,2.5v3s-2.2,0-2.2,0Z"/>
    <path class="st17" d="M1365.9,832.6c2.4,0,3.9,1.3,3.9,3.8,0,2.5-1.4,3.9-3.8,3.9-2.4,0-3.9-1.3-3.9-3.9,0-2.5,1.4-3.8,3.8-3.8ZM1366,838.8c1.1,0,1.6-.6,1.6-2.4,0-1.8-.6-2.4-1.6-2.4-1.1,0-1.6.6-1.6,2.4s.6,2.4,1.6,2.4Z"/>
    <path class="st17" d="M1371.1,840.1v-7.3s1.5,0,1.5,0l.4.8c.5-.6,1.2-1,2.2-1,.9,0,1.7.3,2.2,1,.5-.6,1.4-1,2.4-1,1.6,0,2.7.8,2.7,2.8v4.7s-2.2,0-2.2,0v-4.8c0-.8-.5-1.2-1.2-1.2-.9,0-1.3.7-1.3,1.5v4.5s-2.2,0-2.2,0v-4.8c0-.8-.5-1.2-1.2-1.2-.8,0-1.3.7-1.3,1.4v4.6s-2.2,0-2.2,0Z"/>
    <path class="st17" d="M1391.4,830c3.3,0,5,1.6,5,5,0,3.5-1.8,5-5,5h-3.8s0-10.1,0-10.1h3.8ZM1390,831.6v6.8s1.5,0,1.5,0c1.6,0,2.6-1,2.6-3.4,0-2.4-1-3.4-2.7-3.4h-1.4Z"/>
    <path class="st17" d="M1404.9,837.9c-.3,1.3-1.4,2.3-3.6,2.3-2.3,0-3.8-1.4-3.8-3.8,0-2.5,1.5-3.9,3.8-3.9,2.3,0,3.8,1.4,3.8,4.4h-5.3c.2,1.3.8,1.8,1.7,1.8.7,0,1.1-.3,1.3-.8h2.2ZM1399.7,835.7h3.1c0-1.2-.6-1.7-1.6-1.7-.8,0-1.4.5-1.5,1.7Z"/>
    <path class="st17" d="M1408.4,839.4v3.2s-2.2,0-2.2,0v-9.8s1.6,0,1.6,0l.4.8c.5-.6,1.3-1,2.3-1,1.9,0,3.3,1.3,3.3,3.7,0,2.5-1.5,4-3.4,4-.8,0-1.5-.3-2-.8ZM1410,834.1c-1,0-1.7.7-1.7,2.2,0,1.8.7,2.3,1.6,2.3,1,0,1.7-.7,1.7-2.3,0-1.6-.6-2.2-1.6-2.2Z"/>
    <path class="st17" d="M1419.3,840.1c-.4.1-.9.2-1.3.2-1.5,0-2.4-.8-2.4-2.2v-3.7h-1.1v-1.5s1.1,0,1.1,0v-1.8c.1,0,2.2,0,2.2,0v1.8s1.5,0,1.5,0v1.5s-1.5,0-1.5,0v3.8c0,.4.3.6.7.6.2,0,.5,0,.8-.1v1.5Z"/>
    <path class="st17" d="M1420.3,840v-2.2s2.5,0,2.5,0v2.2s-2.5,0-2.5,0Z"/>
    <path class="st17" d="M1432.1,840c-.4.1-.9.2-1.3.2-1.5,0-2.4-.8-2.4-2.2v-3.7h-1.1v-1.5s1.1,0,1.1,0v-1.8c.1,0,2.2,0,2.2,0v1.8s1.5,0,1.5,0v1.5s-1.5,0-1.5,0v3.8c0,.4.3.6.7.6.2,0,.5,0,.8-.1v1.5Z"/>
    <path class="st17" d="M1436.7,832.5c2.4,0,3.9,1.3,3.9,3.8,0,2.5-1.4,3.9-3.8,3.9-2.4,0-3.9-1.3-3.9-3.9,0-2.5,1.4-3.8,3.8-3.8ZM1436.7,838.8c1.1,0,1.6-.6,1.6-2.4,0-1.8-.6-2.4-1.6-2.4-1.1,0-1.6.6-1.6,2.4s.6,2.4,1.6,2.4Z"/>
    <path class="st17" d="M1445.3,834.8c.3-1.5,1.6-2.3,3.5-2.3,2,0,3.3,1,3.3,2.7v4.8s-1.7,0-1.7,0l-.3-.8c-.5.5-1.3,1-2.4,1-1.5,0-2.5-.8-2.6-2.3,0-1.1.7-1.9,2.9-2.3l1.8-.3v-.3c0-.7-.4-1.1-1.2-1.1-.7,0-1.1.4-1.2.9h-2.2ZM1449.9,837.3v-.8s-1.2.3-1.2.3c-1,.2-1.3.5-1.3,1s.4.9,1,.9c1,0,1.6-.6,1.6-1.4Z"/>
    <path class="st17" d="M1460.6,832.7l-2.5,7.3h-2.8s-2.5-7.3-2.5-7.3h2.4s1.6,5.7,1.6,5.7l1.6-5.7h2.3Z"/>
    <path class="st17" d="M1465,832.5c2.4,0,3.9,1.3,3.9,3.8,0,2.5-1.4,3.9-3.8,3.9-2.4,0-3.9-1.3-3.9-3.9,0-2.5,1.4-3.8,3.8-3.8ZM1465,838.7c1.1,0,1.6-.6,1.6-2.4s-.6-2.4-1.6-2.4c-1.1,0-1.6.6-1.6,2.4,0,1.8.6,2.4,1.6,2.4Z"/>
    <path class="st17" d="M1470,831.8v-1.9s2.4,0,2.4,0v1.9s-2.4,0-2.4,0ZM1470.1,840v-7.3s2.2,0,2.2,0v7.3s-2.2,0-2.2,0Z"/>
    <path class="st17" d="M1479.5,840l-.4-.8c-.5.6-1.3,1-2.2,1-2,0-3.3-1.4-3.3-3.8,0-2.5,1.4-3.9,3.3-3.9.9,0,1.7.3,2.1.9v-3.5s2.2,0,2.2,0v10.1s-1.7,0-1.7,0ZM1477.5,838.6c1,0,1.6-.6,1.6-2.2,0-1.8-.9-2.3-1.6-2.3-1,0-1.7.8-1.7,2.3,0,1.5.7,2.2,1.7,2.2Z"/>
    <path class="st17" d="M1493.5,837.6c-.3,1.5-1.5,2.6-3.7,2.6-2.4,0-3.7-1.4-3.7-3.8,0-2.5,1.4-3.9,3.7-3.9,1.9,0,3.3,1,3.6,2.4h-2.3c-.2-.6-.7-1-1.2-1-.9,0-1.5.7-1.5,2.5,0,1.6.7,2.3,1.5,2.3.6,0,1.1-.4,1.3-1.1h2.3Z"/>
    <path class="st17" d="M1498.2,832.5c2.4,0,3.9,1.3,3.9,3.8,0,2.5-1.4,3.9-3.8,3.9-2.4,0-3.9-1.3-3.9-3.9,0-2.5,1.4-3.8,3.8-3.8ZM1498.2,838.7c1.1,0,1.6-.6,1.6-2.4s-.6-2.4-1.6-2.4c-1.1,0-1.6.6-1.6,2.4,0,1.8.6,2.4,1.6,2.4Z"/>
    <path class="st17" d="M1503.3,840v-7.3s1.8,0,1.8,0l.2.8c.5-.6,1.2-1,2.2-1,1.7,0,2.7,1,2.7,2.8v4.7s-2.2,0-2.2,0v-4.6c0-1-.4-1.3-1.1-1.3-.8,0-1.5.6-1.5,1.6v4.3s-2.2,0-2.2,0Z"/>
    <path class="st17" d="M1516.9,840v-8.6c-.4,0-.9-.1-1.3-.1-.9,0-1.2.4-1.2.9v.5h1.4s0,1.5,0,1.5h-1.4s0,5.8,0,5.8h-2.2s0-5.8,0-5.8h-1.1s0-1.5,0-1.5h1.1v-.4c0-1.8,1.1-2.6,2.8-2.6.8,0,1.4,0,1.9.2h2.1c0,0,0,10.1,0,10.1h-2.2Z"/>
    <path class="st17" d="M1520.6,831.7v-1.9s2.4,0,2.4,0v1.9s-2.4,0-2.4,0ZM1520.6,840v-7.3s2.2,0,2.2,0v7.3s-2.2,0-2.2,0Z"/>
    <path class="st17" d="M1531.4,837.5c-.3,1.5-1.5,2.6-3.7,2.6-2.4,0-3.7-1.4-3.7-3.8,0-2.5,1.4-3.9,3.7-3.9,1.9,0,3.3,1,3.6,2.4h-2.3c-.2-.6-.7-1-1.2-1-.9,0-1.5.7-1.5,2.5,0,1.6.7,2.3,1.5,2.3.6,0,1.1-.4,1.3-1.1h2.3Z"/>
    <path class="st17" d="M1536.8,840c-.4.1-.9.2-1.3.2-1.5,0-2.4-.8-2.4-2.2v-3.7h-1.1v-1.5s1.1,0,1.1,0v-1.8c.1,0,2.2,0,2.2,0v1.8s1.5,0,1.5,0v1.5s-1.5,0-1.5,0v3.8c0,.4.3.6.7.6.2,0,.5,0,.8-.1v1.5Z"/>
    <path class="st17" d="M1542.1,838c0-.5-.4-.6-1.7-.9-1.4-.3-2.6-.8-2.6-2.4,0-1.4,1.1-2.3,3.2-2.3,1.9,0,3.1.8,3.3,2.2h-2.2c0-.4-.5-.7-1.2-.7-.7,0-1,.2-1,.6s.3.5,1.5.9c1.3.3,2.9.7,2.9,2.3,0,1.4-1.1,2.5-3.4,2.5-2,0-3.2-.9-3.5-2.3h2.2c0,.5.6.8,1.3.8.9,0,1.2-.3,1.2-.7Z"/>
    <path class="st17" d="M1140.7,857.8v-2.1s2.1,0,2.1,0v2.1s-2.1,0-2.1,0Z"/>
    <path class="st17" d="M1158.3,856.2c0-3.4,2-5.3,4.6-5.3,2.3,0,4,1.4,4.2,3.3h-1.1c-.3-1.5-1.4-2.4-3.1-2.4-2,0-3.5,1.5-3.5,4.4,0,2.7,1.5,4.3,3.5,4.3,1.7,0,3-1.1,3.1-2.7h1.1c-.2,2-1.8,3.7-4.3,3.7-2.8,0-4.6-1.9-4.6-5.2Z"/>
    <path class="st17" d="M1171.9,853.7c2,0,3.5,1.3,3.5,3.8,0,2.5-1.5,3.9-3.5,3.9-2,0-3.5-1.3-3.5-3.8,0-2.6,1.5-3.9,3.5-3.9ZM1171.9,860.6c1.4,0,2.4-1,2.4-3,0-2-1-3-2.4-3-1.4,0-2.4,1-2.4,3,0,2,1,3,2.4,3Z"/>
    <path class="st17" d="M1177,861.2v-7.3s.8,0,.8,0v1.1c.6-.9,1.5-1.3,2.4-1.3,1.6,0,2.5,1,2.6,2.6v4.9s-1,0-1,0v-4.8c0-1.2-.6-1.8-1.8-1.8-1,0-2,.8-2,2.1v4.5s-1,0-1,0Z"/>
    <path class="st17" d="M1189.2,861.2v-6.4s-3,0-3,0v6.4s-1,0-1,0v-6.4s-1.1,0-1.1,0v-.9h1.1s0-.9,0-.9c0-1.2.7-2,2.2-2,.7,0,1.4.2,1.7.3v.9c-.4-.1-1.1-.3-1.6-.3-.9,0-1.3.3-1.3,1.1v1s4,0,4,0v7.3s-1,0-1,0Z"/>
    <path class="st17" d="M1193.4,861.8c.2.9.9,1.3,2,1.3,1.4,0,2.2-.8,2.2-2v-1.3c-.5.7-1.3,1.2-2.5,1.2-1.7,0-3.2-1.3-3.2-3.6,0-2.3,1.3-3.7,3.2-3.7,1.2,0,2,.5,2.5,1.3l.2-1.1h.9s0,7.2,0,7.2c0,1.6-1.2,2.8-3.2,2.8-1.8,0-2.9-.8-3.2-2.1h1.1ZM1195.3,860.1c1.3,0,2.3-.9,2.3-2.7,0-1.9-1-2.8-2.3-2.8-1.3,0-2.3.9-2.3,2.8,0,1.7,1,2.7,2.3,2.7Z"/>
    <path class="st17" d="M1201.6,853.9v4.8c0,1.2.7,1.8,1.7,1.8,1.3,0,2-1,2-2.2v-4.5s1,0,1,0v7.3s-.9,0-.9,0v-1c-.6.8-1.5,1.2-2.4,1.2-1.5,0-2.5-.9-2.5-2.6v-4.8s1,0,1,0Z"/>
    <path class="st17" d="M1208.4,861.2v-7.3s.8,0,.8,0v1.2c.5-1,1.2-1.5,2.1-1.5.3,0,.6,0,.8,0v1c-.3,0-.5-.1-.8-.1-1,0-1.9.9-1.9,2.7v3.8s-1,0-1,0Z"/>
    <path class="st17" d="M1213,855.9c.1-1.3,1.3-2.2,3-2.2,1.8,0,2.8,1,2.8,2.4v5s-.9,0-.9,0v-1.1c-.6.7-1.4,1.3-2.6,1.3-1.5,0-2.5-.8-2.5-2.1,0-1.3.8-2,2.8-2.4l2.2-.4v-.5c0-1-.7-1.6-1.9-1.6-1.1,0-1.7.5-1.8,1.3h-1.1ZM1217.8,857.4l-1.9.3c-1.5.3-2,.7-2,1.5,0,.8.6,1.3,1.6,1.3,1.1,0,2.2-.8,2.2-2v-1.1Z"/>
    <path class="st17" d="M1222.2,854.8v4.8c0,.6.3.9.9.9s.5,0,.9-.1v.9c-.3,0-.6.1-1,.1-1.2,0-1.8-.7-1.8-1.8v-4.7s-1.1,0-1.1,0v-.9h1.1s0-1.8,0-1.8h1s0,1.8,0,1.8h1.6s0,.9,0,.9h-1.6Z"/>
    <path class="st17" d="M1225.1,852.4v-1.3s1.2,0,1.2,0v1.3s-1.2,0-1.2,0ZM1225.2,861.2v-7.3s1,0,1,0v7.3s-1,0-1,0Z"/>
    <path class="st17" d="M1231.3,853.7c2,0,3.5,1.3,3.5,3.8,0,2.5-1.5,3.9-3.5,3.9-2,0-3.5-1.3-3.5-3.8,0-2.6,1.5-3.9,3.5-3.9ZM1231.3,860.5c1.4,0,2.4-1,2.4-3,0-2-1-3-2.4-3-1.4,0-2.4,1-2.4,3,0,2,1,3,2.4,3Z"/>
    <path class="st17" d="M1236.4,861.2v-7.3s.8,0,.8,0v1.1c.6-.9,1.5-1.3,2.4-1.3,1.6,0,2.5,1,2.6,2.6v4.9s-1,0-1,0v-4.8c0-1.2-.6-1.8-1.8-1.8-1,0-2,.8-2,2.1v4.5s-1,0-1,0Z"/>
    <path class="st17" d="M1248.3,852.4v-1.3s1.2,0,1.2,0v1.3s-1.2,0-1.2,0ZM1248.4,861.2v-7.3s1,0,1,0v7.3s-1,0-1,0Z"/>
    <path class="st17" d="M1251.5,861.2v-7.3s.8,0,.8,0v1c.6-.9,1.5-1.2,2.3-1.2,1,0,1.8.4,2.2,1.3.5-1,1.5-1.3,2.4-1.3,1.5,0,2.4.9,2.4,2.5v4.9s-1,0-1,0v-4.9c0-1.2-.6-1.8-1.6-1.8-1.1,0-1.9,1-1.9,2.1v4.5s-1,0-1,0v-4.9c0-1.2-.6-1.8-1.6-1.7-1.1,0-1.9.9-1.9,2.1v4.5s-1,0-1,0Z"/>
    <path class="st17" d="M1264.4,853.9l.2,1.2c.5-.8,1.4-1.4,2.5-1.4,1.8,0,3.1,1.3,3.1,3.8,0,2.5-1.4,3.9-3.2,3.9-1.1,0-2-.5-2.4-1.3v3.6s-1,0-1,0v-9.8s.8,0,.8,0ZM1266.9,854.5c-1.2,0-2.3.9-2.3,2.9,0,2,1,3,2.3,3,1.3,0,2.3-1,2.3-3.1,0-2-1-2.9-2.3-2.9Z"/>
    <path class="st17" d="M1271.6,855.8c.1-1.3,1.3-2.2,3-2.2,1.8,0,2.8,1,2.8,2.4v5s-.9,0-.9,0v-1.1c-.6.7-1.4,1.3-2.6,1.3-1.5,0-2.5-.8-2.5-2.1,0-1.3.8-2,2.8-2.4l2.2-.4v-.5c0-1-.7-1.6-1.9-1.6-1.1,0-1.7.5-1.8,1.3h-1.1ZM1276.4,857.4l-1.9.3c-1.5.3-2,.7-2,1.5,0,.8.6,1.3,1.6,1.3,1.1,0,2.2-.8,2.2-2v-1.1Z"/>
    <path class="st17" d="M1285.4,858.9c-.2,1.4-1.4,2.5-3.1,2.5-1.9,0-3.3-1.3-3.3-3.8,0-2.5,1.4-3.9,3.3-3.9,1.6,0,2.8.9,3.1,2.3h-1.1c-.2-.9-.9-1.4-1.9-1.4-1.3,0-2.3,1-2.3,3.1,0,2,1,2.9,2.3,2.9,1,0,1.8-.6,1.9-1.6h1.1Z"/>
    <path class="st17" d="M1288.4,854.7v4.8c0,.6.3.9.9.9s.5,0,.9-.1v.9c-.3,0-.6.1-1,.1-1.2,0-1.8-.7-1.8-1.8v-4.7s-1.1,0-1.1,0v-.9s1.1,0,1.1,0v-1.8h1v1.8s1.6,0,1.6,0v.9s-1.6,0-1.6,0Z"/>
    <path class="st17" d="M1291.8,855.2v-1.4s1.3,0,1.3,0v1.4s-1.3,0-1.3,0ZM1291.8,861.1v-1.4s1.3,0,1.3,0v1.4s-1.3,0-1.3,0Z"/>
    <path class="st17" d="M1305.4,856.8h-4s0,2.6,0,2.6h4.5s0,1.7,0,1.7h-6.8s0-10.1,0-10.1h6.8s0,1.7,0,1.7h-4.5s0,2.5,0,2.5h4s0,1.6,0,1.6Z"/>
    <path class="st17" d="M1311.5,857.2l2.8,3.9h-2.6s-1.4-2.3-1.4-2.3l-1.5,2.3h-2.3s2.7-3.8,2.7-3.8l-2.6-3.4h2.5s1.3,1.9,1.3,1.9l1.3-1.9h2.3s-2.4,3.4-2.4,3.4Z"/>
    <path class="st17" d="M1322.2,858.7c-.3,1.5-1.5,2.6-3.7,2.6-2.4,0-3.7-1.4-3.7-3.8,0-2.5,1.4-3.9,3.7-3.9,1.9,0,3.3,1,3.6,2.4h-2.3c-.2-.6-.7-1-1.2-1-.9,0-1.5.7-1.5,2.5,0,1.6.7,2.3,1.5,2.3.6,0,1.1-.4,1.3-1.1h2.3Z"/>
    <path class="st17" d="M1330.5,859c-.3,1.3-1.4,2.3-3.6,2.3-2.3,0-3.8-1.4-3.8-3.8,0-2.5,1.5-3.9,3.8-3.9,2.3,0,3.8,1.4,3.8,4.4h-5.3c.2,1.3.8,1.8,1.7,1.8.7,0,1.1-.3,1.3-.8h2.2ZM1325.3,856.7h3.1c0-1.2-.6-1.7-1.6-1.7-.8,0-1.4.5-1.5,1.7Z"/>
    <path class="st17" d="M1334,860.5v3.2s-2.2,0-2.2,0v-9.8s1.6,0,1.6,0l.4.8c.5-.6,1.3-1,2.3-1,1.9,0,3.2,1.3,3.3,3.7,0,2.5-1.5,4-3.4,4-.8,0-1.5-.3-2-.8ZM1335.6,855.2c-1,0-1.7.7-1.7,2.2,0,1.8.7,2.3,1.6,2.3,1,0,1.7-.7,1.7-2.3,0-1.6-.6-2.2-1.6-2.2Z"/>
    <path class="st17" d="M1344.8,861.1c-.4.1-.9.2-1.3.2-1.5,0-2.4-.8-2.4-2.2v-3.7s-1.1,0-1.1,0v-1.5s1.1,0,1.1,0v-1.8c.1,0,2.2,0,2.2,0v1.8s1.5,0,1.5,0v1.5s-1.5,0-1.5,0v3.8c0,.4.3.6.7.6.2,0,.5,0,.8-.1v1.5Z"/>
    <path class="st17" d="M1345.7,852.9v-1.9s2.4,0,2.4,0v1.9s-2.4,0-2.4,0ZM1345.8,861.1v-7.3s2.2,0,2.2,0v7.3s-2.2,0-2.2,0Z"/>
    <path class="st17" d="M1353.1,853.6c2.4,0,3.9,1.3,3.9,3.8,0,2.5-1.4,3.9-3.8,3.9-2.4,0-3.9-1.3-3.9-3.9,0-2.5,1.4-3.8,3.8-3.8ZM1353.1,859.8c1.1,0,1.6-.6,1.6-2.4,0-1.8-.6-2.4-1.6-2.4-1.1,0-1.6.6-1.6,2.4s.6,2.4,1.6,2.4Z"/>
    <path class="st17" d="M1358.2,861.1v-7.3s1.8,0,1.8,0l.2.8c.5-.6,1.2-1,2.2-1,1.7,0,2.7,1,2.7,2.8v4.7s-2.2,0-2.2,0v-4.6c0-1-.4-1.3-1.1-1.3-.8,0-1.5.6-1.5,1.6v4.3s-2.2,0-2.2,0Z"/>
    <path class="st17" d="M1376.8,857.4l-6.2,2.9v-2.1s3.9-1.6,3.9-1.6h0c0,0-4-1.7-4-1.7v-2.1s6.2,2.9,6.2,2.9v1.6Z"/>
    <path class="st17" d="M1386.2,851c3.3,0,5,1.6,5,5,0,3.5-1.8,5-5,5h-3.8s0-10.1,0-10.1h3.8ZM1384.7,852.6v6.8s1.5,0,1.5,0c1.6,0,2.6-1,2.6-3.4,0-2.4-1-3.4-2.7-3.4h-1.4Z"/>
    <path class="st17" d="M1399.7,858.9c-.3,1.3-1.4,2.3-3.6,2.3-2.3,0-3.8-1.4-3.8-3.8,0-2.5,1.5-3.9,3.8-3.9,2.3,0,3.8,1.4,3.8,4.4h-5.3c.2,1.3.8,1.8,1.7,1.8.7,0,1.1-.3,1.3-.8h2.2ZM1394.5,856.7h3.1c0-1.2-.6-1.7-1.6-1.7-.8,0-1.4.5-1.5,1.7Z"/>
    <path class="st17" d="M1405.6,852.5c-.4-.1-.8-.2-1.1-.2-.6,0-.9.3-.9.8v.6s1.6,0,1.6,0v1.5s-1.6,0-1.6,0v5.8s-2.2,0-2.2,0v-5.8h-1.1v-1.5s1.1,0,1.1,0v-.5c0-1.6.9-2.5,2.5-2.5.7,0,1.2.1,1.7.2v1.5Z"/>
    <path class="st17" d="M1406.1,855.9c.3-1.5,1.6-2.3,3.5-2.3,2,0,3.3,1,3.3,2.7v4.8s-1.7,0-1.7,0l-.3-.8c-.5.5-1.3,1-2.4,1-1.5,0-2.5-.8-2.6-2.3,0-1.1.7-1.9,2.9-2.3l1.8-.3v-.3c0-.7-.4-1.1-1.2-1.1-.7,0-1.1.4-1.2.9h-2.2ZM1410.7,858.4v-.8s-1.2.3-1.2.3c-1,.2-1.3.5-1.3,1,0,.6.4.9,1,.9,1,0,1.6-.6,1.6-1.4Z"/>
    <path class="st17" d="M1416.5,853.8v4.8c0,.7.4,1.1,1.2,1.1.8,0,1.3-.6,1.3-1.6v-4.4s2.2,0,2.2,0v7.3s-1.8,0-1.8,0l-.2-.8c-.5.6-1.3,1-2.2,1-1.7,0-2.7-1-2.7-2.8v-4.7s2.2,0,2.2,0Z"/>
    <path class="st17" d="M1424.9,861h-2.2s0-10.1,0-10.1h2.2s0,10.1,0,10.1Z"/>
    <path class="st17" d="M1430.6,861c-.4.1-.9.2-1.3.2-1.5,0-2.4-.8-2.4-2.2v-3.7h-1.1v-1.5s1.1,0,1.1,0v-1.8c.1,0,2.2,0,2.2,0v1.8s1.5,0,1.5,0v1.5s-1.5,0-1.5,0v3.8c0,.4.3.6.7.6.2,0,.5,0,.8-.1v1.5Z"/>
  </g>
  <line class="st1" x1="747.5" y1="769.9" x2="683.8" y2="685.5"/>
  <line class="st1" x1="832.8" y1="770.1" x2="975.8" y2="744.7"/>
  <line class="st1" x1="741.1" y1="785.6" x2="423.9" y2="785.9"/>
  <g class="st34">
    <g class="st54">
      <rect class="st27" x="561.1" y="773.3" width="26" height="23.7"/>
    </g>
  </g>
  <text class="st14" transform="translate(431.9 809.2) rotate(0)"><tspan class="st19"><tspan x="0" y="0">Transfer from device dimension to people</tspan></tspan><tspan class="st8"><tspan x="58.4" y="21">(Ideas from Research)</tspan></tspan></text>
  <line class="st1" x1="1161.9" y1="692" x2="1284.1" y2="670.4"/>
  <g class="st55">
    <g class="st56">
      <rect class="st27" x="1201.7" y="672.1" width="26" height="23.7" transform="translate(-100.1 220.7) rotate(-10)"/>
    </g>
  </g>
  <line class="st1" x1="1284.1" y1="616.6" x2="1141.4" y2="587.7"/>
  <g class="st57">
    <g class="st58">
      <rect class="st27" x="1195.6" y="587.5" width="23.7" height="26" transform="translate(385.3 1669.5) rotate(-78.9)"/>
    </g>
  </g>
  <line class="st1" x1="1590.4" y1="643.4" x2="1459.2" y2="643.5"/>
  <g class="st59">
    <g class="st52">
      <rect class="st27" x="1513.7" y="631.2" width="26" height="23.7"/>
    </g>
  </g>
  <g>
    <circle class="st29" cx="791.2" cy="785.2" r="77.4"/>
    <text class="st23" transform="translate(739.5 778.6) rotate(0)"><tspan x="0" y="0">Department</tspan><tspan x="36.5" y="33.7">List</tspan></text>
  </g>
  <line class="st1" x1="969.6" y1="694" x2="902.7" y2="648.6"/>
  <g class="st50">
    <g class="st53">
      <rect class="st27" x="929.3" y="662.5" width="23.7" height="26" transform="translate(-185.3 945.8) rotate(-49.2)"/>
    </g>
  </g>
  <text class="st14" transform="translate(747.2 568.3) rotate(0)"><tspan class="st19"><tspan x="0" y="0">Aggregate fragmented policies</tspan></tspan><tspan class="st8"><tspan x="23.7" y="18">(Ideas from Research)</tspan></tspan></text>
  <text class="st69" transform="translate(125.7 272)"><tspan x="0" y="0">New Framework Design Thinking</tspan></text>
  <text class="st10" transform="translate(125 204)"><tspan x="0" y="0">LOGIC</tspan></text>
  <text class="st28" transform="translate(135.7 207)"><tspan x="0" y="0">Framework Update</tspan></text>
  <text class="st12" transform="translate(1482.1 1102)"><tspan x="0" y="0">lOGIC</tspan></text>
  <line class="st1" x1="683.8" y1="518.4" x2="764.2" y2="449.8"/>
  <circle class="st3" cx="819.8" cy="407.2" r="65.9"/>
  <text class="st15" transform="translate(765.7 400.2) rotate(0)"><tspan x="0" y="0">Batch operations</tspan><tspan x="22.4" y="21">Scenarios</tspan></text>
  <g>
    <path class="st17" d="M894.5,367.1v-3.2s3.3,0,3.3,0v3.2s-3.3,0-3.3,0Z"/>
    <path class="st17" d="M915,359.9v10.1s-2.3,0-2.3,0v-10.1s2.3,0,2.3,0Z"/>
    <path class="st17" d="M916.6,370v-7.3s1.8,0,1.8,0l.2.8c.5-.6,1.2-1,2.2-1,1.7,0,2.7,1,2.7,2.8v4.7s-2.2,0-2.2,0v-4.6c0-1-.4-1.3-1.1-1.3-.8,0-1.5.6-1.5,1.6v4.3s-2.2,0-2.2,0Z"/>
    <path class="st17" d="M925,359.9h2.2s0,3.5,0,3.5c.5-.5,1.1-.9,2.1-.9,1.7,0,2.7,1,2.7,2.8v4.7s-2.2,0-2.2,0v-4.6c0-1-.4-1.3-1.1-1.3-.8,0-1.5.6-1.5,1.6v4.4s-2.2,0-2.2,0v-10.1Z"/>
    <path class="st17" d="M940.6,367.8c-.3,1.3-1.4,2.3-3.6,2.3-2.3,0-3.8-1.4-3.8-3.8,0-2.5,1.5-3.9,3.8-3.9,2.3,0,3.8,1.4,3.8,4.4h-5.3c.2,1.3.8,1.8,1.7,1.8.7,0,1.1-.3,1.3-.8h2.2ZM935.3,365.6h3.1c0-1.2-.6-1.7-1.6-1.7-.8,0-1.4.5-1.5,1.7Z"/>
    <path class="st17" d="M941.8,369.9v-7.3s1.8,0,1.8,0l.2,1.1c.4-.9,1-1.3,1.9-1.3s.6,0,.8,0v2c-.3,0-.6-.1-.9-.1-.9,0-1.7.9-1.7,2.5v3s-2.2,0-2.2,0Z"/>
    <path class="st17" d="M947.3,361.7v-1.9s2.4,0,2.4,0v1.9s-2.4,0-2.4,0ZM947.4,369.9v-7.3s2.2,0,2.2,0v7.3s-2.2,0-2.2,0Z"/>
    <path class="st17" d="M955.3,370c-.4.1-.9.2-1.3.2-1.5,0-2.4-.8-2.4-2.2v-3.7s-1.1,0-1.1,0v-1.5s1.1,0,1.1,0v-1.8c.1,0,2.2,0,2.2,0v1.8s1.5,0,1.5,0v1.5s-1.5,0-1.5,0v3.8c0,.4.3.6.7.6s.5,0,.8-.1v1.5Z"/>
    <path class="st17" d="M965.6,369.9l-2.2-3.7h-1.3s0,3.7,0,3.7h-2.4s0-10.1,0-10.1h3.7c2.8,0,4.3,1.1,4.3,3.2,0,1.4-.6,2.3-2,2.8l2.7,4.1h-2.8ZM962,361.5v3.2s1.5,0,1.5,0c1,0,1.7-.6,1.7-1.6,0-1.1-.6-1.6-1.8-1.6h-1.4Z"/>
    <path class="st17" d="M971.3,362.6v4.8c0,.7.4,1.1,1.2,1.1.8,0,1.3-.6,1.3-1.6v-4.4s2.2,0,2.2,0v7.3s-1.8,0-1.8,0l-.2-.8c-.5.6-1.3,1-2.2,1-1.7,0-2.7-1-2.7-2.8v-4.7s2.2,0,2.2,0Z"/>
    <path class="st17" d="M979.7,369.9h-2.2s0-10.1,0-10.1h2.2s0,10.1,0,10.1Z"/>
    <path class="st17" d="M988.4,367.8c-.3,1.3-1.4,2.3-3.6,2.3-2.3,0-3.8-1.4-3.8-3.8,0-2.5,1.5-3.9,3.8-3.9,2.3,0,3.8,1.4,3.8,4.4h-5.3c.2,1.3.8,1.8,1.7,1.8.7,0,1.1-.3,1.3-.8h2.2ZM983.2,365.5h3.1c0-1.2-.6-1.7-1.6-1.7-.8,0-1.4.5-1.5,1.7Z"/>
    <path class="st17" d="M993.9,368c0-.5-.4-.6-1.7-.9-1.4-.3-2.6-.8-2.6-2.4,0-1.4,1.1-2.3,3.2-2.3,1.9,0,3.1.8,3.3,2.2h-2.2c0-.4-.5-.7-1.2-.7-.7,0-1,.2-1,.6,0,.4.3.5,1.5.9,1.3.3,2.9.7,2.9,2.3,0,1.4-1.1,2.5-3.4,2.5-2,0-3.2-.9-3.5-2.3h2.2c0,.5.6.8,1.3.8.9,0,1.2-.3,1.2-.7Z"/>
    <path class="st17" d="M1005.3,360.7c-.4-.1-.8-.2-1.1-.2-.6,0-.9.3-.9.9v1.2s1.6,0,1.6,0v.9s-1.6,0-1.6,0v6.4s-1,0-1,0v-6.4s-1.1,0-1.1,0v-.9s1.1,0,1.1,0v-1.1c0-1.2.8-1.9,1.9-1.9.4,0,.8,0,1.1.2v.9Z"/>
    <path class="st17" d="M1006.2,369.9v-7.3s.8,0,.8,0v1.2c.5-1,1.2-1.5,2.1-1.5.3,0,.6,0,.8,0v1c-.3,0-.5-.1-.8-.1-1,0-1.9.9-1.9,2.7v3.8s-1,0-1,0Z"/>
    <path class="st17" d="M1014.2,362.4c2,0,3.5,1.3,3.5,3.8,0,2.5-1.5,3.9-3.5,3.9-2,0-3.5-1.3-3.5-3.8,0-2.6,1.5-3.9,3.5-3.9ZM1014.2,369.3c1.4,0,2.4-1,2.4-3,0-2-1-3-2.4-3s-2.4,1-2.4,3c0,2,1,3,2.4,3Z"/>
    <path class="st17" d="M1019.3,369.9v-7.3s.8,0,.8,0v1c.6-.9,1.5-1.2,2.3-1.2,1,0,1.8.4,2.2,1.3.5-1,1.5-1.3,2.4-1.3,1.5,0,2.4.9,2.4,2.5v4.9s-1,0-1,0v-4.9c0-1.2-.6-1.8-1.6-1.8-1.1,0-1.9,1-1.9,2.1v4.5s-1,0-1,0v-4.9c0-1.2-.6-1.8-1.6-1.8-1.1,0-1.9.9-1.9,2.1v4.5s-1,0-1,0Z"/>
    <path class="st17" d="M1041,369.9l-.2-1.2c-.5.8-1.3,1.4-2.5,1.4-1.8,0-3.2-1.3-3.2-3.8,0-2.6,1.4-3.9,3.2-3.9,1.1,0,2,.5,2.4,1.3v-3.9s1,0,1,0v10.1s-.8,0-.8,0ZM1038.5,369.2c1.3,0,2.3-1,2.3-2.9,0-2-1-3-2.3-3-1.3,0-2.3,1-2.3,3,0,1.9,1,2.9,2.3,2.9Z"/>
    <path class="st17" d="M1050.1,367.8c-.4,1.3-1.5,2.3-3.2,2.3-2,0-3.5-1.3-3.5-3.8,0-2.5,1.5-3.9,3.4-3.9,1.9,0,3.3,1.2,3.4,4.1h-5.7c0,1.9,1.1,2.7,2.5,2.7,1,0,1.8-.5,2-1.4h1.1ZM1044.5,365.6h4.6c0-1.6-1-2.4-2.3-2.4-1.2,0-2.2.8-2.3,2.4Z"/>
    <path class="st17" d="M1055.3,360.6c-.4-.1-.8-.2-1.1-.2-.6,0-.9.3-.9.9v1.2s1.6,0,1.6,0v.9s-1.6,0-1.6,0v6.4s-1,0-1,0v-6.4h-1.1v-.9h1.1v-1.1c0-1.2.8-1.9,1.9-1.9.4,0,.8,0,1.1.2v.9Z"/>
    <path class="st17" d="M1056,364.5c.1-1.3,1.3-2.2,3-2.2,1.8,0,2.8,1,2.8,2.4v5s-.9,0-.9,0v-1.1c-.6.7-1.4,1.3-2.6,1.3-1.5,0-2.5-.8-2.5-2.1,0-1.3.8-2,2.8-2.4l2.2-.4v-.5c0-1-.7-1.6-1.9-1.6-1.1,0-1.7.5-1.8,1.3h-1.1ZM1060.8,366.1l-1.9.3c-1.5.3-2,.7-2,1.5,0,.8.6,1.3,1.6,1.3,1.1,0,2.2-.8,2.2-2v-1.1Z"/>
    <path class="st17" d="M1064.8,362.6v4.8c0,1.2.7,1.8,1.7,1.8,1.3,0,2-1,2-2.2v-4.5s1,0,1,0v7.3s-.9,0-.9,0v-1c-.6.8-1.5,1.2-2.4,1.2-1.5,0-2.5-.9-2.5-2.6v-4.8s1,0,1,0Z"/>
    <path class="st17" d="M1072.6,369.9h-1s0-10.1,0-10.1h1s0,10.1,0,10.1Z"/>
    <path class="st17" d="M1076,363.5v4.8c0,.6.3.9.9.9.3,0,.5,0,.9-.1v.9c-.3,0-.6.1-1,.1-1.2,0-1.8-.7-1.8-1.8v-4.7h-1.1v-.9s1.1,0,1.1,0v-1.8c0,0,1,0,1,0v1.8s1.6,0,1.6,0v.9s-1.6,0-1.6,0Z"/>
    <path class="st17" d="M1085.3,366.4c-1.6-.3-2.4-1-2.4-2.1,0-1.2.9-2,2.7-2,1.6,0,2.7.8,2.9,2.1h-1.1c-.1-.7-.8-1.2-1.9-1.2-1.1,0-1.7.5-1.7,1.1,0,.7.4,1,1.9,1.3,1.8.4,2.8.9,2.8,2.3,0,1.2-1.1,2.2-2.9,2.2-1.8,0-2.9-.9-3-2.2h1.1c.1.9.8,1.4,2,1.4,1.2,0,1.9-.6,1.9-1.3,0-.9-.8-1.2-2.3-1.5Z"/>
    <path class="st17" d="M1096.3,367.6c-.2,1.4-1.4,2.5-3.1,2.5-1.9,0-3.3-1.3-3.3-3.8,0-2.5,1.4-3.9,3.3-3.9,1.6,0,2.8.9,3.1,2.3h-1.1c-.2-.9-.9-1.4-1.9-1.4-1.3,0-2.3,1-2.3,3.1,0,2,1,2.9,2.3,2.9,1,0,1.8-.6,1.9-1.6h1.1Z"/>
    <path class="st17" d="M1104.2,367.8c-.4,1.3-1.5,2.3-3.2,2.3-2,0-3.5-1.3-3.5-3.8,0-2.5,1.5-3.9,3.4-3.9,1.9,0,3.3,1.2,3.4,4.1h-5.7c0,1.9,1.1,2.7,2.5,2.7,1,0,1.8-.5,2-1.4h1.1ZM1098.6,365.6h4.6c0-1.6-1-2.4-2.3-2.4-1.2,0-2.2.8-2.3,2.4Z"/>
    <path class="st17" d="M1106,369.8v-7.3s.8,0,.8,0v1.1c.6-.9,1.5-1.3,2.4-1.3,1.6,0,2.6,1,2.6,2.6v4.9s-1,0-1,0v-4.8c0-1.2-.6-1.8-1.8-1.8-1,0-2,.8-2,2.1v4.5s-1,0-1,0Z"/>
    <path class="st17" d="M1113.6,364.5c.1-1.3,1.3-2.2,3-2.2,1.8,0,2.8,1,2.8,2.4v5s-.9,0-.9,0v-1.1c-.6.7-1.4,1.3-2.6,1.3-1.5,0-2.5-.8-2.5-2.1,0-1.3.8-2,2.8-2.4l2.2-.4v-.5c0-1-.7-1.6-1.9-1.6-1.1,0-1.7.5-1.8,1.3h-1.1ZM1118.4,366l-1.9.3c-1.5.3-2,.7-2,1.5,0,.8.6,1.3,1.6,1.3,1.1,0,2.2-.8,2.2-2v-1.1Z"/>
    <path class="st17" d="M1121.4,369.8v-7.3s.8,0,.8,0v1.2c.5-1,1.2-1.5,2.1-1.5.3,0,.6,0,.8,0v1c-.3,0-.5-.1-.8-.1-1,0-1.9.9-1.9,2.7v3.8s-1,0-1,0Z"/>
    <path class="st17" d="M1126.2,361v-1.3s1.2,0,1.2,0v1.3s-1.2,0-1.2,0ZM1126.2,369.8v-7.3s1,0,1,0v7.3s-1,0-1,0Z"/>
    <path class="st17" d="M1132.4,362.3c2,0,3.5,1.3,3.5,3.9,0,2.5-1.5,3.9-3.5,3.9-2,0-3.5-1.3-3.5-3.8,0-2.6,1.5-3.9,3.5-3.9ZM1132.4,369.2c1.4,0,2.4-1,2.4-3,0-2-1-3-2.4-3-1.4,0-2.4,1-2.4,3,0,2,1,3,2.4,3Z"/>
    <path class="st17" d="M1139.6,366.4c-1.6-.3-2.4-1-2.4-2.1,0-1.2.9-2,2.7-2,1.6,0,2.7.8,2.9,2.1h-1.1c-.1-.7-.8-1.2-1.9-1.2-1.1,0-1.7.5-1.7,1.1,0,.7.4,1,1.9,1.3,1.8.4,2.8.9,2.8,2.3,0,1.2-1.1,2.2-2.9,2.2-1.8,0-2.9-.9-3-2.2h1.1c.1.9.8,1.4,2,1.4,1.2,0,1.9-.6,1.9-1.3,0-.9-.8-1.2-2.3-1.5Z"/>
    <path class="st17" d="M894.8,387.5v-2.1s2.1,0,2.1,0v2.1s-2.1,0-2.1,0Z"/>
    <path class="st17" d="M912.5,386c0-3.4,2-5.3,4.6-5.3,2.3,0,4,1.4,4.2,3.3h-1.1c-.3-1.5-1.4-2.4-3.1-2.4-2,0-3.5,1.5-3.5,4.4,0,2.7,1.5,4.3,3.5,4.3,1.7,0,3-1.1,3.1-2.7h1.1c-.2,2-1.8,3.7-4.3,3.7-2.8,0-4.6-1.9-4.6-5.2Z"/>
    <path class="st17" d="M923,391v-7.3s.8,0,.8,0v1.2c.5-1,1.2-1.5,2.1-1.5.3,0,.6,0,.8,0v1c-.3,0-.5-.1-.8-.1-1,0-1.9.9-1.9,2.7v3.8s-1,0-1,0Z"/>
    <path class="st17" d="M934.1,388.9c-.4,1.3-1.5,2.3-3.2,2.3-2,0-3.5-1.3-3.5-3.8,0-2.5,1.5-3.9,3.4-3.9,1.9,0,3.3,1.2,3.4,4.1h-5.7c0,1.9,1.1,2.7,2.5,2.7,1,0,1.8-.5,2-1.4h1.1ZM928.5,386.7h4.6c0-1.6-1-2.4-2.3-2.4-1.2,0-2.2.8-2.3,2.4Z"/>
    <path class="st17" d="M935.6,385.6c.1-1.3,1.3-2.2,3-2.2,1.8,0,2.8,1,2.8,2.4v5s-.9,0-.9,0v-1.1c-.6.7-1.4,1.3-2.6,1.3-1.5,0-2.5-.8-2.5-2.1,0-1.3.8-2,2.8-2.4l2.2-.4v-.5c0-1-.7-1.6-1.9-1.6-1.1,0-1.7.5-1.8,1.3h-1.1ZM940.4,387.2l-1.9.3c-1.5.3-2,.7-2,1.5,0,.8.6,1.3,1.6,1.3,1.1,0,2.2-.8,2.2-2v-1.1Z"/>
    <path class="st17" d="M944.8,384.6v4.8c0,.6.3.9.9.9s.5,0,.9-.1v.9c-.3,0-.6.1-1,.1-1.2,0-1.8-.7-1.8-1.8v-4.7s-1.1,0-1.1,0v-.9s1.1,0,1.1,0v-1.8h1v1.8s1.6,0,1.6,0v.9s-1.6,0-1.6,0Z"/>
    <path class="st17" d="M954,388.9c-.4,1.3-1.5,2.3-3.2,2.3-2,0-3.5-1.3-3.5-3.8,0-2.5,1.5-3.9,3.4-3.9,1.9,0,3.3,1.2,3.4,4.1h-5.7c0,1.9,1.1,2.7,2.5,2.7,1,0,1.8-.5,2-1.4h1.1ZM948.5,386.7h4.6c0-1.6-1-2.4-2.3-2.4-1.2,0-2.2.8-2.3,2.4Z"/>
    <path class="st17" d="M957.5,390.8c0,1.4-.8,2-1.6,2.2v-.6c.5-.2.8-.5.8-1.4h-.5s0-1.4,0-1.4h1.3s0,1.2,0,1.2Z"/>
    <path class="st17" d="M969.9,386.3h-4.6s0,3.7,0,3.7h5s0,.9,0,.9h-6.1s0-10.1,0-10.1h6.1s0,.9,0,.9h-5s0,3.6,0,3.6h4.6s0,.9,0,.9Z"/>
    <path class="st17" d="M977.5,390.9l-.2-1.2c-.5.8-1.3,1.4-2.5,1.4-1.8,0-3.2-1.3-3.2-3.8,0-2.6,1.4-3.9,3.2-3.9,1.1,0,2,.5,2.4,1.3v-3.9s1,0,1,0v10.1s-.8,0-.8,0ZM975,390.3c1.3,0,2.3-1,2.3-2.9,0-2-1-3-2.3-3-1.3,0-2.3,1-2.3,3,0,1.9,1,2.9,2.3,2.9Z"/>
    <path class="st17" d="M980.2,382.1v-1.3s1.2,0,1.2,0v1.3s-1.2,0-1.2,0ZM980.3,390.9v-7.3s1,0,1,0v7.3s-1,0-1,0Z"/>
    <path class="st17" d="M984.7,384.5v4.8c0,.6.3.9.9.9s.5,0,.9-.1v.9c-.3,0-.6.1-1,.1-1.2,0-1.8-.7-1.8-1.8v-4.7s-1.1,0-1.1,0v-.9s1.1,0,1.1,0v-1.8c0,0,1,0,1,0v1.8s1.6,0,1.6,0v.9s-1.6,0-1.6,0Z"/>
    <path class="st17" d="M989.4,390.8c0,1.4-.8,2-1.6,2.2v-.6c.5-.2.8-.5.8-1.4h-.5v-1.4s1.3,0,1.3,0v1.2Z"/>
    <path class="st17" d="M996.2,380.8l3.3,9.1,3.3-9.1h1.1s-3.7,10.1-3.7,10.1h-1.4s-3.7-10.1-3.7-10.1h1.1Z"/>
    <path class="st17" d="M1004.8,382.1v-1.3s1.2,0,1.2,0v1.3s-1.2,0-1.2,0ZM1004.9,390.9v-7.3s1,0,1,0v7.3s-1,0-1,0Z"/>
    <path class="st17" d="M1014.2,388.9c-.4,1.3-1.5,2.3-3.2,2.3-2,0-3.5-1.3-3.5-3.8,0-2.5,1.5-3.9,3.4-3.9,1.9,0,3.3,1.2,3.4,4.1h-5.7c0,1.9,1.1,2.7,2.5,2.7,1,0,1.8-.5,2-1.4h1.1ZM1008.6,386.7h4.6c0-1.6-1-2.4-2.3-2.4-1.2,0-2.2.8-2.3,2.4Z"/>
    <path class="st17" d="M1025.8,383.6l-2.1,7.3h-1.2s-1.9-6.1-1.9-6.1l-1.8,6.2h-1.3s-2.2-7.3-2.2-7.3h1.1s1.8,6.2,1.8,6.2l1.8-6.2h1.3l1.9,6.2,1.7-6.2h1.1Z"/>
    <path class="st17" d="M1028.7,390.7c0,1.4-.8,2-1.6,2.2v-.6c.5-.2.8-.5.8-1.4h-.5v-1.4s1.3,0,1.3,0v1.2Z"/>
    <path class="st17" d="M1038.4,380.8c2.9,0,4.9,1.7,4.9,5,0,3.2-2.1,5-5,5h-3s0-10.1,0-10.1h3.1ZM1036.5,381.7v8.3s2,0,2,0c2.3,0,3.8-1.4,3.8-4.1,0-2.8-1.5-4.1-3.8-4.1h-2Z"/>
    <path class="st17" d="M1051.3,388.8c-.4,1.3-1.5,2.3-3.2,2.3-2,0-3.5-1.3-3.5-3.8,0-2.5,1.5-3.9,3.4-3.9,1.9,0,3.3,1.2,3.4,4.1h-5.7c0,1.9,1.1,2.7,2.5,2.7,1,0,1.8-.5,2-1.4h1.1ZM1045.7,386.6h4.6c0-1.6-1-2.4-2.3-2.4-1.2,0-2.2.8-2.3,2.4Z"/>
    <path class="st17" d="M1054.1,390.9h-1s0-10.1,0-10.1h1s0,10.1,0,10.1Z"/>
    <path class="st17" d="M1062.5,388.8c-.4,1.3-1.5,2.3-3.2,2.3-2,0-3.5-1.3-3.5-3.8,0-2.5,1.5-3.9,3.4-3.9,1.9,0,3.3,1.2,3.4,4.1h-5.7c0,1.9,1.1,2.7,2.5,2.7,1,0,1.8-.5,2-1.4h1.1ZM1056.9,386.6h4.6c0-1.6-1-2.4-2.3-2.4-1.2,0-2.2.8-2.3,2.4Z"/>
    <path class="st17" d="M1065.6,384.5v4.8c0,.6.3.9.9.9.3,0,.5,0,.9-.1v.9c-.3,0-.6.1-1,.1-1.2,0-1.8-.7-1.8-1.8v-4.7s-1.1,0-1.1,0v-.9s1.1,0,1.1,0v-1.8c0,0,1,0,1,0v1.8s1.6,0,1.6,0v.9s-1.6,0-1.6,0Z"/>
    <path class="st17" d="M1074.9,388.8c-.4,1.3-1.5,2.3-3.2,2.3-2,0-3.5-1.3-3.5-3.8,0-2.5,1.5-3.9,3.4-3.9,1.9,0,3.3,1.2,3.4,4.1h-5.7c0,1.9,1.1,2.7,2.5,2.7,1,0,1.8-.5,2-1.4h1.1ZM1069.3,386.6h4.6c0-1.6-1-2.4-2.3-2.4-1.2,0-2.2.8-2.3,2.4Z"/>
    <path class="st17" d="M1087.1,386.6h-4s0,2.6,0,2.6h4.5s0,1.7,0,1.7h-6.8s0-10.1,0-10.1h6.8s0,1.7,0,1.7h-4.5s0,2.5,0,2.5h4s0,1.6,0,1.6Z"/>
    <path class="st17" d="M1093.2,387l2.8,3.9h-2.6s-1.4-2.3-1.4-2.3l-1.5,2.3h-2.3s2.7-3.8,2.7-3.8l-2.6-3.4h2.5s1.3,1.9,1.3,1.9l1.3-1.9h2.3s-2.4,3.4-2.4,3.4Z"/>
    <path class="st17" d="M1103.9,388.4c-.3,1.5-1.5,2.6-3.7,2.6-2.4,0-3.7-1.4-3.7-3.8,0-2.5,1.4-3.9,3.7-3.9,1.9,0,3.3,1,3.6,2.4h-2.3c-.2-.6-.7-1-1.2-1-.9,0-1.5.7-1.5,2.5,0,1.6.7,2.3,1.5,2.3.6,0,1.1-.4,1.3-1.1h2.3Z"/>
    <path class="st17" d="M1112.2,388.7c-.3,1.3-1.4,2.3-3.6,2.3-2.3,0-3.8-1.4-3.8-3.8,0-2.5,1.5-3.9,3.8-3.9,2.3,0,3.8,1.4,3.8,4.4h-5.3c.2,1.3.8,1.8,1.7,1.8.7,0,1.1-.3,1.3-.8h2.2ZM1107,386.4h3.1c0-1.2-.6-1.7-1.6-1.7-.8,0-1.4.5-1.5,1.7Z"/>
    <path class="st17" d="M1115.7,390.2v3.2s-2.2,0-2.2,0v-9.8s1.6,0,1.6,0l.4.8c.5-.6,1.3-1,2.3-1,1.9,0,3.2,1.3,3.3,3.7,0,2.5-1.5,4-3.4,4-.8,0-1.5-.3-2-.8ZM1117.3,384.9c-1,0-1.7.7-1.7,2.2,0,1.8.7,2.3,1.6,2.3,1,0,1.7-.7,1.7-2.3,0-1.6-.6-2.2-1.6-2.2Z"/>
    <path class="st17" d="M1126.5,390.8c-.4.1-.9.2-1.3.2-1.5,0-2.4-.8-2.4-2.2v-3.7s-1.1,0-1.1,0v-1.5s1.1,0,1.1,0v-1.8c.1,0,2.2,0,2.2,0v1.8s1.5,0,1.5,0v1.5s-1.5,0-1.5,0v3.8c0,.4.3.6.7.6s.5,0,.8-.1v1.5Z"/>
    <path class="st17" d="M1127.4,382.6v-1.9s2.4,0,2.4,0v1.9s-2.4,0-2.4,0ZM1127.5,390.8v-7.3s2.2,0,2.2,0v7.3s-2.2,0-2.2,0Z"/>
    <path class="st17" d="M1134.8,383.3c2.4,0,3.9,1.3,3.9,3.8,0,2.5-1.4,3.9-3.8,3.9-2.4,0-3.9-1.3-3.9-3.9,0-2.5,1.4-3.8,3.8-3.8ZM1134.8,389.6c1.1,0,1.6-.6,1.6-2.4s-.6-2.4-1.6-2.4c-1.1,0-1.6.6-1.6,2.4,0,1.8.6,2.4,1.6,2.4Z"/>
    <path class="st17" d="M1139.9,390.8v-7.3s1.8,0,1.8,0l.2.8c.5-.6,1.2-1,2.2-1,1.7,0,2.7,1,2.7,2.8v4.7s-2.2,0-2.2,0v-4.6c0-1-.4-1.3-1.1-1.3-.8,0-1.5.6-1.5,1.6v4.3s-2.2,0-2.2,0Z"/>
    <path class="st17" d="M1157.6,390.8l-2.2-3.7h-1.3s0,3.7,0,3.7h-2.4s0-10.1,0-10.1h3.7c2.8,0,4.3,1.1,4.3,3.2,0,1.4-.6,2.3-2,2.8l2.7,4.1h-2.8ZM1154.1,382.3v3.2s1.5,0,1.5,0c1,0,1.7-.6,1.7-1.6,0-1.1-.6-1.6-1.8-1.6h-1.4Z"/>
    <path class="st17" d="M1163.4,383.5v4.8c0,.7.4,1.1,1.2,1.1.8,0,1.3-.6,1.3-1.6v-4.4s2.2,0,2.2,0v7.3s-1.8,0-1.8,0l-.2-.8c-.5.6-1.3,1-2.2,1-1.7,0-2.7-1-2.7-2.8v-4.7s2.2,0,2.2,0Z"/>
    <path class="st17" d="M1171.8,390.8h-2.2s0-10.1,0-10.1h2.2s0,10.1,0,10.1Z"/>
    <path class="st17" d="M1180.5,388.7c-.3,1.3-1.4,2.3-3.6,2.3-2.3,0-3.8-1.4-3.8-3.8,0-2.5,1.5-3.9,3.8-3.9,2.3,0,3.8,1.4,3.8,4.4h-5.3c.2,1.3.8,1.8,1.7,1.8.7,0,1.1-.3,1.3-.8h2.2ZM1175.3,386.4h3.1c0-1.2-.6-1.7-1.6-1.7-.8,0-1.4.5-1.5,1.7Z"/>
    <path class="st17" d="M1186,388.8c0-.5-.4-.6-1.7-.9-1.4-.3-2.6-.8-2.6-2.4,0-1.4,1.1-2.3,3.2-2.3,1.9,0,3.1.8,3.3,2.2h-2.2c0-.4-.5-.7-1.2-.7s-1,.2-1,.6.3.5,1.5.9c1.3.3,2.9.7,2.9,2.3,0,1.4-1.1,2.5-3.4,2.5-2,0-3.2-.9-3.5-2.3h2.2c0,.5.6.8,1.3.8.9,0,1.2-.3,1.2-.7Z"/>
    <path class="st17" d="M894.8,408.5v-2.1s2.1,0,2.1,0v2.1s-2.1,0-2.1,0Z"/>
    <path class="st17" d="M916.4,401.9c2.2,0,3.4,1,3.4,2.6,0,1-.7,1.9-1.7,2.2,1.1.2,2.1,1.2,2.1,2.5,0,1.8-1.3,2.8-3.7,2.8h-3.5s0-10.1,0-10.1h3.5ZM914,402.7v3.5s2.6,0,2.6,0c1.4,0,2.1-.7,2.1-1.8,0-1.1-.8-1.7-2.1-1.7h-2.5ZM914,407.1v4s2.6,0,2.6,0c1.6,0,2.4-.7,2.4-1.9,0-1.3-.8-2-2.3-2h-2.7Z"/>
    <path class="st17" d="M921.6,406.6c.1-1.3,1.3-2.2,3-2.2,1.8,0,2.8,1,2.8,2.4v5s-.9,0-.9,0v-1.1c-.6.7-1.4,1.3-2.6,1.3-1.5,0-2.5-.8-2.5-2.1,0-1.3.8-2,2.8-2.4l2.2-.4v-.5c0-1-.7-1.6-1.9-1.6-1.1,0-1.7.5-1.8,1.3h-1.1ZM926.4,408.2l-1.9.3c-1.5.3-2,.7-2,1.5,0,.8.6,1.3,1.6,1.3,1.1,0,2.2-.8,2.2-2v-1.1Z"/>
    <path class="st17" d="M930.7,405.6v4.8c0,.6.3.9.9.9s.5,0,.9-.1v.9c-.3,0-.6.1-1,.1-1.2,0-1.8-.7-1.8-1.8v-4.7s-1.1,0-1.1,0v-.9s1.1,0,1.1,0v-1.8h1v1.8s1.6,0,1.6,0v.9s-1.6,0-1.6,0Z"/>
    <path class="st17" d="M939.8,409.7c-.2,1.4-1.4,2.5-3.1,2.5-1.9,0-3.3-1.3-3.3-3.8,0-2.5,1.4-3.9,3.3-3.9,1.6,0,2.8.9,3.1,2.3h-1.1c-.2-.9-.9-1.4-1.9-1.4-1.3,0-2.3,1-2.3,3.1,0,2,1,2.9,2.3,2.9,1,0,1.8-.6,1.9-1.6h1.1Z"/>
    <path class="st17" d="M941.4,411.9v-10.1s1,0,1,0v3.8c.5-.8,1.4-1.2,2.3-1.2,1.6,0,2.6,1,2.6,2.6v4.9s-1,0-1,0v-4.8c0-1.2-.6-1.8-1.8-1.8-1.1,0-2,.8-2,2.1v4.5s-1,0-1,0Z"/>
    <path class="st17" d="M956.5,404.4c2,0,3.5,1.3,3.5,3.9,0,2.5-1.5,3.9-3.5,3.9-2,0-3.5-1.3-3.5-3.8,0-2.6,1.5-3.9,3.5-3.9ZM956.5,411.3c1.4,0,2.4-1,2.4-3,0-2-1-3-2.4-3-1.4,0-2.4,1-2.4,3,0,2,1,3,2.4,3Z"/>
    <path class="st17" d="M962.5,404.6l.2,1.2c.5-.8,1.4-1.4,2.5-1.4,1.8,0,3.1,1.3,3.1,3.8,0,2.5-1.4,3.9-3.2,3.9-1.1,0-2-.5-2.4-1.3v3.6s-1,0-1,0v-9.8s.8,0,.8,0ZM964.9,405.3c-1.2,0-2.3.9-2.3,2.9,0,2,1,3,2.3,3,1.3,0,2.3-1,2.3-3.1,0-2-1-2.9-2.3-2.9Z"/>
    <path class="st17" d="M976.2,409.9c-.4,1.3-1.5,2.3-3.2,2.3-2,0-3.5-1.3-3.5-3.8,0-2.5,1.5-3.9,3.4-3.9,1.9,0,3.3,1.2,3.4,4.1h-5.7c0,1.9,1.1,2.7,2.5,2.7,1,0,1.8-.5,2-1.4h1.1ZM970.6,407.7h4.6c0-1.6-1-2.4-2.3-2.4-1.2,0-2.2.8-2.3,2.4Z"/>
    <path class="st17" d="M978,411.9v-7.3s.8,0,.8,0v1.2c.5-1,1.2-1.5,2.1-1.5.3,0,.6,0,.8,0v1c-.3,0-.5-.1-.8-.1-1,0-1.9.9-1.9,2.7v3.8s-1,0-1,0Z"/>
    <path class="st17" d="M982.6,406.6c.1-1.3,1.3-2.2,3-2.2,1.8,0,2.8,1,2.8,2.4v5s-.9,0-.9,0v-1.1c-.6.7-1.4,1.3-2.6,1.3-1.5,0-2.5-.8-2.5-2.1,0-1.3.8-2,2.8-2.4l2.2-.4v-.5c0-1-.7-1.6-1.9-1.6-1.1,0-1.7.5-1.8,1.3h-1.1ZM987.4,408.1l-1.9.3c-1.5.3-2,.7-2,1.5,0,.8.6,1.3,1.6,1.3,1.1,0,2.2-.8,2.2-2v-1.1Z"/>
    <path class="st17" d="M991.7,405.5v4.8c0,.6.3.9.9.9s.5,0,.9-.1v.9c-.3,0-.6.1-1,.1-1.2,0-1.8-.7-1.8-1.8v-4.7s-1.1,0-1.1,0v-.9s1.1,0,1.1,0v-1.8c0,0,1,0,1,0v1.8s1.6,0,1.6,0v.9s-1.6,0-1.6,0Z"/>
    <path class="st17" d="M994.7,403.1v-1.3s1.2,0,1.2,0v1.3s-1.2,0-1.2,0ZM994.7,411.9v-7.3s1,0,1,0v7.3s-1,0-1,0Z"/>
    <path class="st17" d="M1000.9,404.4c2,0,3.5,1.3,3.5,3.9,0,2.5-1.5,3.9-3.5,3.9-2,0-3.5-1.3-3.5-3.8,0-2.6,1.5-3.9,3.5-3.9ZM1000.9,411.3c1.4,0,2.4-1,2.4-3,0-2-1-3-2.4-3s-2.4,1-2.4,3c0,2,1,3,2.4,3Z"/>
    <path class="st17" d="M1006,411.9v-7.3s.8,0,.8,0v1.1c.6-.9,1.5-1.3,2.4-1.3,1.6,0,2.5,1,2.6,2.6v4.9s-1,0-1,0v-4.8c0-1.2-.6-1.8-1.8-1.8-1,0-2,.8-2,2.1v4.5s-1,0-1,0Z"/>
    <path class="st17" d="M1027.8,404.6l-2.1,7.3h-1.2s-1.9-6.1-1.9-6.1l-1.8,6.2h-1.3s-2.2-7.3-2.2-7.3h1.1l1.8,6.2,1.8-6.2h1.3s1.9,6.2,1.9,6.2l1.7-6.2h1.1Z"/>
    <path class="st17" d="M1032.1,404.4c2,0,3.5,1.3,3.5,3.8,0,2.5-1.5,3.9-3.5,3.9-2,0-3.5-1.3-3.5-3.8,0-2.6,1.5-3.9,3.5-3.9ZM1032.1,411.2c1.4,0,2.4-1,2.4-3,0-2-1-3-2.4-3s-2.4,1-2.4,3c0,2,1,3,2.4,3Z"/>
    <path class="st17" d="M1037.2,411.9v-7.3s.8,0,.8,0v1.2c.5-1,1.2-1.5,2.1-1.5.3,0,.6,0,.8,0v1c-.3,0-.5-.1-.8-.1-1,0-1.9.9-1.9,2.7v3.8s-1,0-1,0Z"/>
    <path class="st17" d="M1042.1,411.9v-10.1s1,0,1,0v5.7s3.2-2.9,3.2-2.9h1.4s-3.5,3.2-3.5,3.2l4,4.1h-1.4s-3.6-3.8-3.6-3.8v3.8s-1,0-1,0Z"/>
    <path class="st17" d="M1053.7,411.9v-9.1c-.5-.1-1.2-.3-1.7-.3-1.1,0-1.4.4-1.4,1.2v.9s1.5,0,1.5,0v.9s-1.5,0-1.5,0v6.4s-1,0-1,0v-6.4h-1.1v-.9s1.1,0,1.1,0v-.8c0-1.2.6-2.2,2.3-2.2.6,0,1.4.1,1.8.3h1c0,0,0,10,0,10h-1Z"/>
    <path class="st17" d="M1059.9,404.4c2,0,3.5,1.3,3.5,3.9,0,2.5-1.5,3.9-3.5,3.9-2,0-3.5-1.3-3.5-3.8,0-2.6,1.5-3.9,3.5-3.9ZM1059.9,411.2c1.4,0,2.4-1,2.4-3,0-2-1-3-2.4-3-1.4,0-2.4,1-2.4,3,0,2,1,3,2.4,3Z"/>
    <path class="st17" d="M1074.7,404.6l-2.1,7.3h-1.2s-1.9-6.1-1.9-6.1l-1.8,6.2h-1.3s-2.2-7.3-2.2-7.3h1.1s1.8,6.2,1.8,6.2l1.8-6.2h1.3s1.9,6.2,1.9,6.2l1.7-6.2h1.1Z"/>
    <path class="st17" d="M1083.6,402.6c-.4-.1-.8-.2-1.1-.2-.6,0-.9.3-.9.9v1.2s1.6,0,1.6,0v.9h-1.6s0,6.4,0,6.4h-1s0-6.4,0-6.4h-1.1v-.9h1.1v-1.1c0-1.2.8-1.9,1.9-1.9.4,0,.8,0,1.1.2v.9Z"/>
    <path class="st17" d="M1087.6,404.4c2,0,3.5,1.3,3.5,3.8,0,2.5-1.5,3.9-3.5,3.9-2,0-3.5-1.3-3.5-3.8,0-2.6,1.5-3.9,3.5-3.9ZM1087.6,411.2c1.4,0,2.4-1,2.4-3,0-2-1-3-2.4-3-1.4,0-2.4,1-2.4,3,0,2,1,3,2.4,3Z"/>
    <path class="st17" d="M1098.7,409.6c-.2,1.4-1.4,2.5-3.1,2.5-1.9,0-3.3-1.3-3.3-3.8,0-2.5,1.4-3.9,3.3-3.9,1.6,0,2.8.9,3.1,2.3h-1.1c-.2-.9-.9-1.4-1.9-1.4-1.3,0-2.3,1-2.3,3.1,0,2,1,2.9,2.3,2.9,1,0,1.8-.6,1.9-1.6h1.1Z"/>
    <path class="st17" d="M1101.3,404.6v4.8c0,1.2.7,1.8,1.7,1.8,1.3,0,2-1,2-2.2v-4.5s1,0,1,0v7.3s-.9,0-.9,0v-1c-.6.8-1.5,1.2-2.4,1.2-1.5,0-2.5-.9-2.5-2.6v-4.8s1,0,1,0Z"/>
    <path class="st17" d="M1110.2,408.4c-1.6-.3-2.4-1-2.4-2.1,0-1.2.9-2,2.7-2,1.6,0,2.7.8,2.9,2.1h-1.1c-.1-.7-.8-1.2-1.9-1.2-1.1,0-1.7.5-1.7,1.1s.4,1,1.9,1.3c1.8.4,2.8.9,2.8,2.3,0,1.2-1.1,2.2-2.9,2.2-1.8,0-2.9-.9-3-2.2h1.1c.1.9.8,1.4,2,1.4,1.2,0,1.9-.6,1.9-1.3,0-.9-.8-1.2-2.3-1.5Z"/>
    <path class="st17" d="M1122.5,404.3c2,0,3.5,1.3,3.5,3.9,0,2.5-1.5,3.9-3.5,3.9-2,0-3.5-1.3-3.5-3.8,0-2.6,1.5-3.9,3.5-3.9ZM1122.5,411.2c1.4,0,2.4-1,2.4-3,0-2-1-3-2.4-3-1.4,0-2.4,1-2.4,3,0,2,1,3,2.4,3Z"/>
    <path class="st17" d="M1127.6,411.8v-7.3s.8,0,.8,0v1.1c.6-.9,1.5-1.3,2.4-1.3,1.6,0,2.5,1,2.6,2.6v4.9s-1,0-1,0v-4.8c0-1.2-.6-1.8-1.8-1.8-1,0-2,.8-2,2.1v4.5s-1,0-1,0Z"/>
    <path class="st17" d="M1145.4,407.7h-3.6s0,4.1,0,4.1h-2.4s0-10.1,0-10.1h6.4s0,1.7,0,1.7h-4s0,2.7,0,2.7h3.6s0,1.6,0,1.6Z"/>
    <path class="st17" d="M1150.6,404.3c2.4,0,3.9,1.3,3.9,3.8,0,2.5-1.4,3.9-3.8,3.9-2.4,0-3.9-1.3-3.9-3.9,0-2.5,1.4-3.8,3.8-3.8ZM1150.6,410.5c1.1,0,1.6-.6,1.6-2.4,0-1.8-.6-2.4-1.6-2.4-1.1,0-1.6.6-1.6,2.4,0,1.8.6,2.4,1.6,2.4Z"/>
    <path class="st17" d="M1155.7,411.8v-7.3s1.8,0,1.8,0l.2,1.1c.4-.9,1-1.3,1.9-1.3s.6,0,.8,0v2c-.3,0-.6-.1-.9-.1-.9,0-1.7.9-1.7,2.5v3s-2.2,0-2.2,0Z"/>
    <path class="st17" d="M1168.6,401.7c3.1,0,4.4,1.1,4.4,3.4,0,2.3-1.4,3.3-4.3,3.4h-1.4s0,3.4,0,3.4h-2.4s0-10.1,0-10.1h3.6ZM1167.3,403.3v3.5s1.4,0,1.4,0c1.2,0,1.8-.6,1.8-1.7,0-1.2-.7-1.8-1.9-1.8h-1.3Z"/>
    <path class="st17" d="M1174.1,406.6c.3-1.5,1.6-2.3,3.5-2.3,2,0,3.3,1,3.3,2.7v4.8s-1.7,0-1.7,0l-.3-.8c-.5.5-1.3,1-2.4,1-1.5,0-2.5-.8-2.6-2.3,0-1.1.7-1.9,2.9-2.3l1.8-.3v-.3c0-.7-.4-1.1-1.2-1.1-.7,0-1.1.4-1.2.9h-2.2ZM1178.7,409.1v-.8s-1.2.3-1.2.3c-1,.2-1.3.5-1.3,1,0,.6.4.9,1,.9,1,0,1.6-.6,1.6-1.4Z"/>
    <path class="st17" d="M1182.3,411.8v-7.3s1.8,0,1.8,0l.2,1.1c.4-.9,1-1.3,1.9-1.3.3,0,.6,0,.8,0v2c-.3,0-.6-.1-.9-.1-.9,0-1.7.9-1.7,2.5v3s-2.2,0-2.2,0Z"/>
    <path class="st17" d="M1192.1,411.8c-.4.1-.9.2-1.3.2-1.5,0-2.4-.8-2.4-2.2v-3.7s-1.1,0-1.1,0v-1.5s1.1,0,1.1,0v-1.8c.1,0,2.2,0,2.2,0v1.8s1.5,0,1.5,0v1.5s-1.5,0-1.5,0v3.8c0,.4.3.6.7.6.2,0,.5,0,.8-.1v1.5Z"/>
    <path class="st17" d="M1192.9,403.6v-1.9s2.4,0,2.4,0v1.9s-2.4,0-2.4,0ZM1193,411.8v-7.3s2.2,0,2.2,0v7.3s-2.2,0-2.2,0Z"/>
    <path class="st17" d="M1196.6,406.6c.3-1.5,1.6-2.3,3.5-2.3,2,0,3.3,1,3.3,2.7v4.8s-1.7,0-1.7,0l-.3-.8c-.5.5-1.3,1-2.4,1-1.5,0-2.5-.8-2.6-2.3,0-1.1.7-1.9,2.9-2.3l1.8-.3v-.3c0-.7-.4-1.1-1.2-1.1-.7,0-1.1.4-1.2.9h-2.2ZM1201.2,409.1v-.8s-1.2.3-1.2.3c-1,.2-1.3.5-1.3,1s.4.9,1,.9c1,0,1.6-.6,1.6-1.4Z"/>
    <path class="st17" d="M1207.1,411.8h-2.2s0-10.1,0-10.1h2.2s0,10.1,0,10.1Z"/>
    <path class="st17" d="M1216.9,403.2c-.4-.1-.8-.2-1.1-.2-.6,0-.9.3-.9.8v.6h1.6s0,1.5,0,1.5h-1.6s0,5.8,0,5.8h-2.2s0-5.8,0-5.8h-1.1s0-1.5,0-1.5h1.1s0-.5,0-.5c0-1.6.9-2.5,2.5-2.5.7,0,1.2.1,1.7.2v1.5Z"/>
    <path class="st17" d="M1217.6,411.8v-7.3s1.8,0,1.8,0l.2,1.1c.4-.9,1-1.3,1.9-1.3.3,0,.6,0,.8,0v2c-.3,0-.6-.1-.9-.1-.9,0-1.7.9-1.7,2.5v3s-2.2,0-2.2,0Z"/>
    <path class="st17" d="M1226.7,404.3c2.4,0,3.9,1.3,3.9,3.8,0,2.5-1.4,3.9-3.8,3.9-2.4,0-3.9-1.3-3.9-3.9,0-2.5,1.4-3.8,3.8-3.8ZM1226.7,410.5c1.1,0,1.6-.6,1.6-2.4s-.6-2.4-1.6-2.4c-1.1,0-1.6.6-1.6,2.4,0,1.8.6,2.4,1.6,2.4Z"/>
    <path class="st17" d="M1231.8,411.7v-7.3s1.5,0,1.5,0l.4.8c.5-.6,1.2-1,2.2-1,.9,0,1.7.3,2.2,1,.5-.6,1.4-1,2.4-1,1.6,0,2.7.8,2.7,2.8v4.7s-2.2,0-2.2,0v-4.8c0-.8-.5-1.2-1.2-1.2-.9,0-1.3.7-1.3,1.5v4.5s-2.2,0-2.2,0v-4.8c0-.8-.5-1.2-1.2-1.2-.8,0-1.3.7-1.3,1.4v4.6s-2.2,0-2.2,0Z"/>
    <path class="st17" d="M1252.2,401.6c3.3,0,5,1.6,5,5,0,3.5-1.8,5-5,5h-3.8s0-10.1,0-10.1h3.8ZM1250.7,403.3v6.8s1.5,0,1.5,0c1.6,0,2.6-1,2.6-3.4,0-2.4-1-3.4-2.7-3.4h-1.4Z"/>
    <path class="st17" d="M1265.7,409.6c-.3,1.3-1.4,2.3-3.6,2.3-2.3,0-3.8-1.4-3.8-3.8,0-2.5,1.5-3.9,3.8-3.9,2.3,0,3.8,1.4,3.8,4.4h-5.3c.2,1.3.8,1.8,1.7,1.8.7,0,1.1-.3,1.3-.8h2.2ZM1260.5,407.3h3.1c0-1.2-.6-1.7-1.6-1.7-.8,0-1.4.5-1.5,1.7Z"/>
    <path class="st17" d="M1269.1,411.1v3.2s-2.2,0-2.2,0v-9.8s1.6,0,1.6,0l.4.8c.5-.6,1.3-1,2.3-1,1.9,0,3.3,1.3,3.3,3.7,0,2.5-1.5,4-3.4,4-.8,0-1.5-.3-2-.8ZM1270.8,405.8c-1,0-1.7.7-1.7,2.2,0,1.8.7,2.3,1.6,2.3,1,0,1.7-.7,1.7-2.3,0-1.6-.6-2.2-1.6-2.2Z"/>
    <path class="st17" d="M1280,411.7c-.4.1-.9.2-1.3.2-1.5,0-2.4-.8-2.4-2.2v-3.7s-1.1,0-1.1,0v-1.5s1.1,0,1.1,0v-1.8c.1,0,2.2,0,2.2,0v1.8s1.5,0,1.5,0v1.5s-1.5,0-1.5,0v3.8c0,.4.3.6.7.6.2,0,.5,0,.8-.1v1.5Z"/>
    <path class="st17" d="M1281,411.7v-2.2s2.5,0,2.5,0v2.2s-2.5,0-2.5,0Z"/>
    <path class="st17" d="M1292.9,411.7c-.4.1-.9.2-1.3.2-1.5,0-2.4-.8-2.4-2.2v-3.7s-1.1,0-1.1,0v-1.5s1.1,0,1.1,0v-1.8c.1,0,2.2,0,2.2,0v1.8s1.5,0,1.5,0v1.5s-1.5,0-1.5,0v3.8c0,.4.3.6.7.6.2,0,.5,0,.8-.1v1.5Z"/>
    <path class="st17" d="M1297.4,404.2c2.4,0,3.9,1.3,3.9,3.8,0,2.5-1.4,3.9-3.8,3.9-2.4,0-3.9-1.3-3.9-3.9,0-2.5,1.4-3.8,3.8-3.8ZM1297.4,410.4c1.1,0,1.6-.6,1.6-2.4s-.6-2.4-1.6-2.4c-1.1,0-1.6.6-1.6,2.4s.6,2.4,1.6,2.4Z"/>
    <path class="st17" d="M1306,406.5c.3-1.5,1.6-2.3,3.5-2.3,2,0,3.3,1,3.3,2.7v4.8s-1.7,0-1.7,0l-.3-.8c-.5.5-1.3,1-2.4,1-1.5,0-2.5-.8-2.6-2.3,0-1.1.7-1.9,2.9-2.3l1.8-.3v-.3c0-.7-.4-1.1-1.2-1.1-.7,0-1.1.4-1.2.9h-2.2ZM1310.6,409v-.8s-1.2.3-1.2.3c-1,.2-1.3.5-1.3,1s.4.9,1,.9c1,0,1.6-.6,1.6-1.4Z"/>
    <path class="st17" d="M1321.4,404.4l-2.5,7.3h-2.8s-2.5-7.3-2.5-7.3h2.4s1.6,5.7,1.6,5.7l1.6-5.7h2.3Z"/>
    <path class="st17" d="M1325.8,404.2c2.4,0,3.9,1.3,3.9,3.8,0,2.5-1.4,3.9-3.8,3.9-2.4,0-3.9-1.3-3.9-3.9,0-2.5,1.4-3.8,3.8-3.8ZM1325.8,410.4c1.1,0,1.6-.6,1.6-2.4,0-1.8-.6-2.4-1.6-2.4-1.1,0-1.6.6-1.6,2.4s.6,2.4,1.6,2.4Z"/>
    <path class="st17" d="M1330.8,403.5v-1.9s2.4,0,2.4,0v1.9s-2.4,0-2.4,0ZM1330.9,411.7v-7.3s2.2,0,2.2,0v7.3s-2.2,0-2.2,0Z"/>
    <path class="st17" d="M1340.2,411.7l-.4-.8c-.5.6-1.3,1-2.2,1-2,0-3.3-1.4-3.3-3.8,0-2.5,1.4-3.9,3.3-3.9.9,0,1.7.3,2.1.9v-3.5s2.2,0,2.2,0v10.1s-1.7,0-1.7,0ZM1338.2,410.3c1,0,1.6-.6,1.6-2.2,0-1.8-.9-2.3-1.6-2.3-1,0-1.7.8-1.7,2.3,0,1.5.7,2.2,1.7,2.2Z"/>
    <path class="st17" d="M1354.2,409.2c-.3,1.5-1.5,2.6-3.7,2.6-2.4,0-3.7-1.4-3.7-3.8,0-2.5,1.4-3.9,3.7-3.9,1.9,0,3.3,1,3.6,2.4h-2.3c-.2-.6-.7-1-1.2-1-.9,0-1.5.7-1.5,2.5,0,1.6.7,2.3,1.5,2.3.6,0,1.1-.4,1.3-1.1h2.3Z"/>
    <path class="st17" d="M1359,404.2c2.4,0,3.9,1.3,3.9,3.8,0,2.5-1.4,3.9-3.8,3.9-2.4,0-3.9-1.3-3.9-3.9,0-2.5,1.4-3.8,3.8-3.8ZM1359,410.4c1.1,0,1.6-.6,1.6-2.4,0-1.8-.6-2.4-1.6-2.4-1.1,0-1.6.6-1.6,2.4s.6,2.4,1.6,2.4Z"/>
    <path class="st17" d="M1364.1,411.7v-7.3s1.8,0,1.8,0l.2.8c.5-.6,1.2-1,2.2-1,1.7,0,2.7,1,2.7,2.8v4.7s-2.2,0-2.2,0v-4.6c0-1-.4-1.3-1.1-1.3-.8,0-1.5.6-1.5,1.6v4.3s-2.2,0-2.2,0Z"/>
    <path class="st17" d="M1377.7,411.6v-8.6c-.4,0-.9-.1-1.3-.1-.9,0-1.2.3-1.2.9v.5s1.4,0,1.4,0v1.5s-1.4,0-1.4,0v5.8s-2.2,0-2.2,0v-5.8s-1.1,0-1.1,0v-1.5s1.1,0,1.1,0v-.4c0-1.8,1.1-2.6,2.8-2.6.8,0,1.4,0,1.9.2h2.1c0,0,0,10.1,0,10.1h-2.2Z"/>
    <path class="st17" d="M1381.3,403.4v-1.9s2.4,0,2.4,0v1.9s-2.4,0-2.4,0ZM1381.4,411.6v-7.3s2.2,0,2.2,0v7.3s-2.2,0-2.2,0Z"/>
    <path class="st17" d="M1392.2,409.2c-.3,1.5-1.5,2.6-3.7,2.6-2.4,0-3.7-1.4-3.7-3.8,0-2.5,1.4-3.9,3.7-3.9,1.9,0,3.3,1,3.6,2.4h-2.3c-.2-.6-.7-1-1.2-1-.9,0-1.5.7-1.5,2.5,0,1.6.7,2.3,1.5,2.3.6,0,1.1-.4,1.3-1.1h2.3Z"/>
    <path class="st17" d="M1397.5,411.6c-.4.1-.9.2-1.3.2-1.5,0-2.4-.8-2.4-2.2v-3.7s-1.1,0-1.1,0v-1.5s1.1,0,1.1,0v-1.8c.1,0,2.2,0,2.2,0v1.8s1.5,0,1.5,0v1.5s-1.5,0-1.5,0v3.8c0,.4.3.6.7.6.2,0,.5,0,.8-.1v1.5Z"/>
    <path class="st17" d="M1402.8,409.7c0-.5-.4-.6-1.7-.9-1.4-.3-2.6-.8-2.6-2.4,0-1.4,1.1-2.3,3.2-2.3,1.9,0,3.1.8,3.3,2.2h-2.2c0-.4-.5-.7-1.2-.7-.7,0-1,.2-1,.6s.3.5,1.5.9c1.3.3,2.9.7,2.9,2.3,0,1.4-1.1,2.5-3.4,2.5-2,0-3.2-.9-3.5-2.3h2.2c0,.5.6.8,1.3.8.9,0,1.2-.3,1.2-.7Z"/>
  </g>
  <line class="st1" x1="885.7" y1="445.3" x2="1289.5" y2="595.9"/>
  <circle class="st32" cx="1064.6" cy="575" r="75"/>
  <g class="st51">
    <g class="st48">
      <rect class="st27" x="1178.7" y="545.3" width="23.7" height="26" transform="translate(251.9 1479.1) rotate(-69.6)"/>
    </g>
  </g>
  <circle class="st5" cx="1064.6" cy="712" r="92"/>
  <text class="st16" transform="translate(1015.2 740.9) rotate(0)"><tspan class="st8" x="0" y="0">Publish</tspan><tspan class="st26" x="43" y="0" xml:space="preserve"> on Action</tspan></text>
  <text class="st21" transform="translate(1021.7 694.5) rotate(0)"><tspan x="0" y="0">Exception</tspan><tspan x="19" y="24">Rules</tspan></text>
  <g class="st43">
    <g class="st44">
      <rect class="st27" x="946.6" y="458.4" width="23.7" height="26" transform="translate(186.7 1209.9) rotate(-69.9)"/>
    </g>
  </g>
  <text class="st21" transform="translate(1033.8 557.7) rotate(0)"><tspan x="0" y="0">Default</tspan><tspan x="6.8" y="24">Rules</tspan></text>
  <text class="st16" transform="translate(1022.2 603.7) rotate(0)"><tspan class="st8" x="0" y="0">Save</tspan><tspan class="st26" x="29.1" y="0" xml:space="preserve"> on Action</tspan></text>
  <circle class="st32" cx="602.8" cy="608.6" r="109.5"/>
  <circle class="st5" cx="602.8" cy="637.5" r="64.4"/>
  <text class="st22" transform="translate(580.4 645.1) rotate(0)"><tspan x="0" y="0">Rules</tspan></text>
  <text class="st24" transform="translate(564.4 542.1) rotate(0)"><tspan x="0" y="0">Policies</tspan></text>
  <text class="st9" transform="translate(527.6 484.2) rotate(0)"><tspan x="0" y="0">Existing Feature Logic</tspan></text>
  <g class="st45">
    <g class="st46">
      <rect class="st27" x="706.8" y="475.7" width="26" height="23.7" transform="translate(-146.6 559.9) rotate(-38.9)"/>
    </g>
  </g>
  <g class="st47">
    <g class="st49">
      <rect class="st27" x="904.9" y="742.7" width="26" height="23.7" transform="translate(-126.2 187.3) rotate(-10.9)"/>
    </g>
  </g>
</svg>