<?xml version="1.0" encoding="UTF-8"?>
<svg id="Layer_1" data-name="Layer 1" xmlns="http://www.w3.org/2000/svg" viewBox="0 0 1200 720">
  <defs>
    <style>
      .cls-1 {
        letter-spacing: -.02em;
      }

      .cls-1, .cls-2, .cls-3, .cls-4, .cls-5, .cls-6, .cls-7, .cls-8, .cls-9, .cls-10, .cls-11, .cls-12, .cls-13, .cls-14, .cls-15, .cls-16 {
        isolation: isolate;
      }

      .cls-1, .cls-2, .cls-8, .cls-11 {
        font-family: Arial-BoldMT, Arial;
        font-weight: 700;
      }

      .cls-1, .cls-8 {
        font-size: 18px;
        text-decoration: underline;
      }

      .cls-1, .cls-8, .cls-11 {
        fill: #374151;
      }

      .cls-2 {
        fill: #1f2937;
        font-size: 28px;
      }

      .cls-17 {
        fill: #fff3cd;
      }

      .cls-3 {
        letter-spacing: .02em;
      }

      .cls-3, .cls-5, .cls-6, .cls-7, .cls-9, .cls-10, .cls-12, .cls-13, .cls-14, .cls-15, .cls-16 {
        font-family: Inter-Regular, Inter;
        font-variation-settings: 'opsz' 14, 'wght' 400;
      }

      .cls-3, .cls-5, .cls-6, .cls-16 {
        fill: #6b7280;
        font-size: 16px;
      }

      .cls-18 {
        fill: #d1fae5;
      }

      .cls-5 {
        letter-spacing: -.02em;
      }

      .cls-6 {
        letter-spacing: -.04em;
      }

      .cls-7 {
        letter-spacing: -.01em;
      }

      .cls-7, .cls-9, .cls-10, .cls-12, .cls-13, .cls-14, .cls-15 {
        font-size: 14px;
      }

      .cls-7, .cls-10, .cls-12, .cls-13, .cls-14, .cls-15 {
        fill: #111827;
      }

      .cls-19 {
        fill: #dbeafe;
      }

      .cls-10 {
        letter-spacing: .02em;
      }

      .cls-11 {
        font-size: 24.78px;
      }

      .cls-12 {
        letter-spacing: -.08em;
      }

      .cls-13 {
        letter-spacing: -.03em;
      }

      .cls-14 {
        letter-spacing: -.02em;
      }

      .cls-20 {
        letter-spacing: -.02em;
      }

      .cls-21 {
        letter-spacing: -.02em;
      }

      .cls-22 {
        letter-spacing: -.02em;
      }

      .cls-23 {
        letter-spacing: 0em;
      }

      .cls-24 {
        letter-spacing: .02em;
      }

      .cls-25 {
        fill: #f3f4f6;
      }

      .cls-26 {
        letter-spacing: 0em;
      }
    </style>
  </defs>
  <g class="cls-4">
    <text class="cls-2" transform="translate(343.51 60.01)"><tspan x="0" y="0">Student Interviews &amp; Qualitative Insights</tspan></text>
  </g>
  <g class="cls-4">
    <text class="cls-16" transform="translate(459.95 90.01)"><tspan x="0" y="0">A</tspan></text>
    <text class="cls-6" transform="translate(470.99 90.01)"><tspan x="0" y="0">f</tspan></text>
    <text class="cls-16" transform="translate(476.29 90.01)"><tspan x="0" y="0">fini</tspan></text>
    <text class="cls-3" transform="translate(499.41 90.01)"><tspan x="0" y="0">t</tspan></text>
    <text class="cls-16" transform="translate(504.96 90.01)"><tspan x="0" y="0">y Mapping f</tspan></text>
    <text class="cls-5" transform="translate(595.04 90.01)"><tspan x="0" y="0">r</tspan></text>
    <text class="cls-16" transform="translate(600.8 90.01)"><tspan x="0" y="0">om Student In</tspan></text>
    <text class="cls-16" transform="translate(705.93 90.01)"><tspan x="0" y="0">t</tspan></text>
    <text class="cls-16" transform="translate(711.01 90.01)"><tspan x="0" y="0">e</tspan></text>
    <text class="cls-3" transform="translate(720.34 90.01)"><tspan x="0" y="0">r</tspan></text>
    <text class="cls-16" transform="translate(726.61 90.01)"><tspan x="0" y="0">vi</tspan></text>
    <text class="cls-5" transform="translate(739.48 90.01)"><tspan x="0" y="0">e</tspan></text>
    <text class="cls-16" transform="translate(748.52 90.01)"><tspan x="0" y="0">ws</tspan></text>
  </g>
  <g class="cls-4">
    <text class="cls-8" transform="translate(200 150)"><tspan x="0" y="0">Onboarding Confusion</tspan></text>
  </g>
  <g class="cls-4">
    <text class="cls-8" transform="translate(536.64 150)"><tspan x="0" y="0" xml:space="preserve">Progress </tspan></text>
    <text class="cls-1" transform="translate(619.68 150)"><tspan x="0" y="0">V</tspan></text>
    <text class="cls-8" transform="translate(631.36 150)"><tspan x="0" y="0">isibility</tspan></text>
  </g>
  <g class="cls-4">
    <text class="cls-8" transform="translate(860 150)"><tspan x="0" y="0">Next Step Clarity</tspan></text>
  </g>
  <rect class="cls-17" x="147.98" y="180" width="300" height="90" rx="7.75" ry="7.75"/>
  <g class="cls-4">
    <text class="cls-15" transform="translate(226.15 215.39)"><tspan x="0" y="0">&quot;I wasn&apos;t su</tspan></text>
    <text class="cls-14" transform="translate(303.73 215.39)"><tspan x="0" y="0">r</tspan></text>
    <text class="cls-15" transform="translate(308.77 215.39)"><tspan x="0" y="0">e what </tspan></text>
    <text class="cls-15" transform="translate(356.98 215.39)"><tspan x="0" y="0">t</tspan></text>
    <text class="cls-15" transform="translate(361.43 215.39)"><tspan x="0" y="0">o</tspan></text>
    <text class="cls-15" transform="translate(238.64 242.19)"><tspan x="0" y="0">do a</tspan></text>
    <text class="cls-13" transform="translate(267.4 242.19)"><tspan x="0" y="0">f</tspan></text>
    <text class="cls-15" transform="translate(272.1 242.19)"><tspan x="0" y="0">t</tspan></text>
    <text class="cls-15" transform="translate(276.55 242.19)"><tspan x="0" y="0">er en</tspan></text>
    <text class="cls-14" transform="translate(310.35 242.19)"><tspan x="0" y="0">r</tspan></text>
    <text class="cls-15" transform="translate(315.39 242.19)"><tspan x="0" y="0">olling&quot;</tspan></text>
  </g>
  <rect class="cls-17" x="147.98" y="290" width="300" height="90" rx="7.75" ry="7.75"/>
  <g class="cls-4">
    <text class="cls-15" transform="translate(197.35 325.39)"><tspan x="0" y="0">&quot;The po</tspan></text>
    <text class="cls-10" transform="translate(250.25 325.39)"><tspan x="0" y="0">r</tspan></text>
    <text class="cls-15" transform="translate(255.74 325.39)"><tspan x="0" y="0">t</tspan></text>
    <text class="cls-15" transform="translate(260.39 325.39)"><tspan x="0" y="0">al has ma</tspan></text>
    <text class="cls-7" transform="translate(323.17 325.39)"><tspan x="0" y="0">n</tspan></text>
    <text class="cls-15" transform="translate(331.24 325.39)"><tspan x="0" y="0">y sections</tspan></text>
    <text class="cls-15" transform="translate(238.38 352.19)"><tspan x="0" y="0">but no cl</tspan></text>
    <text class="cls-15" transform="translate(295.74 352.19)"><tspan x="0" y="0">e</tspan></text>
    <text class="cls-15" transform="translate(304.04 352.19)"><tspan x="0" y="0">ar s</tspan></text>
    <text class="cls-15" transform="translate(328.49 352.19)"><tspan x="0" y="0">t</tspan></text>
    <text class="cls-15" transform="translate(333.14 352.19)"><tspan x="0" y="0">a</tspan></text>
    <text class="cls-10" transform="translate(341 352.19)"><tspan x="0" y="0">r</tspan></text>
    <text class="cls-15" transform="translate(346.49 352.19)"><tspan x="0" y="0">t&quot;</tspan></text>
  </g>
  <rect class="cls-17" x="147.98" y="400" width="300" height="90" rx="7.75" ry="7.75"/>
  <g class="cls-4">
    <text class="cls-15" transform="translate(214.98 435.39)"><tspan x="0" y="0">&quot;I didn&apos;t kn</tspan></text>
    <text class="cls-14" transform="translate(286.68 435.39)"><tspan x="0" y="0">o</tspan></text>
    <text class="cls-15" transform="translate(294.82 435.39)"><tspan x="0" y="0">w o</tspan></text>
    <text class="cls-15" transform="translate(318.61 435.39)"><tspan x="0" y="0">r</tspan></text>
    <text class="cls-15" transform="translate(324.01 435.39)"><tspan x="0" y="0">ien</tspan></text>
    <text class="cls-15" transform="translate(343.84 435.39)"><tspan x="0" y="0">t</tspan></text>
    <text class="cls-15" transform="translate(348.49 435.39)"><tspan x="0" y="0">ation</tspan></text>
    <text class="cls-15" transform="translate(251.79 462.19)"><tspan x="0" y="0">was </tspan></text>
    <text class="cls-14" transform="translate(282.44 462.19)"><tspan x="0" y="0">r</tspan></text>
    <text class="cls-15" transform="translate(287.48 462.19)"><tspan x="0" y="0">equi</tspan></text>
    <text class="cls-14" transform="translate(315.88 462.19)"><tspan x="0" y="0">r</tspan></text>
    <text class="cls-15" transform="translate(320.92 462.19)"><tspan x="0" y="0">ed&quot;</tspan></text>
  </g>
  <rect class="cls-18" x="465" y="180" width="300" height="90" rx="7.75" ry="7.75"/>
  <g class="cls-4">
    <text class="cls-15" transform="translate(540.7 215.39)"><tspan x="0" y="0">&quot;I want </tspan></text>
    <text class="cls-15" transform="translate(591.03 215.39)"><tspan x="0" y="0">t</tspan></text>
    <text class="cls-15" transform="translate(595.47 215.39)"><tspan x="0" y="0">o see h</tspan></text>
    <text class="cls-14" transform="translate(643.73 215.39)"><tspan x="0" y="0">o</tspan></text>
    <text class="cls-15" transform="translate(651.87 215.39)"><tspan x="0" y="0">w </tspan></text>
    <text class="cls-14" transform="translate(667.27 215.39)"><tspan x="0" y="0">f</tspan></text>
    <text class="cls-15" transform="translate(672.23 215.39)"><tspan x="0" y="0">ar </tspan></text>
    <text class="cls-15" transform="translate(547.59 242.19)"><tspan x="0" y="0">I am in the p</tspan></text>
    <text class="cls-14" transform="translate(628.48 242.19)"><tspan x="0" y="0">r</tspan></text>
    <text class="cls-15" transform="translate(633.51 242.19)"><tspan x="0" y="0">ogram&quot;</tspan></text>
  </g>
  <rect class="cls-18" x="465" y="290" width="300" height="90" rx="7.75" ry="7.75"/>
  <g class="cls-4">
    <text class="cls-15" transform="translate(516.45 325.39)"><tspan x="0" y="0">&quot;The p</tspan></text>
    <text class="cls-14" transform="translate(560.96 325.39)"><tspan x="0" y="0">r</tspan></text>
    <text class="cls-15" transform="translate(566 325.39)"><tspan x="0" y="0">og</tspan></text>
    <text class="cls-14" transform="translate(582.98 325.39)"><tspan x="0" y="0">r</tspan></text>
    <text class="cls-15" transform="translate(588.02 325.39)"><tspan x="0" y="0">ess</tspan></text>
    <text class="cls-15" transform="translate(610.96 325.39)"><tspan x="0" y="0">b</tspan></text>
    <text class="cls-15" transform="translate(619.67 325.39)"><tspan x="0" y="0">ar doesn&apos;t </tspan></text>
    <text class="cls-15" transform="translate(690.24 325.39)"><tspan x="0" y="0">t</tspan></text>
    <text class="cls-15" transform="translate(694.68 325.39)"><tspan x="0" y="0">ell </tspan></text>
    <text class="cls-15" transform="translate(562.22 352.19)"><tspan x="0" y="0">me what</tspan></text>
    <text class="cls-12" transform="translate(618.76 352.19)"><tspan x="0" y="0">’</tspan></text>
    <text class="cls-15" transform="translate(621.33 352.19)"><tspan x="0" y="0">s n</tspan></text>
    <text class="cls-14" transform="translate(640.93 352.19)"><tspan x="0" y="0">e</tspan></text>
    <text class="cls-10" transform="translate(648.78 352.19)"><tspan x="0" y="0">x</tspan></text>
    <text class="cls-15" transform="translate(656.7 352.19)"><tspan x="0" y="0">t&quot;</tspan></text>
  </g>
  <rect class="cls-18" x="465" y="400" width="300" height="90" rx="7.75" ry="7.75"/>
  <g class="cls-4">
    <text class="cls-15" transform="translate(554.21 435.39)"><tspan x="0" y="0">&quot;I want miles</tspan></text>
    <text class="cls-15" transform="translate(639.13 435.39)"><tspan x="0" y="0">t</tspan></text>
    <text class="cls-15" transform="translate(643.58 435.39)"><tspan x="0" y="0">ones</tspan></text>
    <text class="cls-15" transform="translate(558.33 462.19)"><tspan x="0" y="0">li</tspan></text>
    <text class="cls-14" transform="translate(565.11 462.19)"><tspan x="0" y="0">k</tspan></text>
    <text class="cls-15" transform="translate(572.48 462.19)"><tspan x="0" y="0">e checkpoin</tspan></text>
    <text class="cls-15" transform="translate(653.32 462.19)"><tspan x="0" y="0">t</tspan></text>
    <text class="cls-15" transform="translate(657.77 462.19)"><tspan x="0" y="0">s&quot;</tspan></text>
  </g>
  <rect class="cls-19" x="782.02" y="180" width="300" height="90" rx="7.75" ry="7.75"/>
  <g class="cls-4">
    <text class="cls-15" transform="translate(853.93 215.39)"><tspan x="0" y="0">&quot;I just need </tspan></text>
    <text class="cls-15" transform="translate(932.83 215.39)"><tspan x="0" y="0">t</tspan></text>
    <text class="cls-15" transform="translate(937.27 215.39)"><tspan x="0" y="0">o kn</tspan></text>
    <text class="cls-14" transform="translate(965.56 215.39)"><tspan x="0" y="0">o</tspan></text>
    <text class="cls-15" transform="translate(973.7 215.39)"><tspan x="0" y="0">w the</tspan></text>
    <text class="cls-15" transform="translate(877.2 242.19)"><tspan x="0" y="0">n</tspan></text>
    <text class="cls-14" transform="translate(885.47 242.19)"><tspan x="0" y="0">e</tspan></text>
    <text class="cls-10" transform="translate(893.32 242.19)"><tspan x="0" y="0">x</tspan></text>
    <text class="cls-15" transform="translate(901.23 242.19)"><tspan x="0" y="0">t thing </tspan></text>
    <text class="cls-15" transform="translate(946.79 242.19)"><tspan x="0" y="0">t</tspan></text>
    <text class="cls-15" transform="translate(951.24 242.19)"><tspan x="0" y="0">o d</tspan></text>
    <text class="cls-7" transform="translate(972.14 242.19)"><tspan x="0" y="0">o</tspan></text>
    <text class="cls-15" transform="translate(980.33 242.19)"><tspan x="0" y="0">&quot;</tspan></text>
  </g>
  <rect class="cls-19" x="782.02" y="290" width="300" height="90" rx="7.75" ry="7.75"/>
  <g class="cls-4">
    <text class="cls-12" transform="translate(855.02 325.39)"><tspan x="0" y="0">&quot;</tspan></text>
    <text class="cls-15" transform="translate(860.43 325.39)"><tspan x="0" y="0">A checklist </tspan></text>
    <text class="cls-14" transform="translate(936.84 325.39)"><tspan x="0" y="0">w</tspan></text>
    <text class="cls-15" transform="translate(948.04 325.39)"><tspan x="0" y="0">ould help</tspan></text>
    <text class="cls-15" transform="translate(873.83 352.19)"><tspan x="0" y="0">me s</tspan></text>
    <text class="cls-15" transform="translate(905.58 352.19)"><tspan x="0" y="0">t</tspan></text>
    <text class="cls-7" transform="translate(910.23 352.19)"><tspan x="0" y="0">a</tspan></text>
    <text class="cls-15" transform="translate(917.89 352.19)"><tspan x="0" y="0">y on track&quot;</tspan></text>
  </g>
  <rect class="cls-19" x="782.02" y="400" width="300" height="90" rx="7.75" ry="7.75"/>
  <g class="cls-4">
    <text class="cls-15" transform="translate(848.73 435.39)"><tspan x="0" y="0">&quot;</tspan></text>
    <text class="cls-7" transform="translate(855.25 435.39)"><tspan x="0" y="0">R</tspan></text>
    <text class="cls-15" transform="translate(864.06 435.39)"><tspan x="0" y="0">eminders </tspan></text>
    <text class="cls-13" transform="translate(929.48 435.39)"><tspan x="0" y="0">f</tspan></text>
    <text class="cls-15" transform="translate(934.25 435.39)"><tspan x="0" y="0">or impo</tspan></text>
    <text class="cls-10" transform="translate(984.47 435.39)"><tspan x="0" y="0">r</tspan></text>
    <text class="cls-15" transform="translate(989.96 435.39)"><tspan x="0" y="0">t</tspan></text>
    <text class="cls-15" transform="translate(994.61 435.39)"><tspan x="0" y="0">ant</tspan></text>
    <text class="cls-15" transform="translate(874.8 462.19)"><tspan x="0" y="0">s</tspan></text>
    <text class="cls-15" transform="translate(882.19 462.19)"><tspan x="0" y="0">t</tspan></text>
    <text class="cls-15" transform="translate(886.63 462.19)"><tspan x="0" y="0">eps</tspan></text>
    <text class="cls-14" transform="translate(910.76 462.19)"><tspan x="0" y="0">w</tspan></text>
    <text class="cls-15" transform="translate(921.96 462.19)"><tspan x="0" y="0">ould hel</tspan></text>
    <text class="cls-7" transform="translate(974.36 462.19)"><tspan x="0" y="0">p</tspan></text>
    <text class="cls-15" transform="translate(982.73 462.19)"><tspan x="0" y="0">&quot;</tspan></text>
  </g>
  <rect class="cls-25" x="310.24" y="556.19" width="607.04" height="109.63" rx="11" ry="11"/>
  <text class="cls-11" transform="translate(546.99 601.04)"><tspan x="0" y="0">Key Insight</tspan></text>
  <text class="cls-9" transform="translate(351.15 637.52)"><tspan x="0" y="0">Studen</tspan><tspan class="cls-23" x="46.85" y="0">t</tspan><tspan x="51.29" y="0">s need a guided onb</tspan><tspan class="cls-26" x="186.26" y="0">o</tspan><tspan x="194.79" y="0">a</tspan><tspan class="cls-22" x="202.65" y="0">r</tspan><tspan x="207.69" y="0">ding fl</tspan><tspan class="cls-20" x="249.02" y="0">o</tspan><tspan x="257.16" y="0">w with miles</tspan><tspan class="cls-23" x="338.8" y="0">t</tspan><tspan x="343.24" y="0">ones and cl</tspan><tspan class="cls-26" x="419.43" y="0">e</tspan><tspan x="427.72" y="0">ar n</tspan><tspan class="cls-21" x="453.07" y="0">e</tspan><tspan class="cls-24" x="460.91" y="0">x</tspan><tspan x="468.83" y="0">t actions</tspan></text>
</svg>