<?xml version="1.0" encoding="UTF-8"?>
<svg id="Layer_1" data-name="Layer 1" xmlns="http://www.w3.org/2000/svg" viewBox="0 0 1391 748.59">
  <defs>
    <style>
      .cls-1, .cls-2, .cls-3, .cls-4, .cls-5 {
        fill: none;
      }

      .cls-2, .cls-3, .cls-4, .cls-5 {
        stroke-linejoin: round;
        stroke-width: 5px;
      }

      .cls-2, .cls-6 {
        stroke: #e81313;
      }

      .cls-3, .cls-7 {
        stroke: #ba23f6;
      }

      .cls-8 {
        fill: #635dff;
      }

      .cls-8, .cls-9, .cls-6, .cls-7 {
        stroke-width: .05px;
      }

      .cls-8, .cls-5 {
        stroke: #635dff;
      }

      .cls-9 {
        fill: #d916a8;
      }

      .cls-9, .cls-4 {
        stroke: #d916a8;
      }

      .cls-10 {
        fill: #fff;
      }

      .cls-6 {
        fill: #e81313;
      }

      .cls-11 {
        fill: #3a414a;
      }

      .cls-7 {
        fill: #ba23f6;
      }
    </style>
  </defs>
  <g>
    <path class="cls-11" d="M61.83,101.97c0-3.31,2.69-6,6-6h758.18c3.31,0,6,2.69,6,6v68.4c0,3.31-2.69,6-6,6H67.83c-3.31,0-6-2.69-6-6v-68.4Z"/>
    <path id="y" class="cls-10" d="M90.66,151.53c-6.31,0-10.23-3.24-10.57-8.12h3.81c.29,3.3,3.34,4.8,6.76,4.8,3.95,0,6.95-2.07,6.95-5.18.1-3.96-5.74-4.65-9.28-5.72-4.67-1.43-7.42-3.73-7.42-7.6,0-4.92,4.38-8.18,10-8.18s9.75,3.34,9.92,7.73h-3.63c-.33-2.83-2.95-4.45-6.41-4.45-3.77,0-6.27,1.99-6.27,4.73,0,3.05,3.42,4.12,5.55,4.71l2.91.8c3.12.86,8.24,2.62,8.24,8.05,0,4.77-3.85,8.44-10.57,8.44"/>
    <path id="z" class="cls-10" d="M115.17,129.19v3.01h-4.49v13.16c0,1.95.72,2.81,2.58,2.81.45,0,1.21-.12,1.8-.23l.72,2.97c-.72.25-1.72.39-2.62.39-3.77,0-6-2.09-6-5.66v-13.44h-3.28v-3.01h3.28v-5.2h3.52v5.2h4.49"/>
    <path id="A" class="cls-10" d="M127.07,151.3c-4.41,0-7.4-2.71-7.4-8.24v-13.87h3.52v13.57c0,3.36,1.89,5.37,4.94,5.37s5.49-2.13,5.49-5.86v-13.09h3.54v21.84h-3.4v-4.08c-1.43,3.18-3.81,4.36-6.68,4.36"/>
    <path id="B" class="cls-10" d="M151.5,151.49c-5.45,0-9.24-4.38-9.24-11.33s3.81-11.25,9.26-11.25c4.26,0,5.61,2.62,6.33,3.77h.27v-10.76h3.52v29.1h-3.4v-3.38h-.39c-.72,1.21-2.19,3.85-6.35,3.85ZM152.03,148.35c3.96,0,6.13-3.36,6.13-8.22s-2.11-8.07-6.13-8.07-6.19,3.54-6.19,8.07,2.11,8.22,6.19,8.22"/>
    <path id="C" class="cls-10" d="M176.99,151.49c-6.33,0-10.23-4.49-10.23-11.21s3.87-11.37,9.82-11.37c4.63,0,9.51,2.85,9.51,10.92v1.46h-15.78c.18,4.57,2.83,7.07,6.7,7.07,2.58,0,4.51-1.13,5.33-3.36l3.4.94c-1.02,3.3-4.28,5.55-8.75,5.55ZM170.33,138.33h12.19c-.33-3.71-2.34-6.29-5.94-6.29s-6.04,2.95-6.25,6.29"/>
    <path id="D" class="cls-10" d="M194.65,137.94v13.09h-3.52v-21.84h3.38l.02,4.04c1.41-3.09,3.75-4.32,6.68-4.32,4.41,0,7.38,2.71,7.38,8.24v13.87h-3.52v-13.57c0-3.36-1.88-5.37-4.92-5.37s-5.51,2.13-5.51,5.86"/>
    <path id="z-2" data-name="z" class="cls-10" d="M223.36,129.19v3.01h-4.49v13.16c0,1.95.72,2.81,2.58,2.81.45,0,1.21-.12,1.8-.23l.72,2.97c-.72.25-1.72.39-2.62.39-3.77,0-6-2.09-6-5.66v-13.44h-3.28v-3.01h3.28v-5.2h3.52v5.2h4.49"/>
    <path id="E" class="cls-10" d="M239.53,151.02v-29.1h9.96c6.8,0,9.92,4.08,9.92,9.26s-3.12,9.32-9.9,9.32h-6.27v10.53h-3.71ZM243.24,137.23h6.09c4.61,0,6.39-2.6,6.39-6.05s-1.78-6-6.43-6h-6.05v12.05"/>
    <path id="F" class="cls-10" d="M273.32,151.49c-5.94,0-9.94-4.51-9.94-11.25s4-11.33,9.94-11.33,9.98,4.49,9.98,11.33-4.02,11.25-9.98,11.25ZM273.32,148.35c4.41,0,6.43-3.81,6.43-8.11s-2.01-8.18-6.43-8.18-6.37,3.83-6.37,8.18,2.01,8.11,6.37,8.11"/>
    <path id="G" class="cls-10" d="M288.42,151.02v-21.84h3.4v3.36h.23c.8-2.21,3.07-3.67,5.66-3.67.51,0,1.37.04,1.78.06v3.54c-.21-.04-1.17-.2-2.11-.2-3.14,0-5.45,2.13-5.45,5.08v13.67h-3.52"/>
    <path id="z-3" data-name="z" class="cls-10" d="M312.69,129.19v3.01h-4.49v13.16c0,1.95.72,2.81,2.58,2.81.45,0,1.21-.12,1.8-.23l.72,2.97c-.72.25-1.72.39-2.62.39-3.77,0-6-2.09-6-5.66v-13.44h-3.28v-3.01h3.28v-5.2h3.52v5.2h4.49"/>
    <path id="H" class="cls-10" d="M323.49,151.53c-4.14,0-7.44-2.42-7.44-6.72,0-5,4.45-5.92,8.5-6.43,3.95-.53,5.61-.31,5.61-2.11,0-2.71-1.54-4.28-4.57-4.28s-4.84,1.68-5.53,3.2l-3.38-1.11c1.68-3.96,5.43-5.18,8.81-5.18,2.93,0,8.18.9,8.18,7.71v14.39h-3.46v-2.97h-.23c-.74,1.54-2.79,3.48-6.48,3.48ZM324.1,148.43c3.89,0,6.05-2.62,6.05-5.29v-3.03c-.59.68-4.41,1.07-5.76,1.25-2.56.33-4.8,1.15-4.8,3.63,0,2.27,1.89,3.44,4.51,3.44"/>
    <path id="I" class="cls-10" d="M343.36,121.92v29.1h-3.52v-29.1h3.52"/>
    <path id="J" class="cls-10" d="M364.92,121.92v29.1h-3.71v-29.1h3.71"/>
    <path id="D-2" data-name="D" class="cls-10" d="M375.04,137.94v13.09h-3.52v-21.84h3.38l.02,4.04c1.41-3.09,3.75-4.32,6.68-4.32,4.41,0,7.38,2.71,7.38,8.24v13.87h-3.52v-13.57c0-3.36-1.88-5.37-4.92-5.37s-5.51,2.13-5.51,5.86"/>
    <path id="K" class="cls-10" d="M405.31,129.19v3.01h-5.04v18.83h-3.52v-18.83h-4.3v-3.01h4.3v-2.91c0-3.79,3.03-5.72,6.21-5.72,1.66,0,2.75.35,3.28.59l-.98,3.01c-.37-.12-.92-.33-1.89-.33-2.17,0-3.11,1.13-3.11,3.24v2.13h5.04"/>
    <path id="F-2" data-name="F" class="cls-10" d="M417.67,151.49c-5.94,0-9.94-4.51-9.94-11.25s4-11.33,9.94-11.33,9.98,4.49,9.98,11.33-4.02,11.25-9.98,11.25ZM417.67,148.35c4.41,0,6.43-3.81,6.43-8.11s-2.01-8.18-6.43-8.18-6.37,3.83-6.37,8.18,2.01,8.11,6.37,8.11"/>
    <path id="G-2" data-name="G" class="cls-10" d="M432.77,151.02v-21.84h3.4v3.36h.23c.8-2.21,3.07-3.67,5.66-3.67.51,0,1.37.04,1.78.06v3.54c-.21-.04-1.17-.2-2.11-.2-3.14,0-5.45,2.13-5.45,5.08v13.67h-3.52"/>
    <path id="L" class="cls-10" d="M448.46,151.02v-21.84h3.42l.02,4c1.07-2.95,3.54-4.39,6.11-4.39,2.87,0,4.79,1.76,5.57,4.45,1.04-2.75,3.71-4.45,6.88-4.45,3.79,0,6.88,2.44,6.88,7.5v14.73h-3.54v-14.63c0-3.14-2.05-4.39-4.39-4.39-2.95,0-4.75,2.01-4.75,4.77v14.26h-3.52v-14.98c0-2.42-1.82-4.04-4.28-4.04s-4.88,1.8-4.88,5.27v13.75h-3.52"/>
    <path id="H-2" data-name="H" class="cls-10" d="M489.61,151.53c-4.14,0-7.44-2.42-7.44-6.72,0-5,4.45-5.92,8.5-6.43,3.95-.53,5.61-.31,5.61-2.11,0-2.71-1.54-4.28-4.57-4.28s-4.84,1.68-5.53,3.2l-3.38-1.11c1.68-3.96,5.43-5.18,8.81-5.18,2.93,0,8.18.9,8.18,7.71v14.39h-3.46v-2.97h-.23c-.74,1.54-2.79,3.48-6.48,3.48ZM490.21,148.43c3.89,0,6.05-2.62,6.05-5.29v-3.03c-.59.68-4.41,1.07-5.76,1.25-2.56.33-4.8,1.15-4.8,3.63,0,2.27,1.89,3.44,4.51,3.44"/>
    <path id="z-4" data-name="z" class="cls-10" d="M514.55,129.19v3.01h-4.49v13.16c0,1.95.72,2.81,2.58,2.81.45,0,1.21-.12,1.8-.23l.72,2.97c-.72.25-1.72.39-2.62.39-3.77,0-6-2.09-6-5.66v-13.44h-3.28v-3.01h3.28v-5.2h3.52v5.2h4.49"/>
    <path id="M" class="cls-10" d="M519.04,151.02v-21.84h3.52v21.84h-3.52ZM520.82,125.61c-1.33,0-2.44-1.04-2.44-2.32s1.11-2.32,2.44-2.32,2.46,1.04,2.46,2.32-1.11,2.32-2.46,2.32"/>
    <path id="F-3" data-name="F" class="cls-10" d="M537.62,151.49c-5.94,0-9.94-4.51-9.94-11.25s4-11.33,9.94-11.33,9.98,4.49,9.98,11.33-4.02,11.25-9.98,11.25ZM537.62,148.35c4.41,0,6.43-3.81,6.43-8.11s-2.01-8.18-6.43-8.18-6.37,3.83-6.37,8.18,2.01,8.11,6.37,8.11"/>
    <path id="D-3" data-name="D" class="cls-10" d="M556.23,137.94v13.09h-3.52v-21.84h3.38l.02,4.04c1.41-3.09,3.75-4.32,6.68-4.32,4.41,0,7.38,2.71,7.38,8.24v13.87h-3.52v-13.57c0-3.36-1.88-5.37-4.92-5.37s-5.51,2.13-5.51,5.86"/>
    <path id="N" class="cls-10" d="M585.53,151.02l10.57-29.1h4.3l10.7,29.1h-3.91l-2.91-8.12h-11.99l-2.81,8.12h-3.95ZM593.42,139.66h9.71c-2.01-5.66-2.83-7.62-4.9-14.77-2.11,7.36-2.83,8.98-4.8,14.77"/>
    <path id="G-3" data-name="G" class="cls-10" d="M615.19,151.02v-21.84h3.4v3.36h.23c.8-2.21,3.07-3.67,5.66-3.67.51,0,1.37.04,1.78.06v3.54c-.21-.04-1.17-.2-2.11-.2-3.14,0-5.45,2.13-5.45,5.08v13.67h-3.52"/>
    <path id="O" class="cls-10" d="M638.48,151.49c-5.94,0-9.94-4.51-9.94-11.25s4-11.33,9.94-11.33c4.22,0,7.66,2.23,8.85,6.04l-3.38.96c-.64-2.25-2.6-3.85-5.47-3.85-4.36,0-6.37,3.83-6.37,8.18s2.01,8.11,6.37,8.11c2.93,0,4.92-1.66,5.57-4.02l3.36.96c-1.17,3.89-4.65,6.21-8.93,6.21"/>
    <path id="P" class="cls-10" d="M655.96,137.94v13.09h-3.52v-29.1h3.52v11.05c1.43-2.91,3.71-4.06,6.56-4.06,4.41,0,7.4,2.71,7.4,8.24v13.87h-3.54v-13.57c0-3.36-1.88-5.37-4.92-5.37s-5.51,2.13-5.51,5.86"/>
    <path id="M-2" data-name="M" class="cls-10" d="M676.09,151.02v-21.84h3.52v21.84h-3.52ZM677.87,125.61c-1.33,0-2.44-1.04-2.44-2.32s1.11-2.32,2.44-2.32,2.46,1.04,2.46,2.32-1.11,2.32-2.46,2.32"/>
    <path id="z-5" data-name="z" class="cls-10" d="M694.37,129.19v3.01h-4.49v13.16c0,1.95.72,2.81,2.58,2.81.45,0,1.21-.12,1.8-.23l.72,2.97c-.72.25-1.72.39-2.62.39-3.77,0-6-2.09-6-5.66v-13.44h-3.28v-3.01h3.28v-5.2h3.52v5.2h4.49"/>
    <path id="C-2" data-name="C" class="cls-10" d="M707.65,151.49c-6.33,0-10.23-4.49-10.23-11.21s3.87-11.37,9.82-11.37c4.63,0,9.51,2.85,9.51,10.92v1.46h-15.78c.18,4.57,2.83,7.07,6.7,7.07,2.58,0,4.51-1.13,5.33-3.36l3.4.94c-1.02,3.3-4.28,5.55-8.75,5.55ZM700.99,138.33h12.19c-.33-3.71-2.34-6.29-5.94-6.29s-6.04,2.95-6.25,6.29"/>
    <path id="O-2" data-name="O" class="cls-10" d="M730.68,151.49c-5.94,0-9.94-4.51-9.94-11.25s4-11.33,9.94-11.33c4.22,0,7.66,2.23,8.85,6.04l-3.38.96c-.64-2.25-2.6-3.85-5.47-3.85-4.36,0-6.37,3.83-6.37,8.18s2.01,8.11,6.37,8.11c2.93,0,4.92-1.66,5.57-4.02l3.36.96c-1.17,3.89-4.65,6.21-8.93,6.21"/>
    <path id="z-6" data-name="z" class="cls-10" d="M753.24,129.19v3.01h-4.49v13.16c0,1.95.72,2.81,2.58,2.81.45,0,1.21-.12,1.8-.23l.72,2.97c-.72.25-1.72.39-2.62.39-3.77,0-6-2.09-6-5.66v-13.44h-3.28v-3.01h3.28v-5.2h3.52v5.2h4.49"/>
    <path id="A-2" data-name="A" class="cls-10" d="M765.14,151.3c-4.41,0-7.4-2.71-7.4-8.24v-13.87h3.52v13.57c0,3.36,1.89,5.37,4.94,5.37s5.49-2.13,5.49-5.86v-13.09h3.54v21.84h-3.4v-4.08c-1.43,3.18-3.81,4.36-6.68,4.36"/>
    <path id="G-4" data-name="G" class="cls-10" d="M781.39,151.02v-21.84h3.4v3.36h.23c.8-2.21,3.07-3.67,5.66-3.67.51,0,1.37.04,1.78.06v3.54c-.21-.04-1.17-.2-2.11-.2-3.14,0-5.45,2.13-5.45,5.08v13.67h-3.52"/>
    <path id="C-3" data-name="C" class="cls-10" d="M804.96,151.49c-6.33,0-10.23-4.49-10.23-11.21s3.87-11.37,9.82-11.37c4.63,0,9.51,2.85,9.51,10.92v1.46h-15.78c.18,4.57,2.83,7.07,6.7,7.07,2.58,0,4.51-1.13,5.33-3.36l3.4.94c-1.02,3.3-4.28,5.55-8.75,5.55ZM798.3,138.33h12.19c-.33-3.71-2.34-6.29-5.94-6.29s-6.04,2.95-6.25,6.29"/>
  </g>
  <path class="cls-3" d="M396.2,439.68l-1.8.1-2.06.22-2,.3-1.98.37-1.94.45-1.92.53-1.9.62-1.9.7-1.9.8-1.9.9-1.92,1-1.95,1.13-1.97,1.26-2.03,1.4-2.1,1.6-2.15,1.78-2.25,2.02-2.35,2.3-2.5,2.66-2.65,3.1-2.87,3.6-3.14,4.34-3.53,5.3-4.08,6.75-5.02,9.14-7.2,14.6-28.2,61-5,9.13-4.08,6.74-3.52,5.3-3.14,4.34-2.87,3.63-2.66,3.1-2.48,2.64-2.35,2.3-2.25,2.03-2.16,1.8-2.1,1.58-2.02,1.4-1.98,1.27-1.95,1.12-1.9,1-1.92.9-1.9.8-1.9.7-1.9.63-1.9.53-1.95.46-1.97.36-2,.3-2.07.22-1.82.1"/>
  <path class="cls-7" d="M398.72,442.08l-2.53.05-.1-4.95,2.62-.05v4.95ZM241.27,622.61h-2.56v-4.95h2.55v4.95Z"/>
  <path class="cls-1" d="M1214.66,522.3h122.18v60.27h-122.17v-60.27Z"/>
  <path id="W" d="M1235.09,558.89l4.42-12.18h1.8l4.48,12.18h-1.63l-1.22-3.4h-5.02l-1.18,3.4h-1.65ZM1238.39,554.14h4.06c-.84-2.37-1.19-3.19-2.05-6.18-.88,3.08-1.19,3.76-2.01,6.18"/>
  <path id="X" d="M1250.93,559.09c-2.28,0-3.87-1.83-3.87-4.74s1.59-4.71,3.87-4.71c1.78,0,2.35,1.1,2.65,1.58h.11v-4.5h1.47v12.18h-1.42v-1.41h-.16c-.3.51-.92,1.61-2.66,1.61ZM1251.15,557.77c1.66,0,2.57-1.41,2.57-3.44s-.88-3.38-2.57-3.38-2.59,1.48-2.59,3.38.88,3.44,2.59,3.44"/>
  <path id="Y" d="M1257.76,558.89v-9.14h1.43v1.68c.46-1.23,1.49-1.84,2.57-1.84,1.2,0,2,.74,2.33,1.86.43-1.15,1.55-1.86,2.88-1.86,1.59,0,2.88,1.02,2.88,3.14v6.16h-1.48v-6.12c0-1.32-.86-1.84-1.84-1.84-1.23,0-1.99.84-1.99,1.99v5.97h-1.47v-6.27c0-1.01-.76-1.69-1.79-1.69s-2.04.75-2.04,2.21v5.75h-1.47"/>
  <path id="Z" d="M1272.42,558.89v-9.14h1.47v9.14h-1.47ZM1273.16,548.26c-.56,0-1.02-.43-1.02-.97s.47-.97,1.02-.97,1.03.43,1.03.97-.47.97-1.03.97"/>
  <path id="V" d="M1279.58,559.09c-1.88,0-3.19-.83-3.51-2.41l1.4-.34c.26,1.01,1.01,1.45,2.1,1.45,1.28,0,2.09-.63,2.09-1.38,0-.63-.44-1.05-1.34-1.26l-1.52-.36c-1.66-.39-2.45-1.21-2.45-2.49,0-1.57,1.44-2.66,3.38-2.66s2.87.92,3.29,2.2l-1.33.34c-.25-.65-.77-1.29-1.95-1.29-1.09,0-1.9.56-1.9,1.32,0,.68.47,1.05,1.54,1.31l1.38.33c1.66.39,2.44,1.22,2.44,2.47,0,1.6-1.46,2.77-3.6,2.77"/>
  <path id="V-2" data-name="V" d="M1288.42,559.09c-1.88,0-3.19-.83-3.51-2.41l1.4-.34c.26,1.01,1.01,1.45,2.1,1.45,1.28,0,2.09-.63,2.09-1.38,0-.63-.44-1.05-1.34-1.26l-1.52-.36c-1.66-.39-2.45-1.21-2.45-2.49,0-1.57,1.44-2.66,3.38-2.66s2.87.92,3.29,2.2l-1.33.34c-.25-.65-.77-1.29-1.95-1.29-1.09,0-1.9.56-1.9,1.32,0,.68.47,1.05,1.54,1.31l1.38.33c1.66.39,2.44,1.22,2.44,2.47,0,1.6-1.46,2.77-3.6,2.77"/>
  <path id="Z-2" data-name="Z" d="M1294.15,558.89v-9.14h1.47v9.14h-1.47ZM1294.89,548.26c-.56,0-1.02-.43-1.02-.97s.47-.97,1.02-.97,1.03.43,1.03.97-.47.97-1.03.97"/>
  <path id="S" d="M1301.92,559.09c-2.48,0-4.16-1.89-4.16-4.71s1.68-4.74,4.16-4.74,4.18,1.88,4.18,4.74-1.68,4.71-4.18,4.71ZM1301.92,557.77c1.85,0,2.69-1.59,2.69-3.39s-.84-3.42-2.69-3.42-2.66,1.6-2.66,3.42.84,3.39,2.66,3.39"/>
  <path id="aa" d="M1309.71,553.42v5.48h-1.47v-9.14h1.41v1.69c.6-1.29,1.58-1.81,2.8-1.81,1.85,0,3.09,1.14,3.09,3.45v5.8h-1.47v-5.68c0-1.41-.78-2.25-2.06-2.25s-2.31.89-2.31,2.45"/>
  <path class="cls-1" d="M1214.66,161.24h110.85v60.27h-110.85v-60.27Z"/>
  <path id="ab" d="M1238.41,197.84l-3.32-12.18h1.59c.88,3.59,1.9,6.99,2.65,10.73.75-3.75,1.81-7.14,2.71-10.73h1.77c.9,3.58,1.91,6.98,2.7,10.68.75-3.72,1.77-7.1,2.64-10.68h1.6l-3.33,12.18h-1.81l-2.09-7.72c-.21-.78-.41-1.63-.6-2.71-.18,1-.36,1.82-.6,2.71l-2.08,7.72h-1.81"/>
  <path id="U" d="M1255.44,198.03c-2.65,0-4.28-1.88-4.28-4.69s1.62-4.76,4.11-4.76c1.94,0,3.98,1.19,3.98,4.57v.61h-6.6c.07,1.91,1.19,2.96,2.8,2.96,1.08,0,1.89-.47,2.23-1.41l1.42.39c-.43,1.38-1.79,2.32-3.66,2.32ZM1252.65,192.52h5.1c-.14-1.55-.98-2.63-2.48-2.63s-2.53,1.23-2.62,2.63"/>
  <path id="ac" d="M1262.83,185.66v12.18h-1.47v-12.18h1.47"/>
  <path id="ac-2" data-name="ac" d="M1266.89,185.66v12.18h-1.47v-12.18h1.47"/>
  <path id="aa-2" data-name="aa" d="M1270.94,192.36v5.48h-1.47v-9.14h1.41v1.69c.6-1.29,1.58-1.81,2.8-1.81,1.85,0,3.09,1.14,3.09,3.45v5.8h-1.47v-5.68c0-1.41-.78-2.25-2.06-2.25s-2.31.89-2.31,2.45"/>
  <path id="U-2" data-name="U" d="M1283.2,198.03c-2.65,0-4.28-1.88-4.28-4.69s1.62-4.76,4.11-4.76c1.94,0,3.98,1.19,3.98,4.57v.61h-6.6c.07,1.91,1.19,2.96,2.8,2.96,1.08,0,1.89-.47,2.23-1.41l1.42.39c-.43,1.38-1.79,2.32-3.66,2.32ZM1280.41,192.52h5.1c-.14-1.55-.98-2.63-2.48-2.63s-2.53,1.23-2.62,2.63"/>
  <path id="V-3" data-name="V" d="M1292.22,198.03c-1.88,0-3.19-.83-3.51-2.41l1.4-.34c.26,1.01,1.01,1.45,2.1,1.45,1.28,0,2.09-.63,2.09-1.38,0-.63-.44-1.05-1.34-1.26l-1.52-.36c-1.66-.39-2.45-1.21-2.45-2.49,0-1.57,1.44-2.66,3.38-2.66s2.87.92,3.29,2.2l-1.33.34c-.25-.65-.77-1.29-1.95-1.29-1.09,0-1.9.56-1.9,1.32,0,.68.47,1.05,1.54,1.31l1.38.33c1.66.39,2.44,1.22,2.44,2.47,0,1.6-1.46,2.77-3.6,2.77"/>
  <path id="V-4" data-name="V" d="M1301.06,198.03c-1.88,0-3.19-.83-3.51-2.41l1.4-.34c.26,1.01,1.01,1.45,2.1,1.45,1.28,0,2.09-.63,2.09-1.38,0-.63-.44-1.05-1.34-1.26l-1.52-.36c-1.66-.39-2.45-1.21-2.45-2.49,0-1.57,1.44-2.66,3.38-2.66s2.87.92,3.29,2.2l-1.33.34c-.25-.65-.77-1.29-1.95-1.29-1.09,0-1.9.56-1.9,1.32,0,.68.47,1.05,1.54,1.31l1.38.33c1.66.39,2.44,1.22,2.44,2.47,0,1.6-1.46,2.77-3.6,2.77"/>
  <path class="cls-5" d="M1068.17,326.86l.97.06,1.68.17,1.64.26,1.63.3,1.6.38,1.6.45,1.6.5,1.6.6,1.6.68,1.63.76,1.64.86,1.67.97,1.7,1.1,1.76,1.2,1.8,1.38,1.9,1.56,1.94,1.77,2.06,2,2.16,2.32,2.3,2.66,2.47,3.1,2.66,3.7,2.93,4.4,3.26,5.4,3.72,6.8,4.4,8.88,5.57,12.57,8.64,22,27.3,73.84,5.58,12.57,4.4,8.9,3.72,6.78,3.27,5.4,2.93,4.42,2.67,3.68,2.47,3.1,2.3,2.68,2.16,2.3,2.06,2.02,1.95,1.76,1.9,1.56,1.8,1.37,1.76,1.23,1.7,1.08,1.68.97,1.64.86,1.63.77,1.6.68,1.6.6,1.6.5,1.6.45,1.6.38,1.64.3,1.64.25,1.68.18.97.07"/>
  <path class="cls-8" d="M1068.29,324.35l-.1,4.95-2.52-.05v-4.95l2.62.05ZM1225.67,549.96v4.95h-2.56v-4.95h2.56Z"/>
  <path class="cls-1" d="M1214.66,432.04h95.45v60.26h-95.45v-60.26Z"/>
  <path id="ad" d="M1236.14,468.63v-12.18h1.55v10.81h5.64v1.37h-7.19"/>
  <path id="Z-3" data-name="Z" d="M1245.42,468.63v-9.14h1.47v9.14h-1.47ZM1246.16,458c-.56,0-1.02-.43-1.02-.97s.47-.97,1.02-.97,1.03.43,1.03.97-.47.97-1.03.97"/>
  <path id="ae" d="M1253.72,468.83c-1.74,0-2.35-1.1-2.66-1.61h-.16v1.41h-1.42v-12.18h1.47v4.5h.11c.3-.48.87-1.58,2.65-1.58,2.28,0,3.87,1.81,3.87,4.71s-1.59,4.74-3.87,4.74ZM1253.5,467.51c1.71,0,2.59-1.52,2.59-3.44s-.86-3.38-2.59-3.38-2.57,1.36-2.57,3.38.91,3.44,2.57,3.44"/>
  <path id="R" d="M1259.73,468.63v-9.14h1.42v1.41h.1c.34-.92,1.28-1.54,2.37-1.54.21,0,.57.02.74.02v1.48c-.09-.02-.49-.08-.88-.08-1.32,0-2.28.89-2.28,2.13v5.72h-1.47"/>
  <path id="af" d="M1268.59,468.84c-1.73,0-3.11-1.01-3.11-2.81,0-2.09,1.86-2.48,3.56-2.69,1.65-.22,2.35-.13,2.35-.88,0-1.14-.65-1.79-1.91-1.79s-2.03.7-2.31,1.34l-1.41-.47c.7-1.66,2.27-2.17,3.69-2.17,1.23,0,3.42.38,3.42,3.23v6.02h-1.45v-1.24h-.1c-.31.65-1.17,1.45-2.71,1.45ZM1268.84,467.54c1.63,0,2.53-1.1,2.53-2.22v-1.27c-.25.29-1.85.45-2.41.52-1.07.14-2.01.48-2.01,1.52,0,.95.79,1.44,1.89,1.44"/>
  <path id="R-2" data-name="R" d="M1275.43,468.63v-9.14h1.42v1.41h.1c.34-.92,1.28-1.54,2.37-1.54.21,0,.57.02.74.02v1.48c-.09-.02-.49-.08-.88-.08-1.32,0-2.28.89-2.28,2.13v5.72h-1.47"/>
  <path id="ag" d="M1281.84,471.94l.38-1.28c.98.29,1.68.16,2.15-1.23l.26-.76-3.49-9.19h1.61c.87,2.56,1.94,5.07,2.65,7.77.71-2.71,1.79-5.21,2.66-7.77h1.6l-4.01,10.5c-.56,1.45-1.44,2.12-2.73,2.12-.52,0-.92-.1-1.08-.17"/>
  <path class="cls-1" d="M1214.66,70.98h93.48v60.26h-93.47v-60.26Z"/>
  <path id="ah" d="M1241.06,107.73c-3.12,0-5.4-2.39-5.4-6.24s2.28-6.26,5.4-6.26c2.47,0,4.48,1.49,4.91,4h-1.55c-.34-1.67-1.77-2.56-3.36-2.56-2.19,0-3.89,1.7-3.89,4.82s1.71,4.81,3.89,4.81c1.59,0,3.02-.9,3.36-2.56h1.55c-.43,2.48-2.42,4-4.91,4"/>
  <path id="af-2" data-name="af" d="M1250.74,107.78c-1.73,0-3.11-1.01-3.11-2.81,0-2.09,1.86-2.48,3.56-2.69,1.65-.22,2.35-.13,2.35-.88,0-1.14-.65-1.79-1.91-1.79s-2.03.7-2.31,1.34l-1.41-.47c.7-1.66,2.27-2.17,3.69-2.17,1.23,0,3.42.38,3.42,3.23v6.02h-1.45v-1.24h-.1c-.31.65-1.17,1.45-2.71,1.45ZM1251,106.48c1.63,0,2.53-1.1,2.53-2.22v-1.27c-.25.29-1.85.45-2.41.52-1.07.14-2.01.48-2.01,1.52,0,.95.79,1.44,1.89,1.44"/>
  <path id="R-3" data-name="R" d="M1257.58,107.57v-9.14h1.42v1.41h.1c.34-.92,1.28-1.54,2.37-1.54.21,0,.57.02.74.02v1.48c-.09-.02-.49-.08-.88-.08-1.32,0-2.28.89-2.28,2.13v5.72h-1.47"/>
  <path id="U-3" data-name="U" d="M1267.45,107.77c-2.65,0-4.28-1.88-4.28-4.69s1.62-4.76,4.11-4.76c1.94,0,3.98,1.19,3.98,4.57v.61h-6.6c.07,1.91,1.19,2.96,2.8,2.96,1.08,0,1.89-.47,2.23-1.41l1.42.39c-.43,1.38-1.79,2.32-3.66,2.32ZM1264.66,102.26h5.1c-.14-1.55-.98-2.63-2.48-2.63s-2.53,1.23-2.62,2.63"/>
  <path id="U-4" data-name="U" d="M1277.21,107.77c-2.65,0-4.28-1.88-4.28-4.69s1.62-4.76,4.11-4.76c1.94,0,3.98,1.19,3.98,4.57v.61h-6.6c.07,1.91,1.19,2.96,2.8,2.96,1.08,0,1.89-.47,2.23-1.41l1.42.39c-.43,1.38-1.79,2.32-3.66,2.32ZM1274.42,102.26h5.1c-.14-1.55-.98-2.63-2.48-2.63s-2.53,1.23-2.62,2.63"/>
  <path id="R-4" data-name="R" d="M1283.13,107.57v-9.14h1.42v1.41h.1c.34-.92,1.28-1.54,2.37-1.54.21,0,.57.02.74.02v1.48c-.09-.02-.49-.08-.88-.08-1.32,0-2.28.89-2.28,2.13v5.72h-1.47"/>
  <path class="cls-1" d="M154.09,409.48h84.62v60.26h-84.63v-60.26Z"/>
  <path id="ai" d="M175.96,446.06v-12.18h1.83l4.95,7.79c.33.51.88,1.45,1.44,2.55-.22-3.57-.06-6.71-.11-10.34h1.55v12.18h-1.85c-2.26-3.66-4.21-6.36-6.38-10.32.22,3.89.09,6.47.12,10.32h-1.56"/>
  <path id="U-5" data-name="U" d="M192.23,446.26c-2.65,0-4.28-1.88-4.28-4.69s1.62-4.76,4.11-4.76c1.94,0,3.98,1.19,3.98,4.57v.61h-6.6c.07,1.91,1.19,2.96,2.8,2.96,1.08,0,1.89-.47,2.23-1.41l1.42.39c-.43,1.38-1.79,2.32-3.66,2.32ZM189.45,440.75h5.1c-.14-1.55-.98-2.63-2.48-2.63s-2.53,1.23-2.62,2.63"/>
  <path id="aj" d="M199.9,446.06l-2.77-9.14h1.56c.73,2.69,1.35,4.58,1.99,7.56.61-2.89,1.26-4.91,1.96-7.56h1.57c.69,2.66,1.32,4.61,1.92,7.54.63-2.89,1.28-4.89,1.99-7.54h1.56l-2.77,9.14h-1.46c-.7-2.51-1.44-4.82-2.04-7.46-.61,2.66-1.33,4.95-2.04,7.46h-1.46"/>
  <path id="V-5" data-name="V" d="M214.65,446.26c-1.88,0-3.19-.83-3.51-2.41l1.4-.34c.26,1.01,1.01,1.45,2.1,1.45,1.28,0,2.09-.63,2.09-1.38,0-.63-.44-1.05-1.34-1.26l-1.52-.36c-1.66-.39-2.45-1.21-2.45-2.49,0-1.57,1.44-2.66,3.38-2.66s2.87.92,3.29,2.2l-1.33.34c-.25-.65-.77-1.29-1.95-1.29-1.09,0-1.9.56-1.9,1.32,0,.68.47,1.05,1.54,1.31l1.38.33c1.66.39,2.44,1.22,2.44,2.47,0,1.6-1.46,2.77-3.6,2.77"/>
  <path class="cls-1" d="M1214.66,341.78h105.6v60.26h-105.6v-60.26Z"/>
  <path id="ak" d="M1235.47,367.56v-1.37h9.2v1.37h-3.82v10.81h-1.55v-10.81h-3.83"/>
  <path id="al" d="M1248.63,378.48c-1.85,0-3.1-1.14-3.1-3.45v-5.8h1.47v5.68c0,1.41.79,2.25,2.07,2.25s2.3-.89,2.3-2.45v-5.48h1.48v9.14h-1.42v-1.71c-.6,1.33-1.59,1.82-2.8,1.82"/>
  <path id="am" d="M1259.02,369.23v1.26h-1.88v5.51c0,.82.3,1.18,1.08,1.18.19,0,.51-.05.75-.1l.3,1.24c-.3.11-.72.16-1.1.16-1.58,0-2.51-.87-2.51-2.37v-5.62h-1.37v-1.26h1.37v-2.17h1.47v2.17h1.88"/>
  <path id="S-2" data-name="S" d="M1264.46,378.56c-2.48,0-4.16-1.89-4.16-4.71s1.68-4.74,4.16-4.74,4.18,1.88,4.18,4.74-1.68,4.71-4.18,4.71ZM1264.46,377.24c1.85,0,2.69-1.59,2.69-3.39s-.84-3.42-2.69-3.42-2.66,1.6-2.66,3.42.84,3.39,2.66,3.39"/>
  <path id="R-5" data-name="R" d="M1270.78,378.36v-9.14h1.42v1.41h.1c.34-.92,1.28-1.54,2.37-1.54.21,0,.57.02.74.02v1.48c-.09-.02-.49-.08-.88-.08-1.32,0-2.28.89-2.28,2.13v5.72h-1.47"/>
  <path id="Z-4" data-name="Z" d="M1277.34,378.36v-9.14h1.47v9.14h-1.47ZM1278.08,367.73c-.56,0-1.02-.43-1.02-.97s.47-.97,1.02-.97,1.03.43,1.03.97-.47.97-1.03.97"/>
  <path id="aa-3" data-name="aa" d="M1282.87,372.89v5.48h-1.47v-9.14h1.41v1.69c.6-1.29,1.58-1.81,2.8-1.81,1.85,0,3.09,1.14,3.09,3.45v5.8h-1.47v-5.68c0-1.41-.78-2.25-2.06-2.25s-2.31.89-2.31,2.45"/>
  <path id="an" d="M1294.99,381.98c-2.03,0-3.2-.86-3.76-1.86l1.19-.77c.38.53.96,1.35,2.57,1.35,1.45,0,2.51-.67,2.51-2.17v-1.83h-.14c-.31.52-.89,1.53-2.66,1.53-2.19,0-3.86-1.59-3.86-4.46s1.61-4.64,3.89-4.64c1.77,0,2.35,1.09,2.66,1.58h.14v-1.46h1.43v9.38c0,2.36-1.76,3.38-3.98,3.38ZM1294.95,376.91c1.66,0,2.57-1.19,2.57-3.19s-.88-3.29-2.57-3.29-2.61,1.47-2.61,3.29.89,3.19,2.61,3.19"/>
  <path class="cls-1" d="M1214.66,251.51h139.8v60.26h-139.8v-60.26Z"/>
  <path id="W-2" data-name="W" d="M1235.09,288.1l4.42-12.18h1.8l4.48,12.18h-1.63l-1.22-3.4h-5.02l-1.18,3.4h-1.65ZM1238.39,283.34h4.06c-.84-2.37-1.19-3.19-2.05-6.18-.88,3.08-1.19,3.76-2.01,6.18"/>
  <path id="T" d="M1251.22,288.3c-2.48,0-4.16-1.89-4.16-4.71s1.68-4.74,4.16-4.74c1.77,0,3.2.93,3.7,2.53l-1.41.4c-.27-.94-1.09-1.61-2.29-1.61-1.82,0-2.66,1.6-2.66,3.42s.84,3.39,2.66,3.39c1.23,0,2.06-.69,2.33-1.68l1.41.4c-.49,1.63-1.95,2.6-3.74,2.6"/>
  <path id="T-2" data-name="T" d="M1260.79,288.3c-2.48,0-4.16-1.89-4.16-4.71s1.68-4.74,4.16-4.74c1.77,0,3.2.93,3.7,2.53l-1.41.4c-.27-.94-1.09-1.61-2.29-1.61-1.82,0-2.66,1.6-2.66,3.42s.84,3.39,2.66,3.39c1.23,0,2.06-.69,2.33-1.68l1.41.4c-.49,1.63-1.95,2.6-3.74,2.6"/>
  <path id="U-6" data-name="U" d="M1270.47,288.3c-2.65,0-4.28-1.88-4.28-4.69s1.62-4.76,4.11-4.76c1.94,0,3.98,1.19,3.98,4.57v.61h-6.6c.07,1.91,1.19,2.96,2.8,2.96,1.08,0,1.89-.47,2.23-1.41l1.42.39c-.43,1.38-1.79,2.32-3.66,2.32ZM1267.69,282.79h5.1c-.14-1.55-.98-2.63-2.48-2.63s-2.53,1.23-2.62,2.63"/>
  <path id="V-6" data-name="V" d="M1279.5,288.3c-1.88,0-3.19-.83-3.51-2.41l1.4-.34c.26,1.01,1.01,1.45,2.1,1.45,1.28,0,2.09-.63,2.09-1.38,0-.63-.44-1.05-1.34-1.26l-1.52-.36c-1.66-.39-2.45-1.21-2.45-2.49,0-1.57,1.44-2.66,3.38-2.66s2.87.92,3.29,2.2l-1.33.34c-.25-.65-.77-1.29-1.95-1.29-1.09,0-1.9.56-1.9,1.32,0,.68.47,1.05,1.54,1.31l1.38.33c1.66.39,2.44,1.22,2.44,2.47,0,1.6-1.46,2.77-3.6,2.77"/>
  <path id="V-7" data-name="V" d="M1288.33,288.3c-1.88,0-3.19-.83-3.51-2.41l1.4-.34c.26,1.01,1.01,1.45,2.1,1.45,1.28,0,2.09-.63,2.09-1.38,0-.63-.44-1.05-1.34-1.26l-1.52-.36c-1.66-.39-2.45-1.21-2.45-2.49,0-1.57,1.44-2.66,3.38-2.66s2.87.92,3.29,2.2l-1.33.34c-.25-.65-.77-1.29-1.95-1.29-1.09,0-1.9.56-1.9,1.32,0,.68.47,1.05,1.54,1.31l1.38.33c1.66.39,2.44,1.22,2.44,2.47,0,1.6-1.46,2.77-3.6,2.77"/>
  <path id="Z-5" data-name="Z" d="M1294.06,288.1v-9.14h1.47v9.14h-1.47ZM1294.81,277.47c-.56,0-1.02-.43-1.02-.97s.47-.97,1.02-.97,1.03.43,1.03.97-.47.97-1.03.97"/>
  <path id="ae-2" data-name="ae" d="M1302.36,288.3c-1.74,0-2.35-1.1-2.66-1.61h-.16v1.41h-1.42v-12.18h1.47v4.5h.11c.3-.48.87-1.58,2.65-1.58,2.28,0,3.87,1.81,3.87,4.71s-1.59,4.74-3.87,4.74ZM1302.14,286.98c1.71,0,2.59-1.52,2.59-3.44s-.86-3.38-2.59-3.38-2.57,1.36-2.57,3.38.91,3.44,2.57,3.44"/>
  <path id="Z-6" data-name="Z" d="M1308.37,288.1v-9.14h1.47v9.14h-1.47ZM1309.11,277.47c-.56,0-1.02-.43-1.02-.97s.47-.97,1.02-.97,1.03.43,1.03.97-.47.97-1.03.97"/>
  <path id="ac-3" data-name="ac" d="M1313.89,275.92v12.18h-1.47v-12.18h1.47"/>
  <path id="Z-7" data-name="Z" d="M1316.48,288.1v-9.14h1.47v9.14h-1.47ZM1317.22,277.47c-.56,0-1.02-.43-1.02-.97s.47-.97,1.02-.97,1.03.43,1.03.97-.47.97-1.03.97"/>
  <path id="am-2" data-name="am" d="M1324.13,278.96v1.26h-1.88v5.51c0,.82.3,1.18,1.08,1.18.19,0,.51-.05.75-.1l.3,1.24c-.3.11-.72.16-1.1.16-1.58,0-2.51-.87-2.51-2.37v-5.62h-1.37v-1.26h1.37v-2.17h1.47v2.17h1.88"/>
  <path id="ag-2" data-name="ag" d="M1326.19,291.41l.38-1.28c.98.29,1.68.16,2.15-1.23l.26-.76-3.49-9.19h1.61c.87,2.56,1.94,5.07,2.65,7.77.71-2.71,1.79-5.21,2.66-7.77h1.6l-4.01,10.5c-.56,1.45-1.44,2.12-2.73,2.12-.52,0-.92-.1-1.08-.17"/>
  <path class="cls-1" d="M968.99,296.64h108.7v60.27h-108.7v-60.27Z"/>
  <path id="ao" d="M994.35,333.44c-2.64,0-4.28-1.36-4.42-3.4h1.59c.12,1.38,1.4,2.01,2.83,2.01,1.65,0,2.91-.87,2.91-2.17.04-1.66-2.4-1.95-3.88-2.39-1.95-.6-3.11-1.56-3.11-3.18,0-2.06,1.83-3.42,4.18-3.42s4.08,1.4,4.15,3.24h-1.52c-.14-1.19-1.23-1.86-2.68-1.86-1.58,0-2.62.83-2.62,1.98,0,1.28,1.43,1.72,2.32,1.97l1.22.34c1.31.36,3.45,1.1,3.45,3.37,0,1.99-1.61,3.53-4.42,3.53"/>
  <path id="U-7" data-name="U" d="M1004.86,333.43c-2.65,0-4.28-1.88-4.28-4.69s1.62-4.76,4.11-4.76c1.94,0,3.98,1.19,3.98,4.57v.61h-6.6c.07,1.91,1.19,2.96,2.8,2.96,1.08,0,1.89-.47,2.23-1.41l1.42.39c-.43,1.38-1.79,2.32-3.66,2.32ZM1002.07,327.92h5.1c-.14-1.55-.98-2.63-2.48-2.63s-2.53,1.23-2.62,2.63"/>
  <path id="R-6" data-name="R" d="M1010.78,333.23v-9.14h1.42v1.41h.1c.34-.92,1.28-1.54,2.37-1.54.21,0,.57.02.74.02v1.48c-.09-.02-.49-.08-.88-.08-1.32,0-2.28.89-2.28,2.13v5.72h-1.47"/>
  <path id="ap" d="M1019.98,333.23l-3.49-9.14h1.61c.87,2.57,1.93,5.07,2.66,7.77.71-2.71,1.77-5.21,2.65-7.77h1.61l-3.49,9.14h-1.54"/>
  <path id="Z-8" data-name="Z" d="M1026.75,333.23v-9.14h1.47v9.14h-1.47ZM1027.49,322.6c-.56,0-1.02-.43-1.02-.97s.47-.97,1.02-.97,1.03.43,1.03.97-.47.97-1.03.97"/>
  <path id="T-3" data-name="T" d="M1034.52,333.43c-2.48,0-4.16-1.89-4.16-4.71s1.68-4.74,4.16-4.74c1.77,0,3.2.93,3.7,2.53l-1.41.4c-.27-.94-1.09-1.61-2.29-1.61-1.82,0-2.66,1.6-2.66,3.42s.84,3.39,2.66,3.39c1.23,0,2.06-.69,2.33-1.68l1.41.4c-.49,1.63-1.95,2.6-3.74,2.6"/>
  <path id="U-8" data-name="U" d="M1044.21,333.43c-2.65,0-4.28-1.88-4.28-4.69s1.62-4.76,4.11-4.76c1.94,0,3.98,1.19,3.98,4.57v.61h-6.6c.07,1.91,1.19,2.96,2.8,2.96,1.08,0,1.89-.47,2.23-1.41l1.42.39c-.43,1.38-1.79,2.32-3.66,2.32ZM1041.42,327.92h5.1c-.14-1.55-.98-2.63-2.48-2.63s-2.53,1.23-2.62,2.63"/>
  <path id="V-8" data-name="V" d="M1053.23,333.43c-1.88,0-3.19-.83-3.51-2.41l1.4-.34c.26,1.01,1.01,1.45,2.1,1.45,1.28,0,2.09-.63,2.09-1.38,0-.63-.44-1.05-1.34-1.26l-1.52-.36c-1.66-.39-2.45-1.21-2.45-2.49,0-1.57,1.44-2.66,3.38-2.66s2.87.92,3.29,2.2l-1.33.34c-.25-.65-.77-1.29-1.95-1.29-1.09,0-1.9.56-1.9,1.32,0,.68.47,1.05,1.54,1.31l1.38.33c1.66.39,2.44,1.22,2.44,2.47,0,1.6-1.46,2.77-3.6,2.77"/>
  <path class="cls-1" d="M388.71,409.48h126.34v60.26h-126.34v-60.26Z"/>
  <path id="aq" d="M414.63,446.06h-3.8v-12.18h3.96c3.56,0,5.66,2.29,5.66,6.06s-2.1,6.11-5.81,6.11ZM412.38,444.69h2.15c2.97,0,4.41-1.78,4.41-4.74s-1.44-4.69-4.26-4.69h-2.3v9.43"/>
  <path id="af-3" data-name="af" d="M425.29,446.28c-1.73,0-3.11-1.01-3.11-2.81,0-2.09,1.86-2.48,3.56-2.69,1.65-.22,2.35-.13,2.35-.88,0-1.14-.65-1.79-1.91-1.79s-2.03.7-2.31,1.34l-1.41-.47c.7-1.66,2.27-2.17,3.69-2.17,1.23,0,3.42.38,3.42,3.23v6.02h-1.45v-1.24h-.1c-.31.65-1.17,1.45-2.71,1.45ZM425.54,444.98c1.63,0,2.53-1.1,2.53-2.22v-1.27c-.25.29-1.85.45-2.41.52-1.07.14-2.01.48-2.01,1.52,0,.95.79,1.44,1.89,1.44"/>
  <path id="V-9" data-name="V" d="M435.24,446.26c-1.88,0-3.19-.83-3.51-2.41l1.4-.34c.26,1.01,1.01,1.45,2.1,1.45,1.28,0,2.09-.63,2.09-1.38,0-.63-.44-1.05-1.34-1.26l-1.52-.36c-1.66-.39-2.45-1.21-2.45-2.49,0-1.57,1.44-2.66,3.38-2.66s2.87.92,3.29,2.2l-1.33.34c-.25-.65-.77-1.29-1.95-1.29-1.09,0-1.9.56-1.9,1.32,0,.68.47,1.05,1.54,1.31l1.38.33c1.66.39,2.44,1.22,2.44,2.47,0,1.6-1.46,2.77-3.6,2.77"/>
  <path id="ar" d="M442.44,440.59v5.48h-1.47v-12.18h1.47v4.63c.6-1.22,1.55-1.7,2.75-1.7,1.85,0,3.1,1.14,3.1,3.45v5.8h-1.48v-5.68c0-1.41-.78-2.25-2.06-2.25s-2.31.89-2.31,2.45"/>
  <path id="ae-3" data-name="ae" d="M455.11,446.26c-1.74,0-2.35-1.1-2.66-1.61h-.16v1.41h-1.42v-12.18h1.47v4.5h.11c.3-.48.87-1.58,2.65-1.58,2.28,0,3.87,1.81,3.87,4.71s-1.59,4.74-3.87,4.74ZM454.89,444.94c1.71,0,2.59-1.52,2.59-3.44s-.86-3.38-2.59-3.38-2.57,1.36-2.57,3.38.91,3.44,2.57,3.44"/>
  <path id="S-3" data-name="S" d="M464.84,446.26c-2.48,0-4.16-1.89-4.16-4.71s1.68-4.74,4.16-4.74,4.18,1.88,4.18,4.74-1.68,4.71-4.18,4.71ZM464.84,444.94c1.85,0,2.69-1.59,2.69-3.39s-.84-3.42-2.69-3.42-2.66,1.6-2.66,3.42.84,3.39,2.66,3.39"/>
  <path id="af-4" data-name="af" d="M473.88,446.28c-1.73,0-3.11-1.01-3.11-2.81,0-2.09,1.86-2.48,3.56-2.69,1.65-.22,2.35-.13,2.35-.88,0-1.14-.65-1.79-1.91-1.79s-2.03.7-2.31,1.34l-1.41-.47c.7-1.66,2.27-2.17,3.69-2.17,1.23,0,3.42.38,3.42,3.23v6.02h-1.45v-1.24h-.1c-.31.65-1.17,1.45-2.71,1.45ZM474.13,444.98c1.63,0,2.53-1.1,2.53-2.22v-1.27c-.25.29-1.85.45-2.41.52-1.07.14-2.01.48-2.01,1.52,0,.95.79,1.44,1.89,1.44"/>
  <path id="R-7" data-name="R" d="M480.72,446.06v-9.14h1.42v1.41h.1c.34-.92,1.28-1.54,2.37-1.54.21,0,.57.02.74.02v1.48c-.09-.02-.49-.08-.88-.08-1.32,0-2.28.89-2.28,2.13v5.72h-1.47"/>
  <path id="X-2" data-name="X" d="M490.17,446.26c-2.28,0-3.87-1.83-3.87-4.74s1.59-4.71,3.87-4.71c1.78,0,2.35,1.1,2.65,1.58h.11v-4.5h1.47v12.18h-1.42v-1.41h-.16c-.3.51-.92,1.61-2.66,1.61ZM490.39,444.94c1.66,0,2.57-1.41,2.57-3.44s-.88-3.38-2.57-3.38-2.59,1.48-2.59,3.38.88,3.44,2.59,3.44"/>
  <path class="cls-1" d="M46.62,319.21h192.1v60.26H46.62v-60.26Z"/>
  <path id="Q" d="M69.02,355.8v-12.18h4.17c2.84,0,4.15,1.71,4.15,3.87s-1.31,3.9-4.14,3.9h-2.62v4.41h-1.55ZM70.57,350.03h2.55c1.93,0,2.67-1.09,2.67-2.53s-.74-2.51-2.69-2.51h-2.53v5.04"/>
  <path id="af-5" data-name="af" d="M82.09,356.01c-1.73,0-3.11-1.01-3.11-2.81,0-2.09,1.86-2.48,3.56-2.69,1.65-.22,2.35-.13,2.35-.88,0-1.14-.65-1.79-1.91-1.79s-2.03.7-2.31,1.34l-1.41-.47c.7-1.66,2.27-2.17,3.69-2.17,1.23,0,3.42.38,3.42,3.23v6.02h-1.45v-1.24h-.1c-.31.65-1.17,1.45-2.71,1.45ZM82.34,354.71c1.63,0,2.53-1.1,2.53-2.22v-1.27c-.25.29-1.85.45-2.41.52-1.07.14-2.01.48-2.01,1.52,0,.95.79,1.44,1.89,1.44"/>
  <path id="am-3" data-name="am" d="M92.53,346.66v1.26h-1.88v5.51c0,.82.3,1.18,1.08,1.18.19,0,.51-.05.75-.1l.3,1.24c-.3.11-.72.16-1.1.16-1.58,0-2.51-.87-2.51-2.37v-5.62h-1.37v-1.26h1.37v-2.17h1.47v2.17h1.88"/>
  <path id="ar-2" data-name="ar" d="M95.88,350.32v5.48h-1.47v-12.18h1.47v4.63c.6-1.22,1.55-1.7,2.75-1.7,1.85,0,3.1,1.14,3.1,3.45v5.8h-1.48v-5.68c0-1.41-.78-2.25-2.06-2.25s-2.31.89-2.31,2.45"/>
  <path id="ag-3" data-name="ag" d="M103.91,359.11l.38-1.28c.98.29,1.68.16,2.15-1.23l.26-.76-3.49-9.19h1.61c.87,2.56,1.94,5.07,2.65,7.77.71-2.71,1.79-5.21,2.66-7.77h1.6l-4.01,10.5c-.56,1.45-1.44,2.12-2.73,2.12-.52,0-.92-.1-1.08-.17"/>
  <path id="aj-2" data-name="aj" d="M115.52,355.8l-2.77-9.14h1.56c.73,2.69,1.35,4.58,1.99,7.56.61-2.89,1.26-4.91,1.96-7.56h1.57c.69,2.66,1.32,4.61,1.92,7.54.63-2.89,1.28-4.89,1.99-7.54h1.56l-2.77,9.14h-1.46c-.7-2.51-1.44-4.82-2.04-7.46-.61,2.66-1.33,4.95-2.04,7.46h-1.46"/>
  <path id="af-6" data-name="af" d="M129.73,356.01c-1.73,0-3.11-1.01-3.11-2.81,0-2.09,1.86-2.48,3.56-2.69,1.65-.22,2.35-.13,2.35-.88,0-1.14-.65-1.79-1.91-1.79s-2.03.7-2.31,1.34l-1.41-.47c.7-1.66,2.27-2.17,3.69-2.17,1.23,0,3.42.38,3.42,3.23v6.02h-1.45v-1.24h-.1c-.31.65-1.17,1.45-2.71,1.45ZM129.98,354.71c1.63,0,2.53-1.1,2.53-2.22v-1.27c-.25.29-1.85.45-2.41.52-1.07.14-2.01.48-2.01,1.52,0,.95.79,1.44,1.89,1.44"/>
  <path id="ag-4" data-name="ag" d="M136.18,359.11l.38-1.28c.98.29,1.68.16,2.15-1.23l.26-.76-3.49-9.19h1.61c.87,2.56,1.94,5.07,2.65,7.77.71-2.71,1.79-5.21,2.66-7.77h1.6l-4.01,10.5c-.56,1.45-1.44,2.12-2.73,2.12-.52,0-.92-.1-1.08-.17"/>
  <path id="Q-2" data-name="Q" d="M150.62,355.8v-12.18h4.17c2.84,0,4.15,1.71,4.15,3.87s-1.31,3.9-4.14,3.9h-2.62v4.41h-1.55ZM152.17,350.03h2.55c1.93,0,2.67-1.09,2.67-2.53s-.74-2.51-2.69-2.51h-2.53v5.04"/>
  <path id="R-8" data-name="R" d="M161.13,355.8v-9.14h1.42v1.41h.1c.34-.92,1.28-1.54,2.37-1.54.21,0,.57.02.74.02v1.48c-.09-.02-.49-.08-.88-.08-1.32,0-2.28.89-2.28,2.13v5.72h-1.47"/>
  <path id="S-4" data-name="S" d="M170.87,355.99c-2.48,0-4.16-1.89-4.16-4.71s1.68-4.74,4.16-4.74,4.18,1.88,4.18,4.74-1.68,4.71-4.18,4.71ZM170.87,354.68c1.85,0,2.69-1.59,2.69-3.39s-.84-3.42-2.69-3.42-2.66,1.6-2.66,3.42.84,3.39,2.66,3.39"/>
  <path id="an-2" data-name="an" d="M180.9,359.41c-2.03,0-3.2-.86-3.76-1.86l1.19-.77c.38.53.96,1.35,2.57,1.35,1.45,0,2.51-.67,2.51-2.17v-1.83h-.14c-.31.52-.89,1.53-2.66,1.53-2.19,0-3.86-1.59-3.86-4.46s1.61-4.64,3.89-4.64c1.77,0,2.35,1.09,2.66,1.58h.14v-1.46h1.43v9.38c0,2.36-1.76,3.38-3.98,3.38ZM180.85,354.34c1.66,0,2.57-1.19,2.57-3.19s-.88-3.29-2.57-3.29-2.61,1.47-2.61,3.29.89,3.19,2.61,3.19"/>
  <path id="R-9" data-name="R" d="M187.46,355.8v-9.14h1.42v1.41h.1c.34-.92,1.28-1.54,2.37-1.54.21,0,.57.02.74.02v1.48c-.09-.02-.49-.08-.88-.08-1.32,0-2.28.89-2.28,2.13v5.72h-1.47"/>
  <path id="U-9" data-name="U" d="M197.32,355.99c-2.65,0-4.28-1.88-4.28-4.69s1.62-4.76,4.11-4.76c1.94,0,3.98,1.19,3.98,4.57v.61h-6.6c.07,1.91,1.19,2.96,2.8,2.96,1.08,0,1.89-.47,2.23-1.41l1.42.39c-.43,1.38-1.79,2.32-3.66,2.32ZM194.54,350.49h5.1c-.14-1.55-.98-2.63-2.48-2.63s-2.53,1.23-2.62,2.63"/>
  <path id="V-10" data-name="V" d="M206.35,355.99c-1.88,0-3.19-.83-3.51-2.41l1.4-.34c.26,1.01,1.01,1.45,2.1,1.45,1.28,0,2.09-.63,2.09-1.38,0-.63-.44-1.05-1.34-1.26l-1.52-.36c-1.66-.39-2.45-1.21-2.45-2.49,0-1.57,1.44-2.66,3.38-2.66s2.87.92,3.29,2.2l-1.33.34c-.25-.65-.77-1.29-1.95-1.29-1.09,0-1.9.56-1.9,1.32,0,.68.47,1.05,1.54,1.31l1.38.33c1.66.39,2.44,1.22,2.44,2.47,0,1.6-1.46,2.77-3.6,2.77"/>
  <path id="V-11" data-name="V" d="M215.18,355.99c-1.88,0-3.19-.83-3.51-2.41l1.4-.34c.26,1.01,1.01,1.45,2.1,1.45,1.28,0,2.09-.63,2.09-1.38,0-.63-.44-1.05-1.34-1.26l-1.52-.36c-1.66-.39-2.45-1.21-2.45-2.49,0-1.57,1.44-2.66,3.38-2.66s2.87.92,3.29,2.2l-1.33.34c-.25-.65-.77-1.29-1.95-1.29-1.09,0-1.9.56-1.9,1.32,0,.68.47,1.05,1.54,1.31l1.38.33c1.66.39,2.44,1.22,2.44,2.47,0,1.6-1.46,2.77-3.6,2.77"/>
  <path class="cls-1" d="M157.82,590h80.9v60.27h-80.9v-60.27Z"/>
  <path id="W-3" data-name="W" d="M178.35,626.59l4.42-12.18h1.8l4.48,12.18h-1.63l-1.22-3.4h-5.02l-1.18,3.4h-1.65ZM181.65,621.84h4.06c-.84-2.37-1.19-3.19-2.05-6.18-.88,3.08-1.19,3.76-2.01,6.18"/>
  <path id="as" d="M190.77,630.01v-12.55h1.42v1.46h.16c.3-.48.87-1.58,2.65-1.58,2.28,0,3.87,1.81,3.87,4.71s-1.59,4.74-3.87,4.74c-1.74,0-2.35-1.1-2.66-1.61h-.11v4.83h-1.47ZM194.79,625.47c1.71,0,2.59-1.52,2.59-3.44s-.86-3.38-2.59-3.38-2.57,1.36-2.57,3.38.91,3.44,2.57,3.44"/>
  <path id="as-2" data-name="as" d="M201.02,630.01v-12.55h1.42v1.46h.16c.3-.48.87-1.58,2.65-1.58,2.28,0,3.87,1.81,3.87,4.71s-1.59,4.74-3.87,4.74c-1.74,0-2.35-1.1-2.66-1.61h-.11v4.83h-1.47ZM205.04,625.47c1.71,0,2.59-1.52,2.59-3.44s-.86-3.38-2.59-3.38-2.57,1.36-2.57,3.38.91,3.44,2.57,3.44"/>
  <path id="V-12" data-name="V" d="M214.37,626.79c-1.88,0-3.19-.83-3.51-2.41l1.4-.34c.26,1.01,1.01,1.45,2.1,1.45,1.28,0,2.09-.63,2.09-1.38,0-.63-.44-1.05-1.34-1.26l-1.52-.36c-1.66-.39-2.45-1.21-2.45-2.49,0-1.57,1.44-2.66,3.38-2.66s2.87.92,3.29,2.2l-1.33.34c-.25-.65-.77-1.29-1.95-1.29-1.09,0-1.9.56-1.9,1.32,0,.68.47,1.05,1.54,1.31l1.38.33c1.66.39,2.44,1.22,2.44,2.47,0,1.6-1.46,2.77-3.6,2.77"/>
  <path class="cls-1" d="M131.65,228.94h107.07v60.27h-107.08v-60.27Z"/>
  <path id="ak-2" data-name="ak" d="M153.41,254.73v-1.37h9.2v1.37h-3.82v10.81h-1.55v-10.81h-3.83"/>
  <path id="Z-9" data-name="Z" d="M164.71,265.53v-9.14h1.47v9.14h-1.47ZM165.45,254.9c-.56,0-1.02-.43-1.02-.97s.47-.97,1.02-.97,1.03.43,1.03.97-.47.97-1.03.97"/>
  <path id="Y-2" data-name="Y" d="M168.76,265.53v-9.14h1.43v1.68c.46-1.23,1.49-1.84,2.57-1.84,1.2,0,2,.74,2.33,1.86.43-1.15,1.55-1.86,2.88-1.86,1.59,0,2.88,1.02,2.88,3.14v6.16h-1.48v-6.12c0-1.32-.86-1.84-1.84-1.84-1.23,0-1.99.84-1.99,1.99v5.97h-1.47v-6.27c0-1.01-.76-1.69-1.79-1.69s-2.04.75-2.04,2.21v5.75h-1.47"/>
  <path id="U-10" data-name="U" d="M187.27,265.73c-2.65,0-4.28-1.88-4.28-4.69s1.62-4.76,4.11-4.76c1.94,0,3.98,1.19,3.98,4.57v.61h-6.6c.07,1.91,1.19,2.96,2.8,2.96,1.08,0,1.89-.47,2.23-1.41l1.42.39c-.43,1.38-1.79,2.32-3.66,2.32ZM184.48,260.22h5.1c-.14-1.55-.98-2.63-2.48-2.63s-2.53,1.23-2.62,2.63"/>
  <path id="ac-4" data-name="ac" d="M194.66,253.35v12.18h-1.47v-12.18h1.47"/>
  <path id="Z-10" data-name="Z" d="M197.24,265.53v-9.14h1.47v9.14h-1.47ZM197.99,254.9c-.56,0-1.02-.43-1.02-.97s.47-.97,1.02-.97,1.03.43,1.03.97-.47.97-1.03.97"/>
  <path id="aa-4" data-name="aa" d="M202.77,260.06v5.48h-1.47v-9.14h1.41v1.69c.6-1.29,1.58-1.81,2.8-1.81,1.85,0,3.09,1.14,3.09,3.45v5.8h-1.47v-5.68c0-1.41-.78-2.25-2.06-2.25s-2.31.89-2.31,2.45"/>
  <path id="U-11" data-name="U" d="M215.03,265.73c-2.65,0-4.28-1.88-4.28-4.69s1.62-4.76,4.11-4.76c1.94,0,3.98,1.19,3.98,4.57v.61h-6.6c.07,1.91,1.19,2.96,2.8,2.96,1.08,0,1.89-.47,2.23-1.41l1.42.39c-.43,1.38-1.79,2.32-3.66,2.32ZM212.24,260.22h5.1c-.14-1.55-.98-2.63-2.48-2.63s-2.53,1.23-2.62,2.63"/>
  <path class="cls-1" d="M135.48,499.74h103.24v60.26h-103.25v-60.26Z"/>
  <path id="ao-2" data-name="ao" d="M161.63,536.54c-2.64,0-4.28-1.36-4.42-3.4h1.59c.12,1.38,1.4,2.01,2.83,2.01,1.65,0,2.91-.87,2.91-2.17.04-1.66-2.4-1.95-3.88-2.39-1.95-.6-3.11-1.56-3.11-3.18,0-2.06,1.83-3.42,4.18-3.42s4.08,1.4,4.15,3.24h-1.52c-.14-1.19-1.23-1.86-2.68-1.86-1.58,0-2.62.83-2.62,1.98,0,1.28,1.43,1.72,2.32,1.97l1.22.34c1.31.36,3.45,1.1,3.45,3.37,0,1.99-1.61,3.53-4.42,3.53"/>
  <path id="al-2" data-name="al" d="M171.39,536.44c-1.85,0-3.1-1.14-3.1-3.45v-5.8h1.47v5.68c0,1.41.79,2.25,2.07,2.25s2.3-.89,2.3-2.45v-5.48h1.48v9.14h-1.42v-1.71c-.6,1.33-1.59,1.82-2.8,1.82"/>
  <path id="as-3" data-name="as" d="M178.19,539.74v-12.55h1.42v1.46h.16c.3-.48.87-1.58,2.65-1.58,2.28,0,3.87,1.81,3.87,4.71s-1.59,4.74-3.87,4.74c-1.74,0-2.35-1.1-2.66-1.61h-.11v4.83h-1.47ZM182.22,535.21c1.71,0,2.59-1.52,2.59-3.44s-.86-3.38-2.59-3.38-2.57,1.36-2.57,3.38.91,3.44,2.57,3.44"/>
  <path id="as-4" data-name="as" d="M188.44,539.74v-12.55h1.42v1.46h.16c.3-.48.87-1.58,2.65-1.58,2.28,0,3.87,1.81,3.87,4.71s-1.59,4.74-3.87,4.74c-1.74,0-2.35-1.1-2.66-1.61h-.11v4.83h-1.47ZM192.47,535.21c1.71,0,2.59-1.52,2.59-3.44s-.86-3.38-2.59-3.38-2.57,1.36-2.57,3.38.91,3.44,2.57,3.44"/>
  <path id="S-5" data-name="S" d="M202.41,536.52c-2.48,0-4.16-1.89-4.16-4.71s1.68-4.74,4.16-4.74,4.18,1.88,4.18,4.74-1.68,4.71-4.18,4.71ZM202.41,535.21c1.85,0,2.69-1.59,2.69-3.39s-.84-3.42-2.69-3.42-2.66,1.6-2.66,3.42.84,3.39,2.66,3.39"/>
  <path id="R-10" data-name="R" d="M208.73,536.33v-9.14h1.42v1.41h.1c.34-.92,1.28-1.54,2.37-1.54.21,0,.57.02.74.02v1.48c-.09-.02-.49-.08-.88-.08-1.32,0-2.28.89-2.28,2.13v5.72h-1.47"/>
  <path id="am-4" data-name="am" d="M218.89,527.19v1.26h-1.88v5.51c0,.82.3,1.18,1.08,1.18.19,0,.51-.05.75-.1l.3,1.24c-.3.11-.72.16-1.1.16-1.58,0-2.51-.87-2.51-2.37v-5.62h-1.37v-1.26h1.37v-2.17h1.47v2.17h1.88"/>
  <path class="cls-1" d="M968.99,612.58h123.25v60.25h-123.26v-60.25Z"/>
  <path id="at" d="M990.46,649.16v-12.18h4.17c2.84,0,4.15,1.59,4.15,3.76,0,1.62-.72,2.87-2.26,3.41l2.73,5.01h-1.8l-2.53-4.73c-.96.02-1.95,0-2.91,0v4.72h-1.55ZM992.01,643.05h2.55c1.92,0,2.67-.88,2.67-2.31s-.75-2.39-2.69-2.39h-2.53v4.71"/>
  <path id="U-12" data-name="U" d="M1004.64,649.36c-2.65,0-4.28-1.88-4.28-4.69s1.62-4.76,4.11-4.76c1.94,0,3.98,1.19,3.98,4.57v.61h-6.6c.07,1.91,1.19,2.96,2.8,2.96,1.08,0,1.89-.47,2.23-1.41l1.42.39c-.43,1.38-1.79,2.32-3.66,2.32ZM1001.86,643.85h5.1c-.14-1.55-.98-2.63-2.48-2.63s-2.53,1.23-2.62,2.63"/>
  <path id="V-13" data-name="V" d="M1013.67,649.36c-1.88,0-3.19-.83-3.51-2.41l1.4-.34c.26,1.01,1.01,1.45,2.1,1.45,1.28,0,2.09-.63,2.09-1.38,0-.63-.44-1.05-1.34-1.26l-1.52-.36c-1.66-.39-2.45-1.21-2.45-2.49,0-1.57,1.44-2.66,3.38-2.66s2.87.92,3.29,2.2l-1.33.34c-.25-.65-.77-1.29-1.95-1.29-1.09,0-1.9.56-1.9,1.32,0,.68.47,1.05,1.54,1.31l1.38.33c1.66.39,2.44,1.22,2.44,2.47,0,1.6-1.46,2.77-3.6,2.77"/>
  <path id="S-6" data-name="S" d="M1023.12,649.36c-2.48,0-4.16-1.89-4.16-4.71s1.68-4.74,4.16-4.74,4.18,1.88,4.18,4.74-1.68,4.71-4.18,4.71ZM1023.12,648.04c1.85,0,2.69-1.59,2.69-3.39s-.84-3.42-2.69-3.42-2.66,1.6-2.66,3.42.84,3.39,2.66,3.39"/>
  <path id="al-3" data-name="al" d="M1032.53,649.27c-1.85,0-3.1-1.14-3.1-3.45v-5.8h1.47v5.68c0,1.41.79,2.25,2.07,2.25s2.3-.89,2.3-2.45v-5.48h1.48v9.14h-1.42v-1.71c-.6,1.33-1.59,1.82-2.8,1.82"/>
  <path id="R-11" data-name="R" d="M1039.33,649.16v-9.14h1.42v1.41h.1c.34-.92,1.28-1.54,2.37-1.54.21,0,.57.02.74.02v1.48c-.09-.02-.49-.08-.88-.08-1.32,0-2.28.89-2.28,2.13v5.72h-1.47"/>
  <path id="T-4" data-name="T" d="M1049.08,649.36c-2.48,0-4.16-1.89-4.16-4.71s1.68-4.74,4.16-4.74c1.77,0,3.2.93,3.7,2.53l-1.41.4c-.27-.94-1.09-1.61-2.29-1.61-1.82,0-2.66,1.6-2.66,3.42s.84,3.39,2.66,3.39c1.23,0,2.06-.69,2.33-1.68l1.41.4c-.49,1.63-1.95,2.6-3.74,2.6"/>
  <path id="U-13" data-name="U" d="M1058.76,649.36c-2.65,0-4.28-1.88-4.28-4.69s1.62-4.76,4.11-4.76c1.94,0,3.98,1.19,3.98,4.57v.61h-6.6c.07,1.91,1.19,2.96,2.8,2.96,1.08,0,1.89-.47,2.23-1.41l1.42.39c-.43,1.38-1.79,2.32-3.66,2.32ZM1055.98,643.85h5.1c-.14-1.55-.98-2.63-2.48-2.63s-2.53,1.23-2.62,2.63"/>
  <path id="V-14" data-name="V" d="M1067.79,649.36c-1.88,0-3.19-.83-3.51-2.41l1.4-.34c.26,1.01,1.01,1.45,2.1,1.45,1.28,0,2.09-.63,2.09-1.38,0-.63-.44-1.05-1.34-1.26l-1.52-.36c-1.66-.39-2.45-1.21-2.45-2.49,0-1.57,1.44-2.66,3.38-2.66s2.87.92,3.29,2.2l-1.33.34c-.25-.65-.77-1.29-1.95-1.29-1.09,0-1.9.56-1.9,1.32,0,.68.47,1.05,1.54,1.31l1.38.33c1.66.39,2.44,1.22,2.44,2.47,0,1.6-1.46,2.77-3.6,2.77"/>
  <path class="cls-10" d="M623.02,484.74c0-22.09,17.91-40,40-40h160c22.09,0,40,17.91,40,40h0c0,22.09-17.91,40-40,40h-160c-22.09,0-40-17.91-40-40h0Z"/>
  <path id="au" d="M679.69,491.2c-3.5,0-5.73-1.63-5.82-4.73h2.9c.1,1.47,1.28,2.21,2.89,2.21s2.65-.75,2.65-1.86c0-1-.93-1.46-2.51-1.85l-1.6-.4c-2.46-.6-3.94-1.84-3.94-3.96,0-2.63,2.3-4.38,5.47-4.38s5.33,1.79,5.38,4.35h-2.88c-.11-1.16-1.04-1.84-2.53-1.84s-2.38.7-2.38,1.68c-.03,1.52,2.21,1.81,3.64,2.16,2.44.6,4.35,1.82,4.35,4.26,0,2.65-2.08,4.36-5.62,4.36"/>
  <path id="av" d="M692.81,480.07v2.24h-2.04v5.49c0,.69.28,1.02,1,1.02.22,0,.71-.07.93-.13l.42,2.2c-.65.2-1.31.26-1.89.26-2.19,0-3.38-1.09-3.38-3.1v-5.74h-1.5v-2.24h1.5v-2.6h2.93v2.6h2.04"/>
  <path id="aw" d="M698.47,491.13c-2.27,0-3.76-1.55-3.76-4.11v-6.94h2.93v6.44c0,1.36.74,2.17,1.97,2.17s2.12-.84,2.12-2.29v-6.32h2.94v10.92h-2.77l-.04-2.27c-.62,1.54-1.73,2.4-3.39,2.4"/>
  <path id="ax" d="M711.16,491.17c-2.52,0-4.45-1.99-4.45-5.62s2.01-5.62,4.43-5.62c1.86,0,2.71,1.1,3.11,1.97h.1v-5.47h2.93v14.55h-2.88v-1.75h-.15c-.4.88-1.31,1.93-3.09,1.93ZM712.06,488.82c1.49,0,2.34-1.31,2.34-3.28s-.84-3.26-2.34-3.26-2.34,1.35-2.34,3.26.82,3.28,2.34,3.28"/>
  <path id="ay" d="M724.7,491.2c-3.34,0-5.39-2.17-5.39-5.62s2.05-5.65,5.24-5.65c2.85,0,5.13,1.81,5.13,5.54v.82h-7.47c.07,1.79,1.06,2.71,2.54,2.71,1.03,0,1.8-.45,2.11-1.29l2.66.5c-.54,1.82-2.28,3-4.81,3ZM722.23,484.46h4.63c-.15-1.43-.92-2.31-2.28-2.31s-2.24.97-2.35,2.31"/>
  <path id="az" d="M734.61,484.67v6.32h-2.93v-10.92h2.76l.04,2.26c.62-1.52,1.72-2.39,3.4-2.39,2.27,0,3.75,1.55,3.75,4.11v6.94h-2.93v-6.44c0-1.36-.74-2.17-1.97-2.17s-2.12.84-2.12,2.29"/>
  <path id="av-2" data-name="av" d="M749.56,480.07v2.24h-2.04v5.49c0,.69.28,1.02,1,1.02.22,0,.71-.07.93-.13l.42,2.2c-.65.2-1.31.26-1.89.26-2.19,0-3.38-1.09-3.38-3.1v-5.74h-1.5v-2.24h1.5v-2.6h2.93v2.6h2.04"/>
  <path id="aA" d="M756.27,490.99v-14.55h5.67c3.31,0,5.21,2.05,5.21,4.91s-1.92,4.88-5.27,4.88h-2.63v4.76h-2.98ZM759.24,483.83h2.15c1.82,0,2.68-1.02,2.68-2.48s-.86-2.45-2.69-2.45h-2.14v4.93"/>
  <path id="aB" d="M773.87,491.2c-3.29,0-5.34-2.27-5.34-5.62s2.05-5.64,5.34-5.64,5.34,2.27,5.34,5.64-2.06,5.62-5.34,5.62ZM773.87,488.9c1.56,0,2.36-1.43,2.36-3.33s-.8-3.33-2.36-3.33-2.35,1.4-2.35,3.33.79,3.33,2.35,3.33"/>
  <path id="aC" d="M781.26,490.99v-10.92h2.83v1.9h.12c.53-1.65,1.8-2.32,3.58-1.95v2.62c-.26-.08-.84-.15-1.27-.15-1.35,0-2.33.93-2.33,2.29v6.21h-2.93"/>
  <path id="av-3" data-name="av" d="M795.21,480.07v2.24h-2.04v5.49c0,.69.28,1.02,1,1.02.22,0,.71-.07.93-.13l.42,2.2c-.65.2-1.31.26-1.89.26-2.19,0-3.38-1.09-3.38-3.1v-5.74h-1.5v-2.24h1.5v-2.6h2.93v2.6h2.04"/>
  <path id="aD" d="M800.26,491.2c-2.08,0-3.63-1.11-3.63-3.27,0-2.44,1.97-3.14,4.12-3.35,1.9-.21,2.65-.23,2.65-1.03,0-.93-.62-1.46-1.71-1.46s-1.83.56-2.06,1.26l-2.69-.45c.56-1.89,2.31-2.98,4.76-2.98s4.63,1.05,4.63,3.7v7.35h-2.77v-1.51h-.1c-.53,1.02-1.58,1.73-3.19,1.73ZM801.09,489.14c1.37,0,2.32-.91,2.32-2.06v-1.18c-.36.25-1.52.41-2.17.5-1.08.16-1.81.58-1.81,1.46s.68,1.29,1.65,1.29"/>
  <path id="aE" d="M811.75,476.44v14.55h-2.93v-14.55h2.93"/>
  <path class="cls-1" d="M402.23,499.74h112.82v60.26h-112.82v-60.26Z"/>
  <path id="aF" d="M423.9,536.33v-12.18h2.21l3,7.68c.23.59.61,1.78.9,2.77.29-.96.66-2.16.9-2.77l2.96-7.68h2.22v12.18h-1.53c.02-3.66-.04-6.84.06-10.52-1.28,4.06-2.54,6.78-3.95,10.52h-1.35c-1.44-3.74-2.68-6.41-3.99-10.5.1,3.58.04,6.89.06,10.5h-1.48"/>
  <path id="ag-5" data-name="ag" d="M438.78,539.64l.38-1.28c.98.29,1.68.16,2.15-1.23l.26-.76-3.49-9.19h1.61c.87,2.56,1.94,5.07,2.65,7.77.71-2.71,1.79-5.21,2.66-7.77h1.6l-4.01,10.5c-.56,1.45-1.44,2.12-2.73,2.12-.52,0-.92-.1-1.08-.17"/>
  <path id="ak-3" data-name="ak" d="M452.55,525.52v-1.37h9.2v1.37h-3.82v10.81h-1.55v-10.81h-3.83"/>
  <path id="U-14" data-name="U" d="M466.38,536.52c-2.65,0-4.28-1.88-4.28-4.69s1.62-4.76,4.11-4.76c1.94,0,3.98,1.19,3.98,4.57v.61h-6.6c.07,1.91,1.19,2.96,2.8,2.96,1.08,0,1.89-.47,2.23-1.41l1.42.39c-.43,1.38-1.79,2.32-3.66,2.32ZM463.6,531.02h5.1c-.14-1.55-.98-2.63-2.48-2.63s-2.53,1.23-2.62,2.63"/>
  <path id="af-7" data-name="af" d="M475.02,536.54c-1.73,0-3.11-1.01-3.11-2.81,0-2.09,1.86-2.48,3.56-2.69,1.65-.22,2.35-.13,2.35-.88,0-1.14-.65-1.79-1.91-1.79s-2.03.7-2.31,1.34l-1.41-.47c.7-1.66,2.27-2.17,3.69-2.17,1.23,0,3.42.38,3.42,3.23v6.02h-1.45v-1.24h-.1c-.31.65-1.17,1.45-2.71,1.45ZM475.28,535.24c1.63,0,2.53-1.1,2.53-2.22v-1.27c-.25.29-1.85.45-2.41.52-1.07.14-2.01.48-2.01,1.52,0,.95.79,1.44,1.89,1.44"/>
  <path id="Y-3" data-name="Y" d="M481.86,536.33v-9.14h1.43v1.68c.46-1.23,1.49-1.84,2.57-1.84,1.2,0,2,.74,2.33,1.86.43-1.15,1.55-1.86,2.88-1.86,1.59,0,2.88,1.02,2.88,3.14v6.16h-1.48v-6.12c0-1.32-.86-1.84-1.84-1.84-1.23,0-1.99.84-1.99,1.99v5.97h-1.47v-6.27c0-1.01-.76-1.69-1.79-1.69s-2.04.75-2.04,2.21v5.75h-1.47"/>
  <path class="cls-2" d="M662.54,484.78l-5.8.13-7.3.45-6.52.7-5.92.86-5.5,1.05-5.15,1.2-4.95,1.38-4.86,1.58-4.9,1.82-5.18,2.18-5.92,2.8-8.64,4.53-22.33,12.2-5.92,2.8-5.17,2.16-4.9,1.83-4.87,1.57-4.96,1.38-5.16,1.2-5.5,1.06-5.92.88-6.52.68-7.3.46-5.8.12"/>
  <path class="cls-6" d="M665.05,484.74l.2,2.47-2.72.06-.1-4.96,2.8-.06-.18,2.49ZM507.61,532.35h-2.56v-4.95h2.56v4.95Z"/>
  <path class="cls-4" d="M821.49,484.78l2.4.16,2.32.24,2.26.34,2.2.42,2.16.5,2.13.6,2.12.68,2.1.78,2.07.88,2.08.98,2.1,1.1,2.13,1.23,2.17,1.38,2.2,1.53,2.27,1.74,2.35,1.94,2.43,2.2,2.57,2.52,2.72,2.9,2.93,3.4,3.2,4.04,3.58,4.93,4.15,6.26,5.18,8.58,8.1,14.8,23.25,44.47,5.2,8.58,4.15,6.26,3.57,4.94,3.2,4.04,2.93,3.4,2.72,2.9,2.57,2.52,2.44,2.2,2.35,1.94,2.27,1.72,2.2,1.54,2.17,1.37,2.12,1.23,2.1,1.1,2.08.98,2.1.88,2.08.77,2.1.7,2.13.58,2.15.52,2.2.42,2.26.33,2.34.25,2.4.15"/>
  <path class="cls-9" d="M821.6,482.32l-.1,4.95-2.7-.07.2-2.47-.2-2.48,2.8.07ZM978.99,640.23v4.95h-2.57v-4.95h2.57Z"/>
  <path class="cls-5" d="M1068.17,326.83h.4l2.78.18,2.67.28,2.58.4,2.5.47,2.45.57,2.4.67,2.34.77,2.33.87,2.32.97,2.3,1.1,2.32,1.22,2.35,1.35,2.37,1.5,2.43,1.7,2.5,1.9,2.6,2.14,2.7,2.44,2.86,2.8,3.08,3.3,3.37,3.9,3.8,4.8,4.53,6.24,6.06,9.16,29,47.07,4.53,6.24,3.8,4.8,3.36,3.9,3.07,3.3,2.87,2.8,2.7,2.44,2.6,2.14,2.5,1.9,2.42,1.7,2.38,1.5,2.34,1.35,2.32,1.2,2.3,1.1,2.33.98,2.32.86,2.35.78,2.4.67,2.44.57,2.5.48,2.6.38,2.65.28,2.78.17h.4"/>
  <path class="cls-8" d="M1068.29,324.35l-.1,4.95-2.52-.05v-4.95l2.62.05ZM1225.67,459.7v4.95h-2.56v-4.95h2.56Z"/>
  <path class="cls-3" d="M396.2,439.66l-1.8.03-4.02.27-3.78.4-3.6.52-3.42.65-3.3.77-3.18.9-3.1,1-3.04,1.13-3,1.26-3,1.4-2.98,1.58-3.02,1.74-3.1,1.97-3.22,2.23-3.4,2.58-3.67,3.05-4.16,3.75-5.1,5-8.27,8.86-18.96,20.86-5.1,5-4.15,3.74-3.68,3.05-3.4,2.6-3.2,2.22-3.1,1.97-3.03,1.74-2.98,1.56-3,1.4-2.98,1.27-3.04,1.13-3.1,1-3.2.9-3.28.77-3.43.65-3.6.53-3.8.4-4,.25-1.82.04"/>
  <path class="cls-7" d="M398.72,442.08l-2.53.05-.1-4.95,2.62-.05v4.95ZM241.27,532.35h-2.56v-4.95h2.55v4.95Z"/>
  <path class="cls-5" d="M1068.17,326.83l5.8.1,7.3.47,6.53.68,5.93.88,5.47,1.04,5.16,1.2,4.95,1.4,4.86,1.57,4.9,1.82,5.2,2.18,5.9,2.8,8.64,4.53,22.34,12.2,5.9,2.8,5.2,2.17,4.9,1.83,4.86,1.58,4.95,1.4,5.16,1.2,5.47,1.04,5.93.88,6.53.68,7.3.46,5.8.12"/>
  <path class="cls-8" d="M1068.29,324.35l-.1,4.95-2.52-.05v-4.95l2.62.05ZM1225.67,369.43v4.95h-2.56v-4.95h2.56Z"/>
  <path class="cls-3" d="M662.54,484.68l-5.8-.1-7.3-.47-6.52-.68-5.92-.88-5.5-1.04-5.15-1.2-4.95-1.4-4.86-1.57-4.9-1.83-5.18-2.18-5.92-2.8-8.64-4.53-22.33-12.2-5.92-2.8-5.17-2.17-4.9-1.83-4.87-1.57-4.96-1.4-5.16-1.2-5.5-1.04-5.92-.87-6.52-.68-7.3-.45-5.8-.12"/>
  <path class="cls-7" d="M665.24,482.28l-.2,2.46.2,2.48-2.8-.06.1-4.95,2.7.07ZM507.61,437.13v4.95h-2.56v-4.95h2.56Z"/>
  <path class="cls-3" d="M396.2,439.61h-155"/>
  <path class="cls-7" d="M398.72,442.08h-2.58v-4.95h2.57v4.95ZM241.27,442.08h-2.56v-4.95h2.55v4.95Z"/>
  <path class="cls-5" d="M1068.17,326.72l5.8-.12,7.3-.45,6.53-.7,5.93-.86,5.47-1.03,5.16-1.2,4.95-1.4,4.86-1.58,4.9-1.83,5.2-2.18,5.9-2.8,8.64-4.54,22.34-12.2,5.9-2.8,5.2-2.17,4.9-1.84,4.86-1.58,4.95-1.38,5.16-1.2,5.47-1.05,5.93-.88,6.53-.68,7.3-.47,5.8-.12"/>
  <path class="cls-8" d="M1068.29,329.2l-2.62.05v-4.95l2.52-.05.1,4.95ZM1225.67,284.12h-2.56v-4.95h2.56v4.95Z"/>
  <path class="cls-3" d="M396.2,439.55l-1.8-.03-4.02-.26-3.78-.4-3.6-.52-3.42-.66-3.3-.77-3.18-.9-3.1-1-3.04-1.13-3-1.26-3-1.4-2.98-1.57-3.02-1.74-3.1-1.97-3.22-2.24-3.4-2.58-3.67-3.04-4.16-3.75-5.1-5-8.27-8.86-18.96-20.87-5.1-5-4.15-3.74-3.68-3.06-3.4-2.58-3.2-2.23-3.1-1.97-3.03-1.75-2.98-1.55-3-1.4-2.98-1.27-3.04-1.13-3.1-1-3.2-.9-3.28-.77-3.43-.65-3.6-.53-3.8-.4-4-.25-1.82-.04"/>
  <path class="cls-7" d="M398.72,437.13v4.95l-2.63-.05.1-4.95,2.53.05ZM241.27,346.86v4.95h-2.56v-4.94h2.56Z"/>
  <path class="cls-5" d="M821.49,484.68l2.4-.14,2.32-.25,2.26-.32,2.2-.42,2.16-.5,2.13-.6,2.12-.7,2.1-.77,2.07-.88,2.08-.98,2.1-1.1,2.13-1.23,2.17-1.36,2.2-1.54,2.27-1.72,2.35-1.94,2.43-2.2,2.57-2.52,2.72-2.9,2.93-3.4,3.2-4.04,3.58-4.93,4.15-6.26,5.18-8.6,8.1-14.8,23.25-44.46,5.2-8.58,4.15-6.26,3.57-4.93,3.2-4.04,2.93-3.4,2.72-2.9,2.57-2.5,2.44-2.2,2.35-1.96,2.27-1.72,2.2-1.53,2.17-1.38,2.12-1.22,2.1-1.1,2.08-1,2.1-.86,2.08-.78,2.1-.68,2.13-.6,2.15-.5,2.2-.42,2.26-.34,2.34-.24,2.4-.15"/>
  <path class="cls-8" d="M821.6,487.16l-2.8.06.2-2.48-.2-2.47,2.7-.07.1,4.96ZM978.99,329.25h-2.57v-4.95h2.57v4.95Z"/>
  <path class="cls-5" d="M1068.17,326.72h.4l2.78-.18,2.67-.28,2.58-.38,2.5-.48,2.45-.57,2.4-.67,2.34-.76,2.33-.87,2.32-.97,2.3-1.1,2.32-1.2,2.35-1.36,2.37-1.5,2.43-1.7,2.5-1.9,2.6-2.14,2.7-2.44,2.86-2.8,3.08-3.28,3.37-3.9,3.8-4.8,4.53-6.25,6.06-9.15,29-47.07,4.53-6.24,3.8-4.8,3.36-3.9,3.07-3.28,2.87-2.8,2.7-2.45,2.6-2.13,2.5-1.9,2.42-1.7,2.38-1.5,2.34-1.35,2.32-1.22,2.3-1.08,2.33-.98,2.32-.86,2.35-.77,2.4-.66,2.44-.57,2.5-.48,2.6-.4,2.65-.27,2.78-.17h.4"/>
  <path class="cls-8" d="M1068.29,329.18l-2.62.07v-4.95l2.5-.05.12,4.93ZM1225.67,193.85h-2.56v-4.95h2.56v4.95Z"/>
  <path class="cls-3" d="M396.2,439.54l-1.8-.1-2.06-.23-2-.3-1.98-.37-1.94-.46-1.92-.53-1.9-.62-1.9-.7-1.9-.8-1.9-.9-1.92-1-1.95-1.13-1.97-1.26-2.03-1.4-2.1-1.6-2.15-1.8-2.25-2-2.35-2.32-2.5-2.65-2.65-3.1-2.87-3.62-3.14-4.33-3.53-5.3-4.08-6.75-5.02-9.14-7.2-14.6-28.2-61-5-9.14-4.08-6.74-3.52-5.3-3.14-4.34-2.87-3.62-2.66-3.08-2.48-2.66-2.35-2.3-2.25-2.03-2.16-1.8-2.1-1.58-2.02-1.4-1.98-1.27-1.95-1.12-1.9-1-1.92-.9-1.9-.8-1.9-.7-1.9-.63-1.9-.53-1.95-.46-1.97-.37-2-.3-2.07-.23-1.82-.1"/>
  <path class="cls-7" d="M398.72,437.13v4.95l-2.63-.05.1-4.95,2.53.05ZM241.27,256.6v4.95h-2.56v-4.95h2.56Z"/>
  <path class="cls-5" d="M1068.17,326.68l.97-.05,1.68-.18,1.64-.24,1.63-.3,1.6-.4,1.6-.43,1.6-.52,1.6-.6,1.6-.67,1.63-.75,1.64-.87,1.67-.96,1.7-1.1,1.76-1.2,1.8-1.38,1.9-1.56,1.94-1.76,2.06-2,2.16-2.32,2.3-2.67,2.47-3.12,2.66-3.67,2.93-4.4,3.26-5.4,3.72-6.8,4.4-8.88,5.57-12.57,8.64-22,27.3-73.84,5.58-12.56,4.4-8.9,3.72-6.78,3.27-5.4,2.93-4.4,2.67-3.7,2.47-3.1,2.3-2.67,2.16-2.3,2.06-2.02,1.95-1.76,1.9-1.55,1.8-1.4,1.76-1.2,1.7-1.1,1.68-.96,1.64-.86,1.63-.76,1.6-.68,1.6-.6,1.6-.5,1.6-.46,1.6-.37,1.64-.3,1.64-.25,1.68-.17.97-.06"/>
  <path class="cls-8" d="M1068.29,329.18l-2.62.07v-4.95l2.5-.05.12,4.93ZM1225.67,103.58h-2.56v-4.94h2.56v4.94Z"/>
  <path class="cls-3" d="M396.2,439.68l-1.8.1-2.06.22-2,.3-1.98.37-1.94.45-1.92.53-1.9.62-1.9.7-1.9.8-1.9.9-1.92,1-1.95,1.13-1.97,1.26-2.03,1.4-2.1,1.6-2.15,1.78-2.25,2.02-2.35,2.3-2.5,2.66-2.65,3.1-2.87,3.6-3.14,4.34-3.53,5.3-4.08,6.75-5.02,9.14-7.2,14.6-28.2,61-5,9.13-4.08,6.74-3.52,5.3-3.14,4.34-2.87,3.63-2.66,3.1-2.48,2.64-2.35,2.3-2.25,2.03-2.16,1.8-2.1,1.58-2.02,1.4-1.98,1.27-1.95,1.12-1.9,1-1.92.9-1.9.8-1.9.7-1.9.63-1.9.53-1.95.46-1.97.36-2,.3-2.07.22-1.82.1"/>
  <path class="cls-7" d="M398.72,442.08l-2.53.05-.1-4.95,2.62-.05v4.95ZM241.27,622.61h-2.56v-4.95h2.55v4.95Z"/>
  <path class="cls-1" d="M1214.66,522.3h122.18v60.27h-122.17v-60.27Z"/>
  <path id="W-4" data-name="W" d="M1235.09,558.89l4.42-12.18h1.8l4.48,12.18h-1.63l-1.22-3.4h-5.02l-1.18,3.4h-1.65ZM1238.39,554.14h4.06c-.84-2.37-1.19-3.19-2.05-6.18-.88,3.08-1.19,3.76-2.01,6.18"/>
  <path id="X-3" data-name="X" d="M1250.93,559.09c-2.28,0-3.87-1.83-3.87-4.74s1.59-4.71,3.87-4.71c1.78,0,2.35,1.1,2.65,1.58h.11v-4.5h1.47v12.18h-1.42v-1.41h-.16c-.3.51-.92,1.61-2.66,1.61ZM1251.15,557.77c1.66,0,2.57-1.41,2.57-3.44s-.88-3.38-2.57-3.38-2.59,1.48-2.59,3.38.88,3.44,2.59,3.44"/>
  <path id="Y-4" data-name="Y" d="M1257.76,558.89v-9.14h1.43v1.68c.46-1.23,1.49-1.84,2.57-1.84,1.2,0,2,.74,2.33,1.86.43-1.15,1.55-1.86,2.88-1.86,1.59,0,2.88,1.02,2.88,3.14v6.16h-1.48v-6.12c0-1.32-.86-1.84-1.84-1.84-1.23,0-1.99.84-1.99,1.99v5.97h-1.47v-6.27c0-1.01-.76-1.69-1.79-1.69s-2.04.75-2.04,2.21v5.75h-1.47"/>
  <path id="Z-11" data-name="Z" d="M1272.42,558.89v-9.14h1.47v9.14h-1.47ZM1273.16,548.26c-.56,0-1.02-.43-1.02-.97s.47-.97,1.02-.97,1.03.43,1.03.97-.47.97-1.03.97"/>
  <path id="V-15" data-name="V" d="M1279.58,559.09c-1.88,0-3.19-.83-3.51-2.41l1.4-.34c.26,1.01,1.01,1.45,2.1,1.45,1.28,0,2.09-.63,2.09-1.38,0-.63-.44-1.05-1.34-1.26l-1.52-.36c-1.66-.39-2.45-1.21-2.45-2.49,0-1.57,1.44-2.66,3.38-2.66s2.87.92,3.29,2.2l-1.33.34c-.25-.65-.77-1.29-1.95-1.29-1.09,0-1.9.56-1.9,1.32,0,.68.47,1.05,1.54,1.31l1.38.33c1.66.39,2.44,1.22,2.44,2.47,0,1.6-1.46,2.77-3.6,2.77"/>
  <path id="V-16" data-name="V" d="M1288.42,559.09c-1.88,0-3.19-.83-3.51-2.41l1.4-.34c.26,1.01,1.01,1.45,2.1,1.45,1.28,0,2.09-.63,2.09-1.38,0-.63-.44-1.05-1.34-1.26l-1.52-.36c-1.66-.39-2.45-1.21-2.45-2.49,0-1.57,1.44-2.66,3.38-2.66s2.87.92,3.29,2.2l-1.33.34c-.25-.65-.77-1.29-1.95-1.29-1.09,0-1.9.56-1.9,1.32,0,.68.47,1.05,1.54,1.31l1.38.33c1.66.39,2.44,1.22,2.44,2.47,0,1.6-1.46,2.77-3.6,2.77"/>
  <path id="Z-12" data-name="Z" d="M1294.15,558.89v-9.14h1.47v9.14h-1.47ZM1294.89,548.26c-.56,0-1.02-.43-1.02-.97s.47-.97,1.02-.97,1.03.43,1.03.97-.47.97-1.03.97"/>
  <path id="S-7" data-name="S" d="M1301.92,559.09c-2.48,0-4.16-1.89-4.16-4.71s1.68-4.74,4.16-4.74,4.18,1.88,4.18,4.74-1.68,4.71-4.18,4.71ZM1301.92,557.77c1.85,0,2.69-1.59,2.69-3.39s-.84-3.42-2.69-3.42-2.66,1.6-2.66,3.42.84,3.39,2.66,3.39"/>
  <path id="aa-5" data-name="aa" d="M1309.71,553.42v5.48h-1.47v-9.14h1.41v1.69c.6-1.29,1.58-1.81,2.8-1.81,1.85,0,3.09,1.14,3.09,3.45v5.8h-1.47v-5.68c0-1.41-.78-2.25-2.06-2.25s-2.31.89-2.31,2.45"/>
  <path class="cls-1" d="M1214.66,161.24h110.85v60.27h-110.85v-60.27Z"/>
  <path id="ab-2" data-name="ab" d="M1238.41,197.84l-3.32-12.18h1.59c.88,3.59,1.9,6.99,2.65,10.73.75-3.75,1.81-7.14,2.71-10.73h1.77c.9,3.58,1.91,6.98,2.7,10.68.75-3.72,1.77-7.1,2.64-10.68h1.6l-3.33,12.18h-1.81l-2.09-7.72c-.21-.78-.41-1.63-.6-2.71-.18,1-.36,1.82-.6,2.71l-2.08,7.72h-1.81"/>
  <path id="U-15" data-name="U" d="M1255.44,198.03c-2.65,0-4.28-1.88-4.28-4.69s1.62-4.76,4.11-4.76c1.94,0,3.98,1.19,3.98,4.57v.61h-6.6c.07,1.91,1.19,2.96,2.8,2.96,1.08,0,1.89-.47,2.23-1.41l1.42.39c-.43,1.38-1.79,2.32-3.66,2.32ZM1252.65,192.52h5.1c-.14-1.55-.98-2.63-2.48-2.63s-2.53,1.23-2.62,2.63"/>
  <path id="ac-5" data-name="ac" d="M1262.83,185.66v12.18h-1.47v-12.18h1.47"/>
  <path id="ac-6" data-name="ac" d="M1266.89,185.66v12.18h-1.47v-12.18h1.47"/>
  <path id="aa-6" data-name="aa" d="M1270.94,192.36v5.48h-1.47v-9.14h1.41v1.69c.6-1.29,1.58-1.81,2.8-1.81,1.85,0,3.09,1.14,3.09,3.45v5.8h-1.47v-5.68c0-1.41-.78-2.25-2.06-2.25s-2.31.89-2.31,2.45"/>
  <path id="U-16" data-name="U" d="M1283.2,198.03c-2.65,0-4.28-1.88-4.28-4.69s1.62-4.76,4.11-4.76c1.94,0,3.98,1.19,3.98,4.57v.61h-6.6c.07,1.91,1.19,2.96,2.8,2.96,1.08,0,1.89-.47,2.23-1.41l1.42.39c-.43,1.38-1.79,2.32-3.66,2.32ZM1280.41,192.52h5.1c-.14-1.55-.98-2.63-2.48-2.63s-2.53,1.23-2.62,2.63"/>
  <path id="V-17" data-name="V" d="M1292.22,198.03c-1.88,0-3.19-.83-3.51-2.41l1.4-.34c.26,1.01,1.01,1.45,2.1,1.45,1.28,0,2.09-.63,2.09-1.38,0-.63-.44-1.05-1.34-1.26l-1.52-.36c-1.66-.39-2.45-1.21-2.45-2.49,0-1.57,1.44-2.66,3.38-2.66s2.87.92,3.29,2.2l-1.33.34c-.25-.65-.77-1.29-1.95-1.29-1.09,0-1.9.56-1.9,1.32,0,.68.47,1.05,1.54,1.31l1.38.33c1.66.39,2.44,1.22,2.44,2.47,0,1.6-1.46,2.77-3.6,2.77"/>
  <path id="V-18" data-name="V" d="M1301.06,198.03c-1.88,0-3.19-.83-3.51-2.41l1.4-.34c.26,1.01,1.01,1.45,2.1,1.45,1.28,0,2.09-.63,2.09-1.38,0-.63-.44-1.05-1.34-1.26l-1.52-.36c-1.66-.39-2.45-1.21-2.45-2.49,0-1.57,1.44-2.66,3.38-2.66s2.87.92,3.29,2.2l-1.33.34c-.25-.65-.77-1.29-1.95-1.29-1.09,0-1.9.56-1.9,1.32,0,.68.47,1.05,1.54,1.31l1.38.33c1.66.39,2.44,1.22,2.44,2.47,0,1.6-1.46,2.77-3.6,2.77"/>
  <path class="cls-5" d="M1068.17,326.86l.97.06,1.68.17,1.64.26,1.63.3,1.6.38,1.6.45,1.6.5,1.6.6,1.6.68,1.63.76,1.64.86,1.67.97,1.7,1.1,1.76,1.2,1.8,1.38,1.9,1.56,1.94,1.77,2.06,2,2.16,2.32,2.3,2.66,2.47,3.1,2.66,3.7,2.93,4.4,3.26,5.4,3.72,6.8,4.4,8.88,5.57,12.57,8.64,22,27.3,73.84,5.58,12.57,4.4,8.9,3.72,6.78,3.27,5.4,2.93,4.42,2.67,3.68,2.47,3.1,2.3,2.68,2.16,2.3,2.06,2.02,1.95,1.76,1.9,1.56,1.8,1.37,1.76,1.23,1.7,1.08,1.68.97,1.64.86,1.63.77,1.6.68,1.6.6,1.6.5,1.6.45,1.6.38,1.64.3,1.64.25,1.68.18.97.07"/>
  <path class="cls-8" d="M1068.29,324.35l-.1,4.95-2.52-.05v-4.95l2.62.05ZM1225.67,549.96v4.95h-2.56v-4.95h2.56Z"/>
  <path class="cls-1" d="M1214.66,432.04h95.45v60.26h-95.45v-60.26Z"/>
  <path id="ad-2" data-name="ad" d="M1236.14,468.63v-12.18h1.55v10.81h5.64v1.37h-7.19"/>
  <path id="Z-13" data-name="Z" d="M1245.42,468.63v-9.14h1.47v9.14h-1.47ZM1246.16,458c-.56,0-1.02-.43-1.02-.97s.47-.97,1.02-.97,1.03.43,1.03.97-.47.97-1.03.97"/>
  <path id="ae-4" data-name="ae" d="M1253.72,468.83c-1.74,0-2.35-1.1-2.66-1.61h-.16v1.41h-1.42v-12.18h1.47v4.5h.11c.3-.48.87-1.58,2.65-1.58,2.28,0,3.87,1.81,3.87,4.71s-1.59,4.74-3.87,4.74ZM1253.5,467.51c1.71,0,2.59-1.52,2.59-3.44s-.86-3.38-2.59-3.38-2.57,1.36-2.57,3.38.91,3.44,2.57,3.44"/>
  <path id="R-12" data-name="R" d="M1259.73,468.63v-9.14h1.42v1.41h.1c.34-.92,1.28-1.54,2.37-1.54.21,0,.57.02.74.02v1.48c-.09-.02-.49-.08-.88-.08-1.32,0-2.28.89-2.28,2.13v5.72h-1.47"/>
  <path id="af-8" data-name="af" d="M1268.59,468.84c-1.73,0-3.11-1.01-3.11-2.81,0-2.09,1.86-2.48,3.56-2.69,1.65-.22,2.35-.13,2.35-.88,0-1.14-.65-1.79-1.91-1.79s-2.03.7-2.31,1.34l-1.41-.47c.7-1.66,2.27-2.17,3.69-2.17,1.23,0,3.42.38,3.42,3.23v6.02h-1.45v-1.24h-.1c-.31.65-1.17,1.45-2.71,1.45ZM1268.84,467.54c1.63,0,2.53-1.1,2.53-2.22v-1.27c-.25.29-1.85.45-2.41.52-1.07.14-2.01.48-2.01,1.52,0,.95.79,1.44,1.89,1.44"/>
  <path id="R-13" data-name="R" d="M1275.43,468.63v-9.14h1.42v1.41h.1c.34-.92,1.28-1.54,2.37-1.54.21,0,.57.02.74.02v1.48c-.09-.02-.49-.08-.88-.08-1.32,0-2.28.89-2.28,2.13v5.72h-1.47"/>
  <path id="ag-6" data-name="ag" d="M1281.84,471.94l.38-1.28c.98.29,1.68.16,2.15-1.23l.26-.76-3.49-9.19h1.61c.87,2.56,1.94,5.07,2.65,7.77.71-2.71,1.79-5.21,2.66-7.77h1.6l-4.01,10.5c-.56,1.45-1.44,2.12-2.73,2.12-.52,0-.92-.1-1.08-.17"/>
  <path class="cls-1" d="M1214.66,70.98h93.48v60.26h-93.47v-60.26Z"/>
  <path id="ah-2" data-name="ah" d="M1241.06,107.73c-3.12,0-5.4-2.39-5.4-6.24s2.28-6.26,5.4-6.26c2.47,0,4.48,1.49,4.91,4h-1.55c-.34-1.67-1.77-2.56-3.36-2.56-2.19,0-3.89,1.7-3.89,4.82s1.71,4.81,3.89,4.81c1.59,0,3.02-.9,3.36-2.56h1.55c-.43,2.48-2.42,4-4.91,4"/>
  <path id="af-9" data-name="af" d="M1250.74,107.78c-1.73,0-3.11-1.01-3.11-2.81,0-2.09,1.86-2.48,3.56-2.69,1.65-.22,2.35-.13,2.35-.88,0-1.14-.65-1.79-1.91-1.79s-2.03.7-2.31,1.34l-1.41-.47c.7-1.66,2.27-2.17,3.69-2.17,1.23,0,3.42.38,3.42,3.23v6.02h-1.45v-1.24h-.1c-.31.65-1.17,1.45-2.71,1.45ZM1251,106.48c1.63,0,2.53-1.1,2.53-2.22v-1.27c-.25.29-1.85.45-2.41.52-1.07.14-2.01.48-2.01,1.52,0,.95.79,1.44,1.89,1.44"/>
  <path id="R-14" data-name="R" d="M1257.58,107.57v-9.14h1.42v1.41h.1c.34-.92,1.28-1.54,2.37-1.54.21,0,.57.02.74.02v1.48c-.09-.02-.49-.08-.88-.08-1.32,0-2.28.89-2.28,2.13v5.72h-1.47"/>
  <path id="U-17" data-name="U" d="M1267.45,107.77c-2.65,0-4.28-1.88-4.28-4.69s1.62-4.76,4.11-4.76c1.94,0,3.98,1.19,3.98,4.57v.61h-6.6c.07,1.91,1.19,2.96,2.8,2.96,1.08,0,1.89-.47,2.23-1.41l1.42.39c-.43,1.38-1.79,2.32-3.66,2.32ZM1264.66,102.26h5.1c-.14-1.55-.98-2.63-2.48-2.63s-2.53,1.23-2.62,2.63"/>
  <path id="U-18" data-name="U" d="M1277.21,107.77c-2.65,0-4.28-1.88-4.28-4.69s1.62-4.76,4.11-4.76c1.94,0,3.98,1.19,3.98,4.57v.61h-6.6c.07,1.91,1.19,2.96,2.8,2.96,1.08,0,1.89-.47,2.23-1.41l1.42.39c-.43,1.38-1.79,2.32-3.66,2.32ZM1274.42,102.26h5.1c-.14-1.55-.98-2.63-2.48-2.63s-2.53,1.23-2.62,2.63"/>
  <path id="R-15" data-name="R" d="M1283.13,107.57v-9.14h1.42v1.41h.1c.34-.92,1.28-1.54,2.37-1.54.21,0,.57.02.74.02v1.48c-.09-.02-.49-.08-.88-.08-1.32,0-2.28.89-2.28,2.13v5.72h-1.47"/>
  <path class="cls-1" d="M154.09,409.48h84.62v60.26h-84.63v-60.26Z"/>
  <path id="ai-2" data-name="ai" d="M175.96,446.06v-12.18h1.83l4.95,7.79c.33.51.88,1.45,1.44,2.55-.22-3.57-.06-6.71-.11-10.34h1.55v12.18h-1.85c-2.26-3.66-4.21-6.36-6.38-10.32.22,3.89.09,6.47.12,10.32h-1.56"/>
  <path id="U-19" data-name="U" d="M192.23,446.26c-2.65,0-4.28-1.88-4.28-4.69s1.62-4.76,4.11-4.76c1.94,0,3.98,1.19,3.98,4.57v.61h-6.6c.07,1.91,1.19,2.96,2.8,2.96,1.08,0,1.89-.47,2.23-1.41l1.42.39c-.43,1.38-1.79,2.32-3.66,2.32ZM189.45,440.75h5.1c-.14-1.55-.98-2.63-2.48-2.63s-2.53,1.23-2.62,2.63"/>
  <path id="aj-3" data-name="aj" d="M199.9,446.06l-2.77-9.14h1.56c.73,2.69,1.35,4.58,1.99,7.56.61-2.89,1.26-4.91,1.96-7.56h1.57c.69,2.66,1.32,4.61,1.92,7.54.63-2.89,1.28-4.89,1.99-7.54h1.56l-2.77,9.14h-1.46c-.7-2.51-1.44-4.82-2.04-7.46-.61,2.66-1.33,4.95-2.04,7.46h-1.46"/>
  <path id="V-19" data-name="V" d="M214.65,446.26c-1.88,0-3.19-.83-3.51-2.41l1.4-.34c.26,1.01,1.01,1.45,2.1,1.45,1.28,0,2.09-.63,2.09-1.38,0-.63-.44-1.05-1.34-1.26l-1.52-.36c-1.66-.39-2.45-1.21-2.45-2.49,0-1.57,1.44-2.66,3.38-2.66s2.87.92,3.29,2.2l-1.33.34c-.25-.65-.77-1.29-1.95-1.29-1.09,0-1.9.56-1.9,1.32,0,.68.47,1.05,1.54,1.31l1.38.33c1.66.39,2.44,1.22,2.44,2.47,0,1.6-1.46,2.77-3.6,2.77"/>
  <path class="cls-1" d="M1214.66,341.78h105.6v60.26h-105.6v-60.26Z"/>
  <path id="ak-4" data-name="ak" d="M1235.47,367.56v-1.37h9.2v1.37h-3.82v10.81h-1.55v-10.81h-3.83"/>
  <path id="al-4" data-name="al" d="M1248.63,378.48c-1.85,0-3.1-1.14-3.1-3.45v-5.8h1.47v5.68c0,1.41.79,2.25,2.07,2.25s2.3-.89,2.3-2.45v-5.48h1.48v9.14h-1.42v-1.71c-.6,1.33-1.59,1.82-2.8,1.82"/>
  <path id="am-5" data-name="am" d="M1259.02,369.23v1.26h-1.88v5.51c0,.82.3,1.18,1.08,1.18.19,0,.51-.05.75-.1l.3,1.24c-.3.11-.72.16-1.1.16-1.58,0-2.51-.87-2.51-2.37v-5.62h-1.37v-1.26h1.37v-2.17h1.47v2.17h1.88"/>
  <path id="S-8" data-name="S" d="M1264.46,378.56c-2.48,0-4.16-1.89-4.16-4.71s1.68-4.74,4.16-4.74,4.18,1.88,4.18,4.74-1.68,4.71-4.18,4.71ZM1264.46,377.24c1.85,0,2.69-1.59,2.69-3.39s-.84-3.42-2.69-3.42-2.66,1.6-2.66,3.42.84,3.39,2.66,3.39"/>
  <path id="R-16" data-name="R" d="M1270.78,378.36v-9.14h1.42v1.41h.1c.34-.92,1.28-1.54,2.37-1.54.21,0,.57.02.74.02v1.48c-.09-.02-.49-.08-.88-.08-1.32,0-2.28.89-2.28,2.13v5.72h-1.47"/>
  <path id="Z-14" data-name="Z" d="M1277.34,378.36v-9.14h1.47v9.14h-1.47ZM1278.08,367.73c-.56,0-1.02-.43-1.02-.97s.47-.97,1.02-.97,1.03.43,1.03.97-.47.97-1.03.97"/>
  <path id="aa-7" data-name="aa" d="M1282.87,372.89v5.48h-1.47v-9.14h1.41v1.69c.6-1.29,1.58-1.81,2.8-1.81,1.85,0,3.09,1.14,3.09,3.45v5.8h-1.47v-5.68c0-1.41-.78-2.25-2.06-2.25s-2.31.89-2.31,2.45"/>
  <path id="an-3" data-name="an" d="M1294.99,381.98c-2.03,0-3.2-.86-3.76-1.86l1.19-.77c.38.53.96,1.35,2.57,1.35,1.45,0,2.51-.67,2.51-2.17v-1.83h-.14c-.31.52-.89,1.53-2.66,1.53-2.19,0-3.86-1.59-3.86-4.46s1.61-4.64,3.89-4.64c1.77,0,2.35,1.09,2.66,1.58h.14v-1.46h1.43v9.38c0,2.36-1.76,3.38-3.98,3.38ZM1294.95,376.91c1.66,0,2.57-1.19,2.57-3.19s-.88-3.29-2.57-3.29-2.61,1.47-2.61,3.29.89,3.19,2.61,3.19"/>
  <path class="cls-1" d="M1214.66,251.51h139.8v60.26h-139.8v-60.26Z"/>
  <path id="W-5" data-name="W" d="M1235.09,288.1l4.42-12.18h1.8l4.48,12.18h-1.63l-1.22-3.4h-5.02l-1.18,3.4h-1.65ZM1238.39,283.34h4.06c-.84-2.37-1.19-3.19-2.05-6.18-.88,3.08-1.19,3.76-2.01,6.18"/>
  <path id="T-5" data-name="T" d="M1251.22,288.3c-2.48,0-4.16-1.89-4.16-4.71s1.68-4.74,4.16-4.74c1.77,0,3.2.93,3.7,2.53l-1.41.4c-.27-.94-1.09-1.61-2.29-1.61-1.82,0-2.66,1.6-2.66,3.42s.84,3.39,2.66,3.39c1.23,0,2.06-.69,2.33-1.68l1.41.4c-.49,1.63-1.95,2.6-3.74,2.6"/>
  <path id="T-6" data-name="T" d="M1260.79,288.3c-2.48,0-4.16-1.89-4.16-4.71s1.68-4.74,4.16-4.74c1.77,0,3.2.93,3.7,2.53l-1.41.4c-.27-.94-1.09-1.61-2.29-1.61-1.82,0-2.66,1.6-2.66,3.42s.84,3.39,2.66,3.39c1.23,0,2.06-.69,2.33-1.68l1.41.4c-.49,1.63-1.95,2.6-3.74,2.6"/>
  <path id="U-20" data-name="U" d="M1270.47,288.3c-2.65,0-4.28-1.88-4.28-4.69s1.62-4.76,4.11-4.76c1.94,0,3.98,1.19,3.98,4.57v.61h-6.6c.07,1.91,1.19,2.96,2.8,2.96,1.08,0,1.89-.47,2.23-1.41l1.42.39c-.43,1.38-1.79,2.32-3.66,2.32ZM1267.69,282.79h5.1c-.14-1.55-.98-2.63-2.48-2.63s-2.53,1.23-2.62,2.63"/>
  <path id="V-20" data-name="V" d="M1279.5,288.3c-1.88,0-3.19-.83-3.51-2.41l1.4-.34c.26,1.01,1.01,1.45,2.1,1.45,1.28,0,2.09-.63,2.09-1.38,0-.63-.44-1.05-1.34-1.26l-1.52-.36c-1.66-.39-2.45-1.21-2.45-2.49,0-1.57,1.44-2.66,3.38-2.66s2.87.92,3.29,2.2l-1.33.34c-.25-.65-.77-1.29-1.95-1.29-1.09,0-1.9.56-1.9,1.32,0,.68.47,1.05,1.54,1.31l1.38.33c1.66.39,2.44,1.22,2.44,2.47,0,1.6-1.46,2.77-3.6,2.77"/>
  <path id="V-21" data-name="V" d="M1288.33,288.3c-1.88,0-3.19-.83-3.51-2.41l1.4-.34c.26,1.01,1.01,1.45,2.1,1.45,1.28,0,2.09-.63,2.09-1.38,0-.63-.44-1.05-1.34-1.26l-1.52-.36c-1.66-.39-2.45-1.21-2.45-2.49,0-1.57,1.44-2.66,3.38-2.66s2.87.92,3.29,2.2l-1.33.34c-.25-.65-.77-1.29-1.95-1.29-1.09,0-1.9.56-1.9,1.32,0,.68.47,1.05,1.54,1.31l1.38.33c1.66.39,2.44,1.22,2.44,2.47,0,1.6-1.46,2.77-3.6,2.77"/>
  <path id="Z-15" data-name="Z" d="M1294.06,288.1v-9.14h1.47v9.14h-1.47ZM1294.81,277.47c-.56,0-1.02-.43-1.02-.97s.47-.97,1.02-.97,1.03.43,1.03.97-.47.97-1.03.97"/>
  <path id="ae-5" data-name="ae" d="M1302.36,288.3c-1.74,0-2.35-1.1-2.66-1.61h-.16v1.41h-1.42v-12.18h1.47v4.5h.11c.3-.48.87-1.58,2.65-1.58,2.28,0,3.87,1.81,3.87,4.71s-1.59,4.74-3.87,4.74ZM1302.14,286.98c1.71,0,2.59-1.52,2.59-3.44s-.86-3.38-2.59-3.38-2.57,1.36-2.57,3.38.91,3.44,2.57,3.44"/>
  <path id="Z-16" data-name="Z" d="M1308.37,288.1v-9.14h1.47v9.14h-1.47ZM1309.11,277.47c-.56,0-1.02-.43-1.02-.97s.47-.97,1.02-.97,1.03.43,1.03.97-.47.97-1.03.97"/>
  <path id="ac-7" data-name="ac" d="M1313.89,275.92v12.18h-1.47v-12.18h1.47"/>
  <path id="Z-17" data-name="Z" d="M1316.48,288.1v-9.14h1.47v9.14h-1.47ZM1317.22,277.47c-.56,0-1.02-.43-1.02-.97s.47-.97,1.02-.97,1.03.43,1.03.97-.47.97-1.03.97"/>
  <path id="am-6" data-name="am" d="M1324.13,278.96v1.26h-1.88v5.51c0,.82.3,1.18,1.08,1.18.19,0,.51-.05.75-.1l.3,1.24c-.3.11-.72.16-1.1.16-1.58,0-2.51-.87-2.51-2.37v-5.62h-1.37v-1.26h1.37v-2.17h1.47v2.17h1.88"/>
  <path id="ag-7" data-name="ag" d="M1326.19,291.41l.38-1.28c.98.29,1.68.16,2.15-1.23l.26-.76-3.49-9.19h1.61c.87,2.56,1.94,5.07,2.65,7.77.71-2.71,1.79-5.21,2.66-7.77h1.6l-4.01,10.5c-.56,1.45-1.44,2.12-2.73,2.12-.52,0-.92-.1-1.08-.17"/>
  <path class="cls-1" d="M968.99,296.64h108.7v60.27h-108.7v-60.27Z"/>
  <path id="ao-3" data-name="ao" d="M994.35,333.44c-2.64,0-4.28-1.36-4.42-3.4h1.59c.12,1.38,1.4,2.01,2.83,2.01,1.65,0,2.91-.87,2.91-2.17.04-1.66-2.4-1.95-3.88-2.39-1.95-.6-3.11-1.56-3.11-3.18,0-2.06,1.83-3.42,4.18-3.42s4.08,1.4,4.15,3.24h-1.52c-.14-1.19-1.23-1.86-2.68-1.86-1.58,0-2.62.83-2.62,1.98,0,1.28,1.43,1.72,2.32,1.97l1.22.34c1.31.36,3.45,1.1,3.45,3.37,0,1.99-1.61,3.53-4.42,3.53"/>
  <path id="U-21" data-name="U" d="M1004.86,333.43c-2.65,0-4.28-1.88-4.28-4.69s1.62-4.76,4.11-4.76c1.94,0,3.98,1.19,3.98,4.57v.61h-6.6c.07,1.91,1.19,2.96,2.8,2.96,1.08,0,1.89-.47,2.23-1.41l1.42.39c-.43,1.38-1.79,2.32-3.66,2.32ZM1002.07,327.92h5.1c-.14-1.55-.98-2.63-2.48-2.63s-2.53,1.23-2.62,2.63"/>
  <path id="R-17" data-name="R" d="M1010.78,333.23v-9.14h1.42v1.41h.1c.34-.92,1.28-1.54,2.37-1.54.21,0,.57.02.74.02v1.48c-.09-.02-.49-.08-.88-.08-1.32,0-2.28.89-2.28,2.13v5.72h-1.47"/>
  <path id="ap-2" data-name="ap" d="M1019.98,333.23l-3.49-9.14h1.61c.87,2.57,1.93,5.07,2.66,7.77.71-2.71,1.77-5.21,2.65-7.77h1.61l-3.49,9.14h-1.54"/>
  <path id="Z-18" data-name="Z" d="M1026.75,333.23v-9.14h1.47v9.14h-1.47ZM1027.49,322.6c-.56,0-1.02-.43-1.02-.97s.47-.97,1.02-.97,1.03.43,1.03.97-.47.97-1.03.97"/>
  <path id="T-7" data-name="T" d="M1034.52,333.43c-2.48,0-4.16-1.89-4.16-4.71s1.68-4.74,4.16-4.74c1.77,0,3.2.93,3.7,2.53l-1.41.4c-.27-.94-1.09-1.61-2.29-1.61-1.82,0-2.66,1.6-2.66,3.42s.84,3.39,2.66,3.39c1.23,0,2.06-.69,2.33-1.68l1.41.4c-.49,1.63-1.95,2.6-3.74,2.6"/>
  <path id="U-22" data-name="U" d="M1044.21,333.43c-2.65,0-4.28-1.88-4.28-4.69s1.62-4.76,4.11-4.76c1.94,0,3.98,1.19,3.98,4.57v.61h-6.6c.07,1.91,1.19,2.96,2.8,2.96,1.08,0,1.89-.47,2.23-1.41l1.42.39c-.43,1.38-1.79,2.32-3.66,2.32ZM1041.42,327.92h5.1c-.14-1.55-.98-2.63-2.48-2.63s-2.53,1.23-2.62,2.63"/>
  <path id="V-22" data-name="V" d="M1053.23,333.43c-1.88,0-3.19-.83-3.51-2.41l1.4-.34c.26,1.01,1.01,1.45,2.1,1.45,1.28,0,2.09-.63,2.09-1.38,0-.63-.44-1.05-1.34-1.26l-1.52-.36c-1.66-.39-2.45-1.21-2.45-2.49,0-1.57,1.44-2.66,3.38-2.66s2.87.92,3.29,2.2l-1.33.34c-.25-.65-.77-1.29-1.95-1.29-1.09,0-1.9.56-1.9,1.32,0,.68.47,1.05,1.54,1.31l1.38.33c1.66.39,2.44,1.22,2.44,2.47,0,1.6-1.46,2.77-3.6,2.77"/>
  <path class="cls-1" d="M388.71,409.48h126.34v60.26h-126.34v-60.26Z"/>
  <path id="aq-2" data-name="aq" d="M414.63,446.06h-3.8v-12.18h3.96c3.56,0,5.66,2.29,5.66,6.06s-2.1,6.11-5.81,6.11ZM412.38,444.69h2.15c2.97,0,4.41-1.78,4.41-4.74s-1.44-4.69-4.26-4.69h-2.3v9.43"/>
  <path id="af-10" data-name="af" d="M425.29,446.28c-1.73,0-3.11-1.01-3.11-2.81,0-2.09,1.86-2.48,3.56-2.69,1.65-.22,2.35-.13,2.35-.88,0-1.14-.65-1.79-1.91-1.79s-2.03.7-2.31,1.34l-1.41-.47c.7-1.66,2.27-2.17,3.69-2.17,1.23,0,3.42.38,3.42,3.23v6.02h-1.45v-1.24h-.1c-.31.65-1.17,1.45-2.71,1.45ZM425.54,444.98c1.63,0,2.53-1.1,2.53-2.22v-1.27c-.25.29-1.85.45-2.41.52-1.07.14-2.01.48-2.01,1.52,0,.95.79,1.44,1.89,1.44"/>
  <path id="V-23" data-name="V" d="M435.24,446.26c-1.88,0-3.19-.83-3.51-2.41l1.4-.34c.26,1.01,1.01,1.45,2.1,1.45,1.28,0,2.09-.63,2.09-1.38,0-.63-.44-1.05-1.34-1.26l-1.52-.36c-1.66-.39-2.45-1.21-2.45-2.49,0-1.57,1.44-2.66,3.38-2.66s2.87.92,3.29,2.2l-1.33.34c-.25-.65-.77-1.29-1.95-1.29-1.09,0-1.9.56-1.9,1.32,0,.68.47,1.05,1.54,1.31l1.38.33c1.66.39,2.44,1.22,2.44,2.47,0,1.6-1.46,2.77-3.6,2.77"/>
  <path id="ar-3" data-name="ar" d="M442.44,440.59v5.48h-1.47v-12.18h1.47v4.63c.6-1.22,1.55-1.7,2.75-1.7,1.85,0,3.1,1.14,3.1,3.45v5.8h-1.48v-5.68c0-1.41-.78-2.25-2.06-2.25s-2.31.89-2.31,2.45"/>
  <path id="ae-6" data-name="ae" d="M455.11,446.26c-1.74,0-2.35-1.1-2.66-1.61h-.16v1.41h-1.42v-12.18h1.47v4.5h.11c.3-.48.87-1.58,2.65-1.58,2.28,0,3.87,1.81,3.87,4.71s-1.59,4.74-3.87,4.74ZM454.89,444.94c1.71,0,2.59-1.52,2.59-3.44s-.86-3.38-2.59-3.38-2.57,1.36-2.57,3.38.91,3.44,2.57,3.44"/>
  <path id="S-9" data-name="S" d="M464.84,446.26c-2.48,0-4.16-1.89-4.16-4.71s1.68-4.74,4.16-4.74,4.18,1.88,4.18,4.74-1.68,4.71-4.18,4.71ZM464.84,444.94c1.85,0,2.69-1.59,2.69-3.39s-.84-3.42-2.69-3.42-2.66,1.6-2.66,3.42.84,3.39,2.66,3.39"/>
  <path id="af-11" data-name="af" d="M473.88,446.28c-1.73,0-3.11-1.01-3.11-2.81,0-2.09,1.86-2.48,3.56-2.69,1.65-.22,2.35-.13,2.35-.88,0-1.14-.65-1.79-1.91-1.79s-2.03.7-2.31,1.34l-1.41-.47c.7-1.66,2.27-2.17,3.69-2.17,1.23,0,3.42.38,3.42,3.23v6.02h-1.45v-1.24h-.1c-.31.65-1.17,1.45-2.71,1.45ZM474.13,444.98c1.63,0,2.53-1.1,2.53-2.22v-1.27c-.25.29-1.85.45-2.41.52-1.07.14-2.01.48-2.01,1.52,0,.95.79,1.44,1.89,1.44"/>
  <path id="R-18" data-name="R" d="M480.72,446.06v-9.14h1.42v1.41h.1c.34-.92,1.28-1.54,2.37-1.54.21,0,.57.02.74.02v1.48c-.09-.02-.49-.08-.88-.08-1.32,0-2.28.89-2.28,2.13v5.72h-1.47"/>
  <path id="X-4" data-name="X" d="M490.17,446.26c-2.28,0-3.87-1.83-3.87-4.74s1.59-4.71,3.87-4.71c1.78,0,2.35,1.1,2.65,1.58h.11v-4.5h1.47v12.18h-1.42v-1.41h-.16c-.3.51-.92,1.61-2.66,1.61ZM490.39,444.94c1.66,0,2.57-1.41,2.57-3.44s-.88-3.38-2.57-3.38-2.59,1.48-2.59,3.38.88,3.44,2.59,3.44"/>
  <path class="cls-1" d="M46.62,319.21h192.1v60.26H46.62v-60.26Z"/>
  <path id="Q-3" data-name="Q" d="M69.02,355.8v-12.18h4.17c2.84,0,4.15,1.71,4.15,3.87s-1.31,3.9-4.14,3.9h-2.62v4.41h-1.55ZM70.57,350.03h2.55c1.93,0,2.67-1.09,2.67-2.53s-.74-2.51-2.69-2.51h-2.53v5.04"/>
  <path id="af-12" data-name="af" d="M82.09,356.01c-1.73,0-3.11-1.01-3.11-2.81,0-2.09,1.86-2.48,3.56-2.69,1.65-.22,2.35-.13,2.35-.88,0-1.14-.65-1.79-1.91-1.79s-2.03.7-2.31,1.34l-1.41-.47c.7-1.66,2.27-2.17,3.69-2.17,1.23,0,3.42.38,3.42,3.23v6.02h-1.45v-1.24h-.1c-.31.65-1.17,1.45-2.71,1.45ZM82.34,354.71c1.63,0,2.53-1.1,2.53-2.22v-1.27c-.25.29-1.85.45-2.41.52-1.07.14-2.01.48-2.01,1.52,0,.95.79,1.44,1.89,1.44"/>
  <path id="am-7" data-name="am" d="M92.53,346.66v1.26h-1.88v5.51c0,.82.3,1.18,1.08,1.18.19,0,.51-.05.75-.1l.3,1.24c-.3.11-.72.16-1.1.16-1.58,0-2.51-.87-2.51-2.37v-5.62h-1.37v-1.26h1.37v-2.17h1.47v2.17h1.88"/>
  <path id="ar-4" data-name="ar" d="M95.88,350.32v5.48h-1.47v-12.18h1.47v4.63c.6-1.22,1.55-1.7,2.75-1.7,1.85,0,3.1,1.14,3.1,3.45v5.8h-1.48v-5.68c0-1.41-.78-2.25-2.06-2.25s-2.31.89-2.31,2.45"/>
  <path id="ag-8" data-name="ag" d="M103.91,359.11l.38-1.28c.98.29,1.68.16,2.15-1.23l.26-.76-3.49-9.19h1.61c.87,2.56,1.94,5.07,2.65,7.77.71-2.71,1.79-5.21,2.66-7.77h1.6l-4.01,10.5c-.56,1.45-1.44,2.12-2.73,2.12-.52,0-.92-.1-1.08-.17"/>
  <path id="aj-4" data-name="aj" d="M115.52,355.8l-2.77-9.14h1.56c.73,2.69,1.35,4.58,1.99,7.56.61-2.89,1.26-4.91,1.96-7.56h1.57c.69,2.66,1.32,4.61,1.92,7.54.63-2.89,1.28-4.89,1.99-7.54h1.56l-2.77,9.14h-1.46c-.7-2.51-1.44-4.82-2.04-7.46-.61,2.66-1.33,4.95-2.04,7.46h-1.46"/>
  <path id="af-13" data-name="af" d="M129.73,356.01c-1.73,0-3.11-1.01-3.11-2.81,0-2.09,1.86-2.48,3.56-2.69,1.65-.22,2.35-.13,2.35-.88,0-1.14-.65-1.79-1.91-1.79s-2.03.7-2.31,1.34l-1.41-.47c.7-1.66,2.27-2.17,3.69-2.17,1.23,0,3.42.38,3.42,3.23v6.02h-1.45v-1.24h-.1c-.31.65-1.17,1.45-2.71,1.45ZM129.98,354.71c1.63,0,2.53-1.1,2.53-2.22v-1.27c-.25.29-1.85.45-2.41.52-1.07.14-2.01.48-2.01,1.52,0,.95.79,1.44,1.89,1.44"/>
  <path id="ag-9" data-name="ag" d="M136.18,359.11l.38-1.28c.98.29,1.68.16,2.15-1.23l.26-.76-3.49-9.19h1.61c.87,2.56,1.94,5.07,2.65,7.77.71-2.71,1.79-5.21,2.66-7.77h1.6l-4.01,10.5c-.56,1.45-1.44,2.12-2.73,2.12-.52,0-.92-.1-1.08-.17"/>
  <path id="Q-4" data-name="Q" d="M150.62,355.8v-12.18h4.17c2.84,0,4.15,1.71,4.15,3.87s-1.31,3.9-4.14,3.9h-2.62v4.41h-1.55ZM152.17,350.03h2.55c1.93,0,2.67-1.09,2.67-2.53s-.74-2.51-2.69-2.51h-2.53v5.04"/>
  <path id="R-19" data-name="R" d="M161.13,355.8v-9.14h1.42v1.41h.1c.34-.92,1.28-1.54,2.37-1.54.21,0,.57.02.74.02v1.48c-.09-.02-.49-.08-.88-.08-1.32,0-2.28.89-2.28,2.13v5.72h-1.47"/>
  <path id="S-10" data-name="S" d="M170.87,355.99c-2.48,0-4.16-1.89-4.16-4.71s1.68-4.74,4.16-4.74,4.18,1.88,4.18,4.74-1.68,4.71-4.18,4.71ZM170.87,354.68c1.85,0,2.69-1.59,2.69-3.39s-.84-3.42-2.69-3.42-2.66,1.6-2.66,3.42.84,3.39,2.66,3.39"/>
  <path id="an-4" data-name="an" d="M180.9,359.41c-2.03,0-3.2-.86-3.76-1.86l1.19-.77c.38.53.96,1.35,2.57,1.35,1.45,0,2.51-.67,2.51-2.17v-1.83h-.14c-.31.52-.89,1.53-2.66,1.53-2.19,0-3.86-1.59-3.86-4.46s1.61-4.64,3.89-4.64c1.77,0,2.35,1.09,2.66,1.58h.14v-1.46h1.43v9.38c0,2.36-1.76,3.38-3.98,3.38ZM180.85,354.34c1.66,0,2.57-1.19,2.57-3.19s-.88-3.29-2.57-3.29-2.61,1.47-2.61,3.29.89,3.19,2.61,3.19"/>
  <path id="R-20" data-name="R" d="M187.46,355.8v-9.14h1.42v1.41h.1c.34-.92,1.28-1.54,2.37-1.54.21,0,.57.02.74.02v1.48c-.09-.02-.49-.08-.88-.08-1.32,0-2.28.89-2.28,2.13v5.72h-1.47"/>
  <path id="U-23" data-name="U" d="M197.32,355.99c-2.65,0-4.28-1.88-4.28-4.69s1.62-4.76,4.11-4.76c1.94,0,3.98,1.19,3.98,4.57v.61h-6.6c.07,1.91,1.19,2.96,2.8,2.96,1.08,0,1.89-.47,2.23-1.41l1.42.39c-.43,1.38-1.79,2.32-3.66,2.32ZM194.54,350.49h5.1c-.14-1.55-.98-2.63-2.48-2.63s-2.53,1.23-2.62,2.63"/>
  <path id="V-24" data-name="V" d="M206.35,355.99c-1.88,0-3.19-.83-3.51-2.41l1.4-.34c.26,1.01,1.01,1.45,2.1,1.45,1.28,0,2.09-.63,2.09-1.38,0-.63-.44-1.05-1.34-1.26l-1.52-.36c-1.66-.39-2.45-1.21-2.45-2.49,0-1.57,1.44-2.66,3.38-2.66s2.87.92,3.29,2.2l-1.33.34c-.25-.65-.77-1.29-1.95-1.29-1.09,0-1.9.56-1.9,1.32,0,.68.47,1.05,1.54,1.31l1.38.33c1.66.39,2.44,1.22,2.44,2.47,0,1.6-1.46,2.77-3.6,2.77"/>
  <path id="V-25" data-name="V" d="M215.18,355.99c-1.88,0-3.19-.83-3.51-2.41l1.4-.34c.26,1.01,1.01,1.45,2.1,1.45,1.28,0,2.09-.63,2.09-1.38,0-.63-.44-1.05-1.34-1.26l-1.52-.36c-1.66-.39-2.45-1.21-2.45-2.49,0-1.57,1.44-2.66,3.38-2.66s2.87.92,3.29,2.2l-1.33.34c-.25-.65-.77-1.29-1.95-1.29-1.09,0-1.9.56-1.9,1.32,0,.68.47,1.05,1.54,1.31l1.38.33c1.66.39,2.44,1.22,2.44,2.47,0,1.6-1.46,2.77-3.6,2.77"/>
  <path class="cls-1" d="M157.82,590h80.9v60.27h-80.9v-60.27Z"/>
  <path id="W-6" data-name="W" d="M178.35,626.59l4.42-12.18h1.8l4.48,12.18h-1.63l-1.22-3.4h-5.02l-1.18,3.4h-1.65ZM181.65,621.84h4.06c-.84-2.37-1.19-3.19-2.05-6.18-.88,3.08-1.19,3.76-2.01,6.18"/>
  <path id="as-5" data-name="as" d="M190.77,630.01v-12.55h1.42v1.46h.16c.3-.48.87-1.58,2.65-1.58,2.28,0,3.87,1.81,3.87,4.71s-1.59,4.74-3.87,4.74c-1.74,0-2.35-1.1-2.66-1.61h-.11v4.83h-1.47ZM194.79,625.47c1.71,0,2.59-1.52,2.59-3.44s-.86-3.38-2.59-3.38-2.57,1.36-2.57,3.38.91,3.44,2.57,3.44"/>
  <path id="as-6" data-name="as" d="M201.02,630.01v-12.55h1.42v1.46h.16c.3-.48.87-1.58,2.65-1.58,2.28,0,3.87,1.81,3.87,4.71s-1.59,4.74-3.87,4.74c-1.74,0-2.35-1.1-2.66-1.61h-.11v4.83h-1.47ZM205.04,625.47c1.71,0,2.59-1.52,2.59-3.44s-.86-3.38-2.59-3.38-2.57,1.36-2.57,3.38.91,3.44,2.57,3.44"/>
  <path id="V-26" data-name="V" d="M214.37,626.79c-1.88,0-3.19-.83-3.51-2.41l1.4-.34c.26,1.01,1.01,1.45,2.1,1.45,1.28,0,2.09-.63,2.09-1.38,0-.63-.44-1.05-1.34-1.26l-1.52-.36c-1.66-.39-2.45-1.21-2.45-2.49,0-1.57,1.44-2.66,3.38-2.66s2.87.92,3.29,2.2l-1.33.34c-.25-.65-.77-1.29-1.95-1.29-1.09,0-1.9.56-1.9,1.32,0,.68.47,1.05,1.54,1.31l1.38.33c1.66.39,2.44,1.22,2.44,2.47,0,1.6-1.46,2.77-3.6,2.77"/>
  <path class="cls-1" d="M131.65,228.94h107.07v60.27h-107.08v-60.27Z"/>
  <path id="ak-5" data-name="ak" d="M153.41,254.73v-1.37h9.2v1.37h-3.82v10.81h-1.55v-10.81h-3.83"/>
  <path id="Z-19" data-name="Z" d="M164.71,265.53v-9.14h1.47v9.14h-1.47ZM165.45,254.9c-.56,0-1.02-.43-1.02-.97s.47-.97,1.02-.97,1.03.43,1.03.97-.47.97-1.03.97"/>
  <path id="Y-5" data-name="Y" d="M168.76,265.53v-9.14h1.43v1.68c.46-1.23,1.49-1.84,2.57-1.84,1.2,0,2,.74,2.33,1.86.43-1.15,1.55-1.86,2.88-1.86,1.59,0,2.88,1.02,2.88,3.14v6.16h-1.48v-6.12c0-1.32-.86-1.84-1.84-1.84-1.23,0-1.99.84-1.99,1.99v5.97h-1.47v-6.27c0-1.01-.76-1.69-1.79-1.69s-2.04.75-2.04,2.21v5.75h-1.47"/>
  <path id="U-24" data-name="U" d="M187.27,265.73c-2.65,0-4.28-1.88-4.28-4.69s1.62-4.76,4.11-4.76c1.94,0,3.98,1.19,3.98,4.57v.61h-6.6c.07,1.91,1.19,2.96,2.8,2.96,1.08,0,1.89-.47,2.23-1.41l1.42.39c-.43,1.38-1.79,2.32-3.66,2.32ZM184.48,260.22h5.1c-.14-1.55-.98-2.63-2.48-2.63s-2.53,1.23-2.62,2.63"/>
  <path id="ac-8" data-name="ac" d="M194.66,253.35v12.18h-1.47v-12.18h1.47"/>
  <path id="Z-20" data-name="Z" d="M197.24,265.53v-9.14h1.47v9.14h-1.47ZM197.99,254.9c-.56,0-1.02-.43-1.02-.97s.47-.97,1.02-.97,1.03.43,1.03.97-.47.97-1.03.97"/>
  <path id="aa-8" data-name="aa" d="M202.77,260.06v5.48h-1.47v-9.14h1.41v1.69c.6-1.29,1.58-1.81,2.8-1.81,1.85,0,3.09,1.14,3.09,3.45v5.8h-1.47v-5.68c0-1.41-.78-2.25-2.06-2.25s-2.31.89-2.31,2.45"/>
  <path id="U-25" data-name="U" d="M215.03,265.73c-2.65,0-4.28-1.88-4.28-4.69s1.62-4.76,4.11-4.76c1.94,0,3.98,1.19,3.98,4.57v.61h-6.6c.07,1.91,1.19,2.96,2.8,2.96,1.08,0,1.89-.47,2.23-1.41l1.42.39c-.43,1.38-1.79,2.32-3.66,2.32ZM212.24,260.22h5.1c-.14-1.55-.98-2.63-2.48-2.63s-2.53,1.23-2.62,2.63"/>
  <path class="cls-1" d="M135.48,499.74h103.24v60.26h-103.25v-60.26Z"/>
  <path id="ao-4" data-name="ao" d="M161.63,536.54c-2.64,0-4.28-1.36-4.42-3.4h1.59c.12,1.38,1.4,2.01,2.83,2.01,1.65,0,2.91-.87,2.91-2.17.04-1.66-2.4-1.95-3.88-2.39-1.95-.6-3.11-1.56-3.11-3.18,0-2.06,1.83-3.42,4.18-3.42s4.08,1.4,4.15,3.24h-1.52c-.14-1.19-1.23-1.86-2.68-1.86-1.58,0-2.62.83-2.62,1.98,0,1.28,1.43,1.72,2.32,1.97l1.22.34c1.31.36,3.45,1.1,3.45,3.37,0,1.99-1.61,3.53-4.42,3.53"/>
  <path id="al-5" data-name="al" d="M171.39,536.44c-1.85,0-3.1-1.14-3.1-3.45v-5.8h1.47v5.68c0,1.41.79,2.25,2.07,2.25s2.3-.89,2.3-2.45v-5.48h1.48v9.14h-1.42v-1.71c-.6,1.33-1.59,1.82-2.8,1.82"/>
  <path id="as-7" data-name="as" d="M178.19,539.74v-12.55h1.42v1.46h.16c.3-.48.87-1.58,2.65-1.58,2.28,0,3.87,1.81,3.87,4.71s-1.59,4.74-3.87,4.74c-1.74,0-2.35-1.1-2.66-1.61h-.11v4.83h-1.47ZM182.22,535.21c1.71,0,2.59-1.52,2.59-3.44s-.86-3.38-2.59-3.38-2.57,1.36-2.57,3.38.91,3.44,2.57,3.44"/>
  <path id="as-8" data-name="as" d="M188.44,539.74v-12.55h1.42v1.46h.16c.3-.48.87-1.58,2.65-1.58,2.28,0,3.87,1.81,3.87,4.71s-1.59,4.74-3.87,4.74c-1.74,0-2.35-1.1-2.66-1.61h-.11v4.83h-1.47ZM192.47,535.21c1.71,0,2.59-1.52,2.59-3.44s-.86-3.38-2.59-3.38-2.57,1.36-2.57,3.38.91,3.44,2.57,3.44"/>
  <path id="S-11" data-name="S" d="M202.41,536.52c-2.48,0-4.16-1.89-4.16-4.71s1.68-4.74,4.16-4.74,4.18,1.88,4.18,4.74-1.68,4.71-4.18,4.71ZM202.41,535.21c1.85,0,2.69-1.59,2.69-3.39s-.84-3.42-2.69-3.42-2.66,1.6-2.66,3.42.84,3.39,2.66,3.39"/>
  <path id="R-21" data-name="R" d="M208.73,536.33v-9.14h1.42v1.41h.1c.34-.92,1.28-1.54,2.37-1.54.21,0,.57.02.74.02v1.48c-.09-.02-.49-.08-.88-.08-1.32,0-2.28.89-2.28,2.13v5.72h-1.47"/>
  <path id="am-8" data-name="am" d="M218.89,527.19v1.26h-1.88v5.51c0,.82.3,1.18,1.08,1.18.19,0,.51-.05.75-.1l.3,1.24c-.3.11-.72.16-1.1.16-1.58,0-2.51-.87-2.51-2.37v-5.62h-1.37v-1.26h1.37v-2.17h1.47v2.17h1.88"/>
  <path class="cls-1" d="M968.99,612.58h123.25v60.25h-123.26v-60.25Z"/>
  <path id="at-2" data-name="at" d="M990.46,649.16v-12.18h4.17c2.84,0,4.15,1.59,4.15,3.76,0,1.62-.72,2.87-2.26,3.41l2.73,5.01h-1.8l-2.53-4.73c-.96.02-1.95,0-2.91,0v4.72h-1.55ZM992.01,643.05h2.55c1.92,0,2.67-.88,2.67-2.31s-.75-2.39-2.69-2.39h-2.53v4.71"/>
  <path id="U-26" data-name="U" d="M1004.64,649.36c-2.65,0-4.28-1.88-4.28-4.69s1.62-4.76,4.11-4.76c1.94,0,3.98,1.19,3.98,4.57v.61h-6.6c.07,1.91,1.19,2.96,2.8,2.96,1.08,0,1.89-.47,2.23-1.41l1.42.39c-.43,1.38-1.79,2.32-3.66,2.32ZM1001.86,643.85h5.1c-.14-1.55-.98-2.63-2.48-2.63s-2.53,1.23-2.62,2.63"/>
  <path id="V-27" data-name="V" d="M1013.67,649.36c-1.88,0-3.19-.83-3.51-2.41l1.4-.34c.26,1.01,1.01,1.45,2.1,1.45,1.28,0,2.09-.63,2.09-1.38,0-.63-.44-1.05-1.34-1.26l-1.52-.36c-1.66-.39-2.45-1.21-2.45-2.49,0-1.57,1.44-2.66,3.38-2.66s2.87.92,3.29,2.2l-1.33.34c-.25-.65-.77-1.29-1.95-1.29-1.09,0-1.9.56-1.9,1.32,0,.68.47,1.05,1.54,1.31l1.38.33c1.66.39,2.44,1.22,2.44,2.47,0,1.6-1.46,2.77-3.6,2.77"/>
  <path id="S-12" data-name="S" d="M1023.12,649.36c-2.48,0-4.16-1.89-4.16-4.71s1.68-4.74,4.16-4.74,4.18,1.88,4.18,4.74-1.68,4.71-4.18,4.71ZM1023.12,648.04c1.85,0,2.69-1.59,2.69-3.39s-.84-3.42-2.69-3.42-2.66,1.6-2.66,3.42.84,3.39,2.66,3.39"/>
  <path id="al-6" data-name="al" d="M1032.53,649.27c-1.85,0-3.1-1.14-3.1-3.45v-5.8h1.47v5.68c0,1.41.79,2.25,2.07,2.25s2.3-.89,2.3-2.45v-5.48h1.48v9.14h-1.42v-1.71c-.6,1.33-1.59,1.82-2.8,1.82"/>
  <path id="R-22" data-name="R" d="M1039.33,649.16v-9.14h1.42v1.41h.1c.34-.92,1.28-1.54,2.37-1.54.21,0,.57.02.74.02v1.48c-.09-.02-.49-.08-.88-.08-1.32,0-2.28.89-2.28,2.13v5.72h-1.47"/>
  <path id="T-8" data-name="T" d="M1049.08,649.36c-2.48,0-4.16-1.89-4.16-4.71s1.68-4.74,4.16-4.74c1.77,0,3.2.93,3.7,2.53l-1.41.4c-.27-.94-1.09-1.61-2.29-1.61-1.82,0-2.66,1.6-2.66,3.42s.84,3.39,2.66,3.39c1.23,0,2.06-.69,2.33-1.68l1.41.4c-.49,1.63-1.95,2.6-3.74,2.6"/>
  <path id="U-27" data-name="U" d="M1058.76,649.36c-2.65,0-4.28-1.88-4.28-4.69s1.62-4.76,4.11-4.76c1.94,0,3.98,1.19,3.98,4.57v.61h-6.6c.07,1.91,1.19,2.96,2.8,2.96,1.08,0,1.89-.47,2.23-1.41l1.42.39c-.43,1.38-1.79,2.32-3.66,2.32ZM1055.98,643.85h5.1c-.14-1.55-.98-2.63-2.48-2.63s-2.53,1.23-2.62,2.63"/>
  <path id="V-28" data-name="V" d="M1067.79,649.36c-1.88,0-3.19-.83-3.51-2.41l1.4-.34c.26,1.01,1.01,1.45,2.1,1.45,1.28,0,2.09-.63,2.09-1.38,0-.63-.44-1.05-1.34-1.26l-1.52-.36c-1.66-.39-2.45-1.21-2.45-2.49,0-1.57,1.44-2.66,3.38-2.66s2.87.92,3.29,2.2l-1.33.34c-.25-.65-.77-1.29-1.95-1.29-1.09,0-1.9.56-1.9,1.32,0,.68.47,1.05,1.54,1.31l1.38.33c1.66.39,2.44,1.22,2.44,2.47,0,1.6-1.46,2.77-3.6,2.77"/>
  <path class="cls-10" d="M623.02,484.74c0-22.09,17.91-40,40-40h160c22.09,0,40,17.91,40,40h0c0,22.09-17.91,40-40,40h-160c-22.09,0-40-17.91-40-40h0Z"/>
  <path id="au-2" data-name="au" d="M679.69,491.2c-3.5,0-5.73-1.63-5.82-4.73h2.9c.1,1.47,1.28,2.21,2.89,2.21s2.65-.75,2.65-1.86c0-1-.93-1.46-2.51-1.85l-1.6-.4c-2.46-.6-3.94-1.84-3.94-3.96,0-2.63,2.3-4.38,5.47-4.38s5.33,1.79,5.38,4.35h-2.88c-.11-1.16-1.04-1.84-2.53-1.84s-2.38.7-2.38,1.68c-.03,1.52,2.21,1.81,3.64,2.16,2.44.6,4.35,1.82,4.35,4.26,0,2.65-2.08,4.36-5.62,4.36"/>
  <path id="av-4" data-name="av" d="M692.81,480.07v2.24h-2.04v5.49c0,.69.28,1.02,1,1.02.22,0,.71-.07.93-.13l.42,2.2c-.65.2-1.31.26-1.89.26-2.19,0-3.38-1.09-3.38-3.1v-5.74h-1.5v-2.24h1.5v-2.6h2.93v2.6h2.04"/>
  <path id="aw-2" data-name="aw" d="M698.47,491.13c-2.27,0-3.76-1.55-3.76-4.11v-6.94h2.93v6.44c0,1.36.74,2.17,1.97,2.17s2.12-.84,2.12-2.29v-6.32h2.94v10.92h-2.77l-.04-2.27c-.62,1.54-1.73,2.4-3.39,2.4"/>
  <path id="ax-2" data-name="ax" d="M711.16,491.17c-2.52,0-4.45-1.99-4.45-5.62s2.01-5.62,4.43-5.62c1.86,0,2.71,1.1,3.11,1.97h.1v-5.47h2.93v14.55h-2.88v-1.75h-.15c-.4.88-1.31,1.93-3.09,1.93ZM712.06,488.82c1.49,0,2.34-1.31,2.34-3.28s-.84-3.26-2.34-3.26-2.34,1.35-2.34,3.26.82,3.28,2.34,3.28"/>
  <path id="ay-2" data-name="ay" d="M724.7,491.2c-3.34,0-5.39-2.17-5.39-5.62s2.05-5.65,5.24-5.65c2.85,0,5.13,1.81,5.13,5.54v.82h-7.47c.07,1.79,1.06,2.71,2.54,2.71,1.03,0,1.8-.45,2.11-1.29l2.66.5c-.54,1.82-2.28,3-4.81,3ZM722.23,484.46h4.63c-.15-1.43-.92-2.31-2.28-2.31s-2.24.97-2.35,2.31"/>
  <path id="az-2" data-name="az" d="M734.61,484.67v6.32h-2.93v-10.92h2.76l.04,2.26c.62-1.52,1.72-2.39,3.4-2.39,2.27,0,3.75,1.55,3.75,4.11v6.94h-2.93v-6.44c0-1.36-.74-2.17-1.97-2.17s-2.12.84-2.12,2.29"/>
  <path id="av-5" data-name="av" d="M749.56,480.07v2.24h-2.04v5.49c0,.69.28,1.02,1,1.02.22,0,.71-.07.93-.13l.42,2.2c-.65.2-1.31.26-1.89.26-2.19,0-3.38-1.09-3.38-3.1v-5.74h-1.5v-2.24h1.5v-2.6h2.93v2.6h2.04"/>
  <path id="aA-2" data-name="aA" d="M756.27,490.99v-14.55h5.67c3.31,0,5.21,2.05,5.21,4.91s-1.92,4.88-5.27,4.88h-2.63v4.76h-2.98ZM759.24,483.83h2.15c1.82,0,2.68-1.02,2.68-2.48s-.86-2.45-2.69-2.45h-2.14v4.93"/>
  <path id="aB-2" data-name="aB" d="M773.87,491.2c-3.29,0-5.34-2.27-5.34-5.62s2.05-5.64,5.34-5.64,5.34,2.27,5.34,5.64-2.06,5.62-5.34,5.62ZM773.87,488.9c1.56,0,2.36-1.43,2.36-3.33s-.8-3.33-2.36-3.33-2.35,1.4-2.35,3.33.79,3.33,2.35,3.33"/>
  <path id="aC-2" data-name="aC" d="M781.26,490.99v-10.92h2.83v1.9h.12c.53-1.65,1.8-2.32,3.58-1.95v2.62c-.26-.08-.84-.15-1.27-.15-1.35,0-2.33.93-2.33,2.29v6.21h-2.93"/>
  <path id="av-6" data-name="av" d="M795.21,480.07v2.24h-2.04v5.49c0,.69.28,1.02,1,1.02.22,0,.71-.07.93-.13l.42,2.2c-.65.2-1.31.26-1.89.26-2.19,0-3.38-1.09-3.38-3.1v-5.74h-1.5v-2.24h1.5v-2.6h2.93v2.6h2.04"/>
  <path id="aD-2" data-name="aD" d="M800.26,491.2c-2.08,0-3.63-1.11-3.63-3.27,0-2.44,1.97-3.14,4.12-3.35,1.9-.21,2.65-.23,2.65-1.03,0-.93-.62-1.46-1.71-1.46s-1.83.56-2.06,1.26l-2.69-.45c.56-1.89,2.31-2.98,4.76-2.98s4.63,1.05,4.63,3.7v7.35h-2.77v-1.51h-.1c-.53,1.02-1.58,1.73-3.19,1.73ZM801.09,489.14c1.37,0,2.32-.91,2.32-2.06v-1.18c-.36.25-1.52.41-2.17.5-1.08.16-1.81.58-1.81,1.46s.68,1.29,1.65,1.29"/>
  <path id="aE-2" data-name="aE" d="M811.75,476.44v14.55h-2.93v-14.55h2.93"/>
  <path class="cls-1" d="M402.23,499.74h112.82v60.26h-112.82v-60.26Z"/>
  <path id="aF-2" data-name="aF" d="M423.9,536.33v-12.18h2.21l3,7.68c.23.59.61,1.78.9,2.77.29-.96.66-2.16.9-2.77l2.96-7.68h2.22v12.18h-1.53c.02-3.66-.04-6.84.06-10.52-1.28,4.06-2.54,6.78-3.95,10.52h-1.35c-1.44-3.74-2.68-6.41-3.99-10.5.1,3.58.04,6.89.06,10.5h-1.48"/>
  <path id="ag-10" data-name="ag" d="M438.78,539.64l.38-1.28c.98.29,1.68.16,2.15-1.23l.26-.76-3.49-9.19h1.61c.87,2.56,1.94,5.07,2.65,7.77.71-2.71,1.79-5.21,2.66-7.77h1.6l-4.01,10.5c-.56,1.45-1.44,2.12-2.73,2.12-.52,0-.92-.1-1.08-.17"/>
  <path id="ak-6" data-name="ak" d="M452.55,525.52v-1.37h9.2v1.37h-3.82v10.81h-1.55v-10.81h-3.83"/>
  <path id="U-28" data-name="U" d="M466.38,536.52c-2.65,0-4.28-1.88-4.28-4.69s1.62-4.76,4.11-4.76c1.94,0,3.98,1.19,3.98,4.57v.61h-6.6c.07,1.91,1.19,2.96,2.8,2.96,1.08,0,1.89-.47,2.23-1.41l1.42.39c-.43,1.38-1.79,2.32-3.66,2.32ZM463.6,531.02h5.1c-.14-1.55-.98-2.63-2.48-2.63s-2.53,1.23-2.62,2.63"/>
  <path id="af-14" data-name="af" d="M475.02,536.54c-1.73,0-3.11-1.01-3.11-2.81,0-2.09,1.86-2.48,3.56-2.69,1.65-.22,2.35-.13,2.35-.88,0-1.14-.65-1.79-1.91-1.79s-2.03.7-2.31,1.34l-1.41-.47c.7-1.66,2.27-2.17,3.69-2.17,1.23,0,3.42.38,3.42,3.23v6.02h-1.45v-1.24h-.1c-.31.65-1.17,1.45-2.71,1.45ZM475.28,535.24c1.63,0,2.53-1.1,2.53-2.22v-1.27c-.25.29-1.85.45-2.41.52-1.07.14-2.01.48-2.01,1.52,0,.95.79,1.44,1.89,1.44"/>
  <path id="Y-6" data-name="Y" d="M481.86,536.33v-9.14h1.43v1.68c.46-1.23,1.49-1.84,2.57-1.84,1.2,0,2,.74,2.33,1.86.43-1.15,1.55-1.86,2.88-1.86,1.59,0,2.88,1.02,2.88,3.14v6.16h-1.48v-6.12c0-1.32-.86-1.84-1.84-1.84-1.23,0-1.99.84-1.99,1.99v5.97h-1.47v-6.27c0-1.01-.76-1.69-1.79-1.69s-2.04.75-2.04,2.21v5.75h-1.47"/>
  <path class="cls-2" d="M662.54,484.78l-5.8.13-7.3.45-6.52.7-5.92.86-5.5,1.05-5.15,1.2-4.95,1.38-4.86,1.58-4.9,1.82-5.18,2.18-5.92,2.8-8.64,4.53-22.33,12.2-5.92,2.8-5.17,2.16-4.9,1.83-4.87,1.57-4.96,1.38-5.16,1.2-5.5,1.06-5.92.88-6.52.68-7.3.46-5.8.12"/>
  <path class="cls-6" d="M665.05,484.74l.2,2.47-2.72.06-.1-4.96,2.8-.06-.18,2.49ZM507.61,532.35h-2.56v-4.95h2.56v4.95Z"/>
  <path class="cls-4" d="M821.49,484.78l2.4.16,2.32.24,2.26.34,2.2.42,2.16.5,2.13.6,2.12.68,2.1.78,2.07.88,2.08.98,2.1,1.1,2.13,1.23,2.17,1.38,2.2,1.53,2.27,1.74,2.35,1.94,2.43,2.2,2.57,2.52,2.72,2.9,2.93,3.4,3.2,4.04,3.58,4.93,4.15,6.26,5.18,8.58,8.1,14.8,23.25,44.47,5.2,8.58,4.15,6.26,3.57,4.94,3.2,4.04,2.93,3.4,2.72,2.9,2.57,2.52,2.44,2.2,2.35,1.94,2.27,1.72,2.2,1.54,2.17,1.37,2.12,1.23,2.1,1.1,2.08.98,2.1.88,2.08.77,2.1.7,2.13.58,2.15.52,2.2.42,2.26.33,2.34.25,2.4.15"/>
  <path class="cls-9" d="M821.6,482.32l-.1,4.95-2.7-.07.2-2.47-.2-2.48,2.8.07ZM978.99,640.23v4.95h-2.57v-4.95h2.57Z"/>
  <path class="cls-5" d="M1068.17,326.83h.4l2.78.18,2.67.28,2.58.4,2.5.47,2.45.57,2.4.67,2.34.77,2.33.87,2.32.97,2.3,1.1,2.32,1.22,2.35,1.35,2.37,1.5,2.43,1.7,2.5,1.9,2.6,2.14,2.7,2.44,2.86,2.8,3.08,3.3,3.37,3.9,3.8,4.8,4.53,6.24,6.06,9.16,29,47.07,4.53,6.24,3.8,4.8,3.36,3.9,3.07,3.3,2.87,2.8,2.7,2.44,2.6,2.14,2.5,1.9,2.42,1.7,2.38,1.5,2.34,1.35,2.32,1.2,2.3,1.1,2.33.98,2.32.86,2.35.78,2.4.67,2.44.57,2.5.48,2.6.38,2.65.28,2.78.17h.4"/>
  <path class="cls-8" d="M1068.29,324.35l-.1,4.95-2.52-.05v-4.95l2.62.05ZM1225.67,459.7v4.95h-2.56v-4.95h2.56Z"/>
  <path class="cls-3" d="M396.2,439.66l-1.8.03-4.02.27-3.78.4-3.6.52-3.42.65-3.3.77-3.18.9-3.1,1-3.04,1.13-3,1.26-3,1.4-2.98,1.58-3.02,1.74-3.1,1.97-3.22,2.23-3.4,2.58-3.67,3.05-4.16,3.75-5.1,5-8.27,8.86-18.96,20.86-5.1,5-4.15,3.74-3.68,3.05-3.4,2.6-3.2,2.22-3.1,1.97-3.03,1.74-2.98,1.56-3,1.4-2.98,1.27-3.04,1.13-3.1,1-3.2.9-3.28.77-3.43.65-3.6.53-3.8.4-4,.25-1.82.04"/>
  <path class="cls-7" d="M398.72,442.08l-2.53.05-.1-4.95,2.62-.05v4.95ZM241.27,532.35h-2.56v-4.95h2.55v4.95Z"/>
  <path class="cls-5" d="M1068.17,326.83l5.8.1,7.3.47,6.53.68,5.93.88,5.47,1.04,5.16,1.2,4.95,1.4,4.86,1.57,4.9,1.82,5.2,2.18,5.9,2.8,8.64,4.53,22.34,12.2,5.9,2.8,5.2,2.17,4.9,1.83,4.86,1.58,4.95,1.4,5.16,1.2,5.47,1.04,5.93.88,6.53.68,7.3.46,5.8.12"/>
  <path class="cls-8" d="M1068.29,324.35l-.1,4.95-2.52-.05v-4.95l2.62.05ZM1225.67,369.43v4.95h-2.56v-4.95h2.56Z"/>
  <path class="cls-3" d="M662.54,484.68l-5.8-.1-7.3-.47-6.52-.68-5.92-.88-5.5-1.04-5.15-1.2-4.95-1.4-4.86-1.57-4.9-1.83-5.18-2.18-5.92-2.8-8.64-4.53-22.33-12.2-5.92-2.8-5.17-2.17-4.9-1.83-4.87-1.57-4.96-1.4-5.16-1.2-5.5-1.04-5.92-.87-6.52-.68-7.3-.45-5.8-.12"/>
  <path class="cls-7" d="M665.24,482.28l-.2,2.46.2,2.48-2.8-.06.1-4.95,2.7.07ZM507.61,437.13v4.95h-2.56v-4.95h2.56Z"/>
  <path class="cls-3" d="M396.2,439.61h-155"/>
  <path class="cls-7" d="M398.72,442.08h-2.58v-4.95h2.57v4.95ZM241.27,442.08h-2.56v-4.95h2.55v4.95Z"/>
  <path class="cls-5" d="M1068.17,326.72l5.8-.12,7.3-.45,6.53-.7,5.93-.86,5.47-1.03,5.16-1.2,4.95-1.4,4.86-1.58,4.9-1.83,5.2-2.18,5.9-2.8,8.64-4.54,22.34-12.2,5.9-2.8,5.2-2.17,4.9-1.84,4.86-1.58,4.95-1.38,5.16-1.2,5.47-1.05,5.93-.88,6.53-.68,7.3-.47,5.8-.12"/>
  <path class="cls-8" d="M1068.29,329.2l-2.62.05v-4.95l2.52-.05.1,4.95ZM1225.67,284.12h-2.56v-4.95h2.56v4.95Z"/>
  <path class="cls-3" d="M396.2,439.55l-1.8-.03-4.02-.26-3.78-.4-3.6-.52-3.42-.66-3.3-.77-3.18-.9-3.1-1-3.04-1.13-3-1.26-3-1.4-2.98-1.57-3.02-1.74-3.1-1.97-3.22-2.24-3.4-2.58-3.67-3.04-4.16-3.75-5.1-5-8.27-8.86-18.96-20.87-5.1-5-4.15-3.74-3.68-3.06-3.4-2.58-3.2-2.23-3.1-1.97-3.03-1.75-2.98-1.55-3-1.4-2.98-1.27-3.04-1.13-3.1-1-3.2-.9-3.28-.77-3.43-.65-3.6-.53-3.8-.4-4-.25-1.82-.04"/>
  <path class="cls-7" d="M398.72,437.13v4.95l-2.63-.05.1-4.95,2.53.05ZM241.27,346.86v4.95h-2.56v-4.94h2.56Z"/>
  <path class="cls-5" d="M821.49,484.68l2.4-.14,2.32-.25,2.26-.32,2.2-.42,2.16-.5,2.13-.6,2.12-.7,2.1-.77,2.07-.88,2.08-.98,2.1-1.1,2.13-1.23,2.17-1.36,2.2-1.54,2.27-1.72,2.35-1.94,2.43-2.2,2.57-2.52,2.72-2.9,2.93-3.4,3.2-4.04,3.58-4.93,4.15-6.26,5.18-8.6,8.1-14.8,23.25-44.46,5.2-8.58,4.15-6.26,3.57-4.93,3.2-4.04,2.93-3.4,2.72-2.9,2.57-2.5,2.44-2.2,2.35-1.96,2.27-1.72,2.2-1.53,2.17-1.38,2.12-1.22,2.1-1.1,2.08-1,2.1-.86,2.08-.78,2.1-.68,2.13-.6,2.15-.5,2.2-.42,2.26-.34,2.34-.24,2.4-.15"/>
  <path class="cls-8" d="M821.6,487.16l-2.8.06.2-2.48-.2-2.47,2.7-.07.1,4.96ZM978.99,329.25h-2.57v-4.95h2.57v4.95Z"/>
  <path class="cls-5" d="M1068.17,326.72h.4l2.78-.18,2.67-.28,2.58-.38,2.5-.48,2.45-.57,2.4-.67,2.34-.76,2.33-.87,2.32-.97,2.3-1.1,2.32-1.2,2.35-1.36,2.37-1.5,2.43-1.7,2.5-1.9,2.6-2.14,2.7-2.44,2.86-2.8,3.08-3.28,3.37-3.9,3.8-4.8,4.53-6.25,6.06-9.15,29-47.07,4.53-6.24,3.8-4.8,3.36-3.9,3.07-3.28,2.87-2.8,2.7-2.45,2.6-2.13,2.5-1.9,2.42-1.7,2.38-1.5,2.34-1.35,2.32-1.22,2.3-1.08,2.33-.98,2.32-.86,2.35-.77,2.4-.66,2.44-.57,2.5-.48,2.6-.4,2.65-.27,2.78-.17h.4"/>
  <path class="cls-8" d="M1068.29,329.18l-2.62.07v-4.95l2.5-.05.12,4.93ZM1225.67,193.85h-2.56v-4.95h2.56v4.95Z"/>
  <path class="cls-3" d="M396.2,439.54l-1.8-.1-2.06-.23-2-.3-1.98-.37-1.94-.46-1.92-.53-1.9-.62-1.9-.7-1.9-.8-1.9-.9-1.92-1-1.95-1.13-1.97-1.26-2.03-1.4-2.1-1.6-2.15-1.8-2.25-2-2.35-2.32-2.5-2.65-2.65-3.1-2.87-3.62-3.14-4.33-3.53-5.3-4.08-6.75-5.02-9.14-7.2-14.6-28.2-61-5-9.14-4.08-6.74-3.52-5.3-3.14-4.34-2.87-3.62-2.66-3.08-2.48-2.66-2.35-2.3-2.25-2.03-2.16-1.8-2.1-1.58-2.02-1.4-1.98-1.27-1.95-1.12-1.9-1-1.92-.9-1.9-.8-1.9-.7-1.9-.63-1.9-.53-1.95-.46-1.97-.37-2-.3-2.07-.23-1.82-.1"/>
  <path class="cls-7" d="M398.72,437.13v4.95l-2.63-.05.1-4.95,2.53.05ZM241.27,256.6v4.95h-2.56v-4.95h2.56Z"/>
  <path class="cls-5" d="M1068.17,326.68l.97-.05,1.68-.18,1.64-.24,1.63-.3,1.6-.4,1.6-.43,1.6-.52,1.6-.6,1.6-.67,1.63-.75,1.64-.87,1.67-.96,1.7-1.1,1.76-1.2,1.8-1.38,1.9-1.56,1.94-1.76,2.06-2,2.16-2.32,2.3-2.67,2.47-3.12,2.66-3.67,2.93-4.4,3.26-5.4,3.72-6.8,4.4-8.88,5.57-12.57,8.64-22,27.3-73.84,5.58-12.56,4.4-8.9,3.72-6.78,3.27-5.4,2.93-4.4,2.67-3.7,2.47-3.1,2.3-2.67,2.16-2.3,2.06-2.02,1.95-1.76,1.9-1.55,1.8-1.4,1.76-1.2,1.7-1.1,1.68-.96,1.64-.86,1.63-.76,1.6-.68,1.6-.6,1.6-.5,1.6-.46,1.6-.37,1.64-.3,1.64-.25,1.68-.17.97-.06"/>
  <path class="cls-8" d="M1068.29,329.18l-2.62.07v-4.95l2.5-.05.12,4.93ZM1225.67,103.58h-2.56v-4.94h2.56v4.94Z"/>
</svg>