<?xml version="1.0" encoding="UTF-8"?>
<svg id="Layer_1" data-name="Layer 1" xmlns="http://www.w3.org/2000/svg" viewBox="0 0 959.1 520">
  <defs>
    <style>
      .cls-1 {
        fill: #f9d2b7;
      }

      .cls-2, .cls-3, .cls-4, .cls-5, .cls-6, .cls-7, .cls-8 {
        isolation: isolate;
      }

      .cls-2, .cls-5, .cls-7 {
        fill: #fff;
        font-family: Inter-Regular, Inter;
        font-variation-settings: 'opsz' 14, 'wght' 400;
      }

      .cls-2, .cls-6 {
        font-size: 22px;
      }

      .cls-9 {
        fill: #f6b892;
      }

      .cls-4 {
        font-size: 27.43px;
      }

      .cls-4, .cls-6, .cls-8 {
        font-family: Arial-BoldMT, Arial;
        font-weight: 700;
      }

      .cls-4, .cls-8 {
        fill: #1f2937;
      }

      .cls-5, .cls-7, .cls-8 {
        font-size: 18px;
      }

      .cls-6, .cls-10 {
        fill: #d34508;
      }

      .cls-7 {
        letter-spacing: -.02em;
      }

      .cls-11 {
        fill: #f2f2f2;
      }

      .cls-12 {
        fill: #fde7d8;
      }
    </style>
  </defs>
  <g class="cls-3">
    <rect class="cls-11" width="959.1" height="520"/>
    <text class="cls-4" transform="translate(294.76 64.88)"><tspan x="0" y="0">Onboarding Funnel Drop-off</tspan></text>
  </g>
  <g>
    <polygon class="cls-12" points="58.05 105.01 901.05 105.01 816.75 185.01 142.35 185.01 58.05 105.01"/>
    <polygon class="cls-1" points="142.35 185.01 816.75 185.01 732.45 265.01 226.65 265.01 142.35 185.01"/>
    <polygon class="cls-9" points="226.65 265.01 732.45 265.01 648.15 345.01 310.95 345.01 226.65 265.01"/>
    <polygon class="cls-10" points="310.95 345.01 648.15 345.01 563.85 455.03 395.25 455.03 310.95 345.01"/>
    <g class="cls-3">
      <text class="cls-8" transform="translate(403.53 140.7)"><tspan x="0" y="0">Engagement Rate</tspan></text>
    </g>
    <g class="cls-3">
      <text class="cls-6" transform="translate(457.53 168.01)"><tspan x="0" y="0">41%</tspan></text>
    </g>
    <g class="cls-3">
      <text class="cls-8" transform="translate(380.54 220.59)"><tspan x="0" y="0">Orientation Scheduling</tspan></text>
    </g>
    <g class="cls-3">
      <text class="cls-6" transform="translate(457.53 248.01)"><tspan x="0" y="0">58%</tspan></text>
    </g>
    <g class="cls-3">
      <text class="cls-8" transform="translate(398.03 300.85)"><tspan x="0" y="0">Rage Click Friction</tspan></text>
    </g>
    <g class="cls-3">
      <text class="cls-6" transform="translate(457.53 328.01)"><tspan x="0" y="0">12%</tspan></text>
    </g>
    <g class="cls-3">
      <text class="cls-5" transform="translate(378.37 395.01)"><tspan x="0" y="0">Onb</tspan></text>
      <text class="cls-5" transform="translate(414.45 395.01)"><tspan x="0" y="0">o</tspan></text>
      <text class="cls-5" transform="translate(425.58 395.01)"><tspan x="0" y="0">a</tspan></text>
      <text class="cls-7" transform="translate(435.92 395.01)"><tspan x="0" y="0">r</tspan></text>
      <text class="cls-5" transform="translate(442.67 395.01)"><tspan x="0" y="0">ding Completion</tspan></text>
    </g>
    <g class="cls-3">
      <text class="cls-2" transform="translate(454.82 425.02)"><tspan x="0" y="0">46%</tspan></text>
    </g>
  </g>
</svg>